SplineFontDB: 3.2
FontName: TN_pixel
FullName: TN_pixel
FamilyName: TN_pixel
Weight: Book
Copyright: Copyright (c) 2026 Maxibonng for the game "The_night". All rights reserved.
Version: 1.000
ItalicAngle: 0
UnderlinePosition: -100
UnderlineWidth: 50
Ascent: 750
Descent: 250
InvalidEm: 0
sfntRevision: 0x00010000
LayerCount: 2
Layer: 0 1 "Back" 1
Layer: 1 1 "Fore" 0
XUID: [1021 245 -1989420130 13726]
StyleMap: 0x0040
FSType: 0
OS2Version: 4
OS2_WeightWidthSlopeOnly: 0
OS2_UseTypoMetrics: 0
CreationTime: 1713929761
ModificationTime: 1781194918
PfmFamily: 17
TTFWeight: 400
TTFWidth: 5
LineGap: 0
VLineGap: 0
Panose: 2 0 5 0 0 0 0 0 0 0
OS2TypoAscent: 750
OS2TypoAOffset: 0
OS2TypoDescent: -250
OS2TypoDOffset: 0
OS2TypoLinegap: 0
OS2WinAscent: 800
OS2WinAOffset: 0
OS2WinDescent: 194
OS2WinDOffset: 0
HheadAscent: 750
HheadAOffset: 0
HheadDescent: -250
HheadDOffset: 0
OS2SubXSize: 700
OS2SubYSize: 650
OS2SubXOff: 0
OS2SubYOff: 140
OS2SupXSize: 700
OS2SupYSize: 650
OS2SupXOff: 100
OS2SupYOff: 350
OS2StrikeYSize: 50
OS2StrikeYPos: 250
OS2CapHeight: 680
OS2XHeight: 486
OS2Vendor: 'NONE'
OS2CodePages: 00000001.00000000
OS2UnicodeRanges: 00000003.00000000.00000000.00000000
Lookup: 258 0 0 "'kern' Horizontal Kerning in Latin lookup 0" { "'kern' Horizontal Kerning in Latin lookup 0 subtable"  } ['kern' ('latn' <'dflt' > ) ]
MarkAttachClasses: 1
DEI: 91125
ShortTable: maxp 16
  1
  0
  194
  84
  14
  0
  0
  1
  0
  0
  0
  0
  0
  0
  0
  0
EndShort
LangName: 1033 "" "" "Regular" "FontForge 2.0 : TN_pixel : 11-6-2026" "" "Version 1.000" "" "" "" "" "Copyright (c) 2024. All rights reserved."
GaspTable: 3 8 10 17 5 65535 15 1
Encoding: UnicodeBmp
UnicodeInterp: none
NameList: AGL For New Fonts
DisplaySize: -48
AntiAlias: 1
FitToEm: 0
WinInfo: 0 39 15
BeginChars: 65539 194

StartChar: .notdef
Encoding: 65536 -1 0
Width: 500
GlyphClass: 1
Flags: W
LayerCount: 2
Fore
SplineSet
451 0 m 1,0,-1
 49 0 l 1,1,-1
 49 700 l 1,2,-1
 451 700 l 1,3,-1
 451 0 l 1,0,-1
427 24 m 1,4,-1
 427 676 l 1,5,-1
 73 676 l 1,6,-1
 73 24 l 1,7,-1
 427 24 l 1,4,-1
234 222 m 1,8,-1
 218 222 l 1,9,10
 201 269 201 269 201 294 c 0,11,12
 201 331 201 331 241 400 c 0,13,14
 280 470 280 470 280 506 c 0,15,16
 280 534 280 534 264.5 550 c 128,-1,17
 249 566 249 566 220 566 c 0,18,19
 202 566 202 566 188.5 559 c 128,-1,20
 175 552 175 552 159 539 c 1,21,-1
 159 561 l 1,22,23
 200 596 200 596 242 596 c 0,24,25
 285 596 285 596 313 573.5 c 128,-1,26
 341 551 341 551 341 511 c 0,27,28
 341 462 341 462 288 399 c 0,29,30
 256 360 256 360 239 334.5 c 128,-1,31
 222 309 222 309 222 287 c 0,32,33
 222 268 222 268 234 222 c 1,8,-1
228 104 m 0,34,35
 222 104 222 104 218 109 c 2,36,-1
 188 144 l 2,37,38
 185 148 185 148 185 152 c 0,39,40
 185 157 185 157 190 163 c 2,41,-1
 218 191 l 2,42,43
 223 196 223 196 228 196 c 256,44,45
 233 196 233 196 238 191 c 2,46,-1
 266 162 l 2,47,48
 270 156 270 156 270 152 c 0,49,50
 270 146 270 146 265 141 c 2,51,-1
 238 111 l 2,52,53
 231 104 231 104 228 104 c 0,34,35
EndSplineSet
EndChar

StartChar: exclam
Encoding: 33 33 3
Width: 197
GlyphClass: 7
Flags: W
LayerCount: 2
Fore
SplineSet
147 0 m 1,0,-1
 50 0 l 1,1,-1
 50 97 l 1,2,-1
 147 97 l 1,3,-1
 147 0 l 1,0,-1
147 194 m 1,4,-1
 50 194 l 1,5,-1
 50 680 l 1,6,-1
 147 680 l 1,7,-1
 147 194 l 1,4,-1
EndSplineSet
EndChar

StartChar: quotedbl
Encoding: 34 34 4
Width: 343
GlyphClass: 2
Flags: W
LayerCount: 2
Fore
SplineSet
147 535 m 1,0,-1
 99 535 l 1,1,-1
 99 583 l 1,2,-1
 50 583 l 1,3,-1
 50 680 l 1,4,-1
 147 680 l 1,5,-1
 147 535 l 1,0,-1
99 486 m 1,6,-1
 50 486 l 1,7,-1
 50 535 l 1,8,-1
 99 535 l 1,9,-1
 99 486 l 1,6,-1
293 535 m 1,10,-1
 244 535 l 1,11,-1
 244 583 l 1,12,-1
 196 583 l 1,13,-1
 196 680 l 1,14,-1
 293 680 l 1,15,-1
 293 535 l 1,10,-1
244 486 m 1,16,-1
 196 486 l 1,17,-1
 196 535 l 1,18,-1
 244 535 l 1,19,-1
 244 486 l 1,16,-1
EndSplineSet
EndChar

StartChar: numbersign
Encoding: 35 35 5
Width: 586
GlyphClass: 2
Flags: W
LayerCount: 2
Fore
SplineSet
439 97 m 1,0,-1
 341 97 l 1,1,-1
 341 194 l 1,2,-1
 244 194 l 1,3,-1
 244 97 l 1,4,-1
 147 97 l 1,5,-1
 147 194 l 1,6,-1
 50 194 l 1,7,-1
 50 292 l 1,8,-1
 147 292 l 1,9,-1
 147 389 l 1,10,-1
 50 389 l 1,11,-1
 50 486 l 1,12,-1
 147 486 l 1,13,-1
 147 583 l 1,14,-1
 244 583 l 1,15,-1
 244 486 l 1,16,-1
 341 486 l 1,17,-1
 341 583 l 1,18,-1
 439 583 l 1,19,-1
 439 486 l 1,20,-1
 536 486 l 1,21,-1
 536 389 l 1,22,-1
 439 389 l 1,23,-1
 439 292 l 1,24,-1
 536 292 l 1,25,-1
 536 194 l 1,26,-1
 439 194 l 1,27,-1
 439 97 l 1,0,-1
341 292 m 1,28,-1
 341 389 l 1,29,-1
 244 389 l 1,30,-1
 244 292 l 1,31,-1
 341 292 l 1,28,-1
EndSplineSet
EndChar

StartChar: dollar
Encoding: 36 36 6
Width: 384
GlyphClass: 1
Flags: W
LayerCount: 2
Fore
SplineSet
341 486 m 1,0,-1
 244 486 l 1,1,-1
 244 583 l 1,2,-1
 147 583 l 1,3,-1
 147 486 l 1,4,-1
 50 486 l 1,5,-1
 50 389 l 1,6,-1
 147 389 l 1,7,-1
 147 292 l 1,8,-1
 50 292 l 1,9,-1
 50 194 l 1,10,-1
 147 194 l 1,11,-1
 147 97 l 1,12,-1
 244 97 l 1,13,-1
 244 194 l 1,14,-1
 341 194 l 1,15,-1
 341 292 l 1,16,-1
 244 292 l 1,17,-1
 244 389 l 1,18,-1
 341 389 l 1,19,-1
 341 486 l 1,0,-1
EndSplineSet
EndChar

StartChar: percent
Encoding: 37 37 7
Width: 634
GlyphClass: 1
Flags: W
LayerCount: 2
Fore
SplineSet
196 437 m 1,0,-1
 99 437 l 1,1,-1
 99 462 l 1,2,-1
 74 462 l 1,3,-1
 74 486 l 1,4,-1
 50 486 l 1,5,-1
 50 632 l 1,6,-1
 74 632 l 1,7,-1
 74 656 l 1,8,-1
 99 656 l 1,9,-1
 99 680 l 1,10,-1
 196 680 l 1,11,-1
 196 656 l 1,12,-1
 220 656 l 1,13,-1
 220 632 l 1,14,-1
 244 632 l 1,15,-1
 244 486 l 1,16,-1
 220 486 l 1,17,-1
 220 462 l 1,18,-1
 196 462 l 1,19,-1
 196 437 l 1,0,-1
196 486 m 1,20,-1
 196 632 l 1,21,-1
 99 632 l 1,22,-1
 99 486 l 1,23,-1
 196 486 l 1,20,-1
536 0 m 1,24,-1
 439 0 l 1,25,-1
 439 24 l 1,26,-1
 414 24 l 1,27,-1
 414 49 l 1,28,-1
 390 49 l 1,29,-1
 390 194 l 1,30,-1
 414 194 l 1,31,-1
 414 219 l 1,32,-1
 439 219 l 1,33,-1
 439 243 l 1,34,-1
 536 243 l 1,35,-1
 536 219 l 1,36,-1
 560 219 l 1,37,-1
 560 194 l 1,38,-1
 584 194 l 1,39,-1
 584 49 l 1,40,-1
 560 49 l 1,41,-1
 560 24 l 1,42,-1
 536 24 l 1,43,-1
 536 0 l 1,24,-1
536 49 m 1,44,-1
 536 194 l 1,45,-1
 439 194 l 1,46,-1
 439 49 l 1,47,-1
 536 49 l 1,44,-1
341 292 m 1,48,-1
 293 292 l 1,49,-1
 293 389 l 1,50,-1
 341 389 l 1,51,-1
 341 292 l 1,48,-1
439 437 m 1,52,-1
 390 437 l 1,53,-1
 390 535 l 1,54,-1
 439 535 l 1,55,-1
 439 437 l 1,52,-1
536 583 m 1,56,-1
 487 583 l 1,57,-1
 487 680 l 1,58,-1
 536 680 l 1,59,-1
 536 583 l 1,56,-1
390 389 m 1,60,-1
 341 389 l 1,61,-1
 341 437 l 1,62,-1
 390 437 l 1,63,-1
 390 389 l 1,60,-1
487 535 m 1,64,-1
 439 535 l 1,65,-1
 439 583 l 1,66,-1
 487 583 l 1,67,-1
 487 535 l 1,64,-1
244 146 m 1,68,-1
 196 146 l 1,69,-1
 196 243 l 1,70,-1
 244 243 l 1,71,-1
 244 146 l 1,68,-1
147 0 m 1,72,-1
 99 0 l 1,73,-1
 99 97 l 1,74,-1
 147 97 l 1,75,-1
 147 0 l 1,72,-1
293 243 m 1,76,-1
 244 243 l 1,77,-1
 244 292 l 1,78,-1
 293 292 l 1,79,-1
 293 243 l 1,76,-1
196 97 m 1,80,-1
 147 97 l 1,81,-1
 147 146 l 1,82,-1
 196 146 l 1,83,-1
 196 97 l 1,80,-1
EndSplineSet
EndChar

StartChar: ampersand
Encoding: 38 38 8
Width: 683
GlyphClass: 1
Flags: W
LayerCount: 2
Fore
SplineSet
147 97 m 1,0,-1
 50 97 l 1,1,-1
 50 292 l 1,2,-1
 147 292 l 1,3,-1
 147 97 l 1,0,-1
147 389 m 1,4,-1
 50 389 l 1,5,-1
 50 583 l 1,6,-1
 147 583 l 1,7,-1
 147 389 l 1,4,-1
439 583 m 1,8,-1
 147 583 l 1,9,-1
 147 680 l 1,10,-1
 439 680 l 1,11,-1
 439 583 l 1,8,-1
536 486 m 1,12,-1
 439 486 l 1,13,-1
 439 583 l 1,14,-1
 536 583 l 1,15,-1
 536 486 l 1,12,-1
633 0 m 1,16,-1
 536 0 l 1,17,-1
 536 97 l 1,18,-1
 633 97 l 1,19,-1
 633 0 l 1,16,-1
439 0 m 1,20,-1
 147 0 l 1,21,-1
 147 97 l 1,22,-1
 439 97 l 1,23,-1
 439 0 l 1,20,-1
536 97 m 1,24,-1
 439 97 l 1,25,-1
 439 292 l 1,26,-1
 147 292 l 1,27,-1
 147 389 l 1,28,-1
 633 389 l 1,29,-1
 633 292 l 1,30,-1
 536 292 l 1,31,-1
 536 97 l 1,24,-1
EndSplineSet
EndChar

StartChar: quotesingle
Encoding: 39 39 9
Width: 197
GlyphClass: 2
Flags: W
LayerCount: 2
Fore
SplineSet
147 535 m 1,0,-1
 99 535 l 1,1,-1
 99 583 l 1,2,-1
 50 583 l 1,3,-1
 50 680 l 1,4,-1
 147 680 l 1,5,-1
 147 535 l 1,0,-1
99 486 m 1,6,-1
 50 486 l 1,7,-1
 50 535 l 1,8,-1
 99 535 l 1,9,-1
 99 486 l 1,6,-1
EndSplineSet
EndChar

StartChar: parenleft
Encoding: 40 40 10
Width: 294
GlyphClass: 1
Flags: W
LayerCount: 2
Fore
SplineSet
244 680 m 1,0,-1
 147 680 l 1,1,-1
 147 777 l 1,2,-1
 244 777 l 1,3,-1
 244 680 l 1,0,-1
244 -97 m 1,4,-1
 147 -97 l 1,5,-1
 147 0 l 1,6,-1
 244 0 l 1,7,-1
 244 -97 l 1,4,-1
147 0 m 1,8,-1
 50 0 l 1,9,-1
 50 680 l 1,10,-1
 147 680 l 1,11,-1
 147 0 l 1,8,-1
EndSplineSet
EndChar

StartChar: parenright
Encoding: 41 41 11
Width: 294
GlyphClass: 1
Flags: W
LayerCount: 2
Fore
SplineSet
147 -97 m 1,0,-1
 50 -97 l 1,1,-1
 50 0 l 1,2,-1
 147 0 l 1,3,-1
 147 -97 l 1,0,-1
147 680 m 1,4,-1
 50 680 l 1,5,-1
 50 777 l 1,6,-1
 147 777 l 1,7,-1
 147 680 l 1,4,-1
244 0 m 1,8,-1
 147 0 l 1,9,-1
 147 680 l 1,10,-1
 244 680 l 1,11,-1
 244 0 l 1,8,-1
EndSplineSet
EndChar

StartChar: asterisk
Encoding: 42 42 12
Width: 391
GlyphClass: 1
Flags: W
LayerCount: 2
Fore
SplineSet
244 486 m 1,0,-1
 147 486 l 1,1,-1
 147 583 l 1,2,-1
 244 583 l 1,3,-1
 244 486 l 1,0,-1
147 583 m 1,4,-1
 50 583 l 1,5,-1
 50 680 l 1,6,-1
 147 680 l 1,7,-1
 147 583 l 1,4,-1
341 583 m 1,8,-1
 244 583 l 1,9,-1
 244 680 l 1,10,-1
 341 680 l 1,11,-1
 341 583 l 1,8,-1
147 389 m 1,12,-1
 50 389 l 1,13,-1
 50 486 l 1,14,-1
 147 486 l 1,15,-1
 147 389 l 1,12,-1
341 389 m 1,16,-1
 244 389 l 1,17,-1
 244 486 l 1,18,-1
 341 486 l 1,19,-1
 341 389 l 1,16,-1
EndSplineSet
EndChar

StartChar: plus
Encoding: 43 43 13
Width: 586
GlyphClass: 2
Flags: W
LayerCount: 2
Fore
SplineSet
341 97 m 1,0,-1
 244 97 l 1,1,-1
 244 292 l 1,2,-1
 50 292 l 1,3,-1
 50 389 l 1,4,-1
 244 389 l 1,5,-1
 244 583 l 1,6,-1
 341 583 l 1,7,-1
 341 389 l 1,8,-1
 536 389 l 1,9,-1
 536 292 l 1,10,-1
 341 292 l 1,11,-1
 341 97 l 1,0,-1
EndSplineSet
EndChar

StartChar: comma
Encoding: 44 44 14
Width: 197
GlyphClass: 1
Flags: W
LayerCount: 2
Fore
SplineSet
147 -48 m 1,0,-1
 99 -48 l 1,1,-1
 99 0 l 1,2,-1
 50 0 l 1,3,-1
 50 97 l 1,4,-1
 147 97 l 1,5,-1
 147 -48 l 1,0,-1
99 -97 m 1,6,-1
 50 -97 l 1,7,-1
 50 -48 l 1,8,-1
 99 -48 l 1,9,-1
 99 -97 l 1,6,-1
EndSplineSet
EndChar

StartChar: period
Encoding: 46 46 15
Width: 197
GlyphClass: 1
Flags: W
LayerCount: 2
Fore
SplineSet
147 0 m 1,0,-1
 50 0 l 1,1,-1
 50 97 l 1,2,-1
 147 97 l 1,3,-1
 147 0 l 1,0,-1
EndSplineSet
EndChar

StartChar: slash
Encoding: 47 47 16
Width: 537
GlyphClass: 1
Flags: W
LayerCount: 2
Fore
SplineSet
293 292 m 1,0,-1
 244 292 l 1,1,-1
 244 389 l 1,2,-1
 293 389 l 1,3,-1
 293 292 l 1,0,-1
390 437 m 1,4,-1
 341 437 l 1,5,-1
 341 535 l 1,6,-1
 390 535 l 1,7,-1
 390 437 l 1,4,-1
487 583 m 1,8,-1
 439 583 l 1,9,-1
 439 680 l 1,10,-1
 487 680 l 1,11,-1
 487 583 l 1,8,-1
341 389 m 1,12,-1
 293 389 l 1,13,-1
 293 437 l 1,14,-1
 341 437 l 1,15,-1
 341 389 l 1,12,-1
439 535 m 1,16,-1
 390 535 l 1,17,-1
 390 583 l 1,18,-1
 439 583 l 1,19,-1
 439 535 l 1,16,-1
196 146 m 1,20,-1
 147 146 l 1,21,-1
 147 243 l 1,22,-1
 196 243 l 1,23,-1
 196 146 l 1,20,-1
99 0 m 1,24,-1
 50 0 l 1,25,-1
 50 97 l 1,26,-1
 99 97 l 1,27,-1
 99 0 l 1,24,-1
244 243 m 1,28,-1
 196 243 l 1,29,-1
 196 292 l 1,30,-1
 244 292 l 1,31,-1
 244 243 l 1,28,-1
147 97 m 1,32,-1
 99 97 l 1,33,-1
 99 146 l 1,34,-1
 147 146 l 1,35,-1
 147 97 l 1,32,-1
EndSplineSet
EndChar

StartChar: zero
Encoding: 48 48 17
Width: 586
GlyphClass: 1
Flags: W
LayerCount: 2
Fore
SplineSet
439 583 m 1,0,-1
 147 583 l 1,1,-1
 147 680 l 1,2,-1
 439 680 l 1,3,-1
 439 583 l 1,0,-1
439 0 m 1,4,-1
 147 0 l 1,5,-1
 147 97 l 1,6,-1
 439 97 l 1,7,-1
 439 0 l 1,4,-1
341 291 m 1,8,-1
 244 291 l 1,9,-1
 244 389 l 1,10,-1
 341 389 l 1,11,-1
 341 291 l 1,8,-1
147 97 m 1,12,-1
 50 97 l 1,13,-1
 50 583 l 1,14,-1
 147 583 l 1,15,-1
 147 291 l 1,16,-1
 244 291 l 1,17,-1
 244 194 l 1,18,-1
 147 194 l 1,19,-1
 147 97 l 1,12,-1
536 97 m 1,20,-1
 439 97 l 1,21,-1
 439 389 l 1,22,-1
 341 389 l 1,23,-1
 341 486 l 1,24,-1
 439 486 l 1,25,-1
 439 583 l 1,26,-1
 536 583 l 1,27,-1
 536 97 l 1,20,-1
EndSplineSet
EndChar

StartChar: one
Encoding: 49 49 18
Width: 391
GlyphClass: 1
Flags: W
LayerCount: 2
Fore
SplineSet
341 0 m 1,0,-1
 50 0 l 1,1,-1
 50 97 l 1,2,-1
 147 97 l 1,3,-1
 147 583 l 1,4,-1
 50 583 l 1,5,-1
 50 680 l 1,6,-1
 244 680 l 1,7,-1
 244 97 l 1,8,-1
 341 97 l 1,9,-1
 341 0 l 1,0,-1
EndSplineSet
EndChar

StartChar: two
Encoding: 50 50 19
Width: 586
GlyphClass: 2
Flags: W
LayerCount: 2
Fore
SplineSet
439 583 m 1,0,-1
 147 583 l 1,1,-1
 147 680 l 1,2,-1
 439 680 l 1,3,-1
 439 583 l 1,0,-1
536 486 m 1,4,-1
 439 486 l 1,5,-1
 439 583 l 1,6,-1
 536 583 l 1,7,-1
 536 486 l 1,4,-1
439 389 m 1,8,-1
 341 389 l 1,9,-1
 341 486 l 1,10,-1
 439 486 l 1,11,-1
 439 389 l 1,8,-1
341 291 m 1,12,-1
 244 291 l 1,13,-1
 244 389 l 1,14,-1
 341 389 l 1,15,-1
 341 291 l 1,12,-1
244 194 m 1,16,-1
 147 194 l 1,17,-1
 147 291 l 1,18,-1
 244 291 l 1,19,-1
 244 194 l 1,16,-1
147 486 m 1,20,-1
 50 486 l 1,21,-1
 50 583 l 1,22,-1
 147 583 l 1,23,-1
 147 486 l 1,20,-1
536 0 m 1,24,-1
 50 0 l 1,25,-1
 50 194 l 1,26,-1
 147 194 l 1,27,-1
 147 97 l 1,28,-1
 536 97 l 1,29,-1
 536 0 l 1,24,-1
EndSplineSet
EndChar

StartChar: three
Encoding: 51 51 20
Width: 586
GlyphClass: 1
Flags: W
LayerCount: 2
Fore
SplineSet
439 583 m 1,0,-1
 147 583 l 1,1,-1
 147 680 l 1,2,-1
 439 680 l 1,3,-1
 439 583 l 1,0,-1
439 0 m 1,4,-1
 147 0 l 1,5,-1
 147 97 l 1,6,-1
 439 97 l 1,7,-1
 439 0 l 1,4,-1
439 291 m 1,8,-1
 147 291 l 1,9,-1
 147 389 l 1,10,-1
 439 389 l 1,11,-1
 439 291 l 1,8,-1
536 389 m 1,12,-1
 439 389 l 1,13,-1
 439 583 l 1,14,-1
 536 583 l 1,15,-1
 536 389 l 1,12,-1
147 486 m 1,16,-1
 50 486 l 1,17,-1
 50 583 l 1,18,-1
 147 583 l 1,19,-1
 147 486 l 1,16,-1
536 97 m 1,20,-1
 439 97 l 1,21,-1
 439 291 l 1,22,-1
 536 291 l 1,23,-1
 536 97 l 1,20,-1
147 97 m 1,24,-1
 50 97 l 1,25,-1
 50 194 l 1,26,-1
 147 194 l 1,27,-1
 147 97 l 1,24,-1
EndSplineSet
EndChar

StartChar: four
Encoding: 52 52 21
Width: 586
GlyphClass: 2
Flags: W
LayerCount: 2
Fore
SplineSet
536 0 m 1,0,-1
 244 0 l 1,1,-1
 244 97 l 1,2,-1
 341 97 l 1,3,-1
 341 194 l 1,4,-1
 50 194 l 1,5,-1
 50 389 l 1,6,-1
 147 389 l 1,7,-1
 147 291 l 1,8,-1
 341 291 l 1,9,-1
 341 486 l 1,10,-1
 244 486 l 1,11,-1
 244 583 l 1,12,-1
 341 583 l 1,13,-1
 341 680 l 1,14,-1
 439 680 l 1,15,-1
 439 291 l 1,16,-1
 536 291 l 1,17,-1
 536 194 l 1,18,-1
 439 194 l 1,19,-1
 439 97 l 1,20,-1
 536 97 l 1,21,-1
 536 0 l 1,0,-1
244 389 m 1,22,-1
 147 389 l 1,23,-1
 147 486 l 1,24,-1
 244 486 l 1,25,-1
 244 389 l 1,22,-1
EndSplineSet
EndChar

StartChar: five
Encoding: 53 53 22
Width: 586
GlyphClass: 2
Flags: W
LayerCount: 2
Fore
SplineSet
439 0 m 1,0,-1
 147 0 l 1,1,-1
 147 97 l 1,2,-1
 439 97 l 1,3,-1
 439 0 l 1,0,-1
439 291 m 1,4,-1
 147 291 l 1,5,-1
 147 389 l 1,6,-1
 439 389 l 1,7,-1
 439 291 l 1,4,-1
536 97 m 1,8,-1
 439 97 l 1,9,-1
 439 291 l 1,10,-1
 536 291 l 1,11,-1
 536 97 l 1,8,-1
147 389 m 1,12,-1
 50 389 l 1,13,-1
 50 680 l 1,14,-1
 536 680 l 1,15,-1
 536 583 l 1,16,-1
 147 583 l 1,17,-1
 147 389 l 1,12,-1
147 97 m 1,18,-1
 50 97 l 1,19,-1
 50 194 l 1,20,-1
 147 194 l 1,21,-1
 147 97 l 1,18,-1
EndSplineSet
EndChar

StartChar: six
Encoding: 54 54 23
Width: 586
GlyphClass: 3
Flags: W
LayerCount: 2
Fore
SplineSet
439 0 m 1,0,-1
 147 0 l 1,1,-1
 147 97 l 1,2,-1
 439 97 l 1,3,-1
 439 0 l 1,0,-1
439 291 m 1,4,-1
 147 291 l 1,5,-1
 147 389 l 1,6,-1
 439 389 l 1,7,-1
 439 291 l 1,4,-1
147 389 m 1,8,-1
 50 389 l 1,9,-1
 50 486 l 1,10,-1
 147 486 l 1,11,-1
 147 389 l 1,8,-1
244 486 m 1,12,-1
 147 486 l 1,13,-1
 147 583 l 1,14,-1
 244 583 l 1,15,-1
 244 486 l 1,12,-1
439 583 m 1,16,-1
 244 583 l 1,17,-1
 244 680 l 1,18,-1
 439 680 l 1,19,-1
 439 583 l 1,16,-1
536 97 m 1,20,-1
 439 97 l 1,21,-1
 439 291 l 1,22,-1
 536 291 l 1,23,-1
 536 97 l 1,20,-1
147 97 m 1,24,-1
 50 97 l 1,25,-1
 50 291 l 1,26,-1
 147 291 l 1,27,-1
 147 97 l 1,24,-1
EndSplineSet
EndChar

StartChar: seven
Encoding: 55 55 24
Width: 586
GlyphClass: 1
Flags: W
LayerCount: 2
Fore
SplineSet
244 0 m 1,0,-1
 147 0 l 1,1,-1
 147 291 l 1,2,-1
 244 291 l 1,3,-1
 244 0 l 1,0,-1
536 486 m 1,4,-1
 439 486 l 1,5,-1
 439 583 l 1,6,-1
 147 583 l 1,7,-1
 147 486 l 1,8,-1
 50 486 l 1,9,-1
 50 680 l 1,10,-1
 536 680 l 1,11,-1
 536 486 l 1,4,-1
439 389 m 1,12,-1
 341 389 l 1,13,-1
 341 486 l 1,14,-1
 439 486 l 1,15,-1
 439 389 l 1,12,-1
341 291 m 1,16,-1
 244 291 l 1,17,-1
 244 389 l 1,18,-1
 341 389 l 1,19,-1
 341 291 l 1,16,-1
EndSplineSet
EndChar

StartChar: eight
Encoding: 56 56 25
Width: 586
GlyphClass: 2
Flags: W
LayerCount: 2
Fore
SplineSet
439 583 m 1,0,-1
 147 583 l 1,1,-1
 147 680 l 1,2,-1
 439 680 l 1,3,-1
 439 583 l 1,0,-1
439 0 m 1,4,-1
 147 0 l 1,5,-1
 147 97 l 1,6,-1
 439 97 l 1,7,-1
 439 0 l 1,4,-1
439 291 m 1,8,-1
 147 291 l 1,9,-1
 147 389 l 1,10,-1
 439 389 l 1,11,-1
 439 291 l 1,8,-1
147 97 m 1,12,-1
 50 97 l 1,13,-1
 50 291 l 1,14,-1
 147 291 l 1,15,-1
 147 97 l 1,12,-1
536 389 m 1,16,-1
 439 389 l 1,17,-1
 439 583 l 1,18,-1
 536 583 l 1,19,-1
 536 389 l 1,16,-1
147 389 m 1,20,-1
 50 389 l 1,21,-1
 50 583 l 1,22,-1
 147 583 l 1,23,-1
 147 389 l 1,20,-1
536 97 m 1,24,-1
 439 97 l 1,25,-1
 439 291 l 1,26,-1
 536 291 l 1,27,-1
 536 97 l 1,24,-1
EndSplineSet
EndChar

StartChar: nine
Encoding: 57 57 26
Width: 586
GlyphClass: 1
Flags: W
LayerCount: 2
Fore
SplineSet
439 583 m 1,0,-1
 147 583 l 1,1,-1
 147 680 l 1,2,-1
 439 680 l 1,3,-1
 439 583 l 1,0,-1
439 97 m 1,4,-1
 341 97 l 1,5,-1
 341 194 l 1,6,-1
 439 194 l 1,7,-1
 439 97 l 1,4,-1
341 0 m 1,8,-1
 147 0 l 1,9,-1
 147 97 l 1,10,-1
 341 97 l 1,11,-1
 341 0 l 1,8,-1
147 389 m 1,12,-1
 50 389 l 1,13,-1
 50 583 l 1,14,-1
 147 583 l 1,15,-1
 147 389 l 1,12,-1
536 194 m 1,16,-1
 439 194 l 1,17,-1
 439 291 l 1,18,-1
 147 291 l 1,19,-1
 147 389 l 1,20,-1
 439 389 l 1,21,-1
 439 583 l 1,22,-1
 536 583 l 1,23,-1
 536 194 l 1,16,-1
EndSplineSet
EndChar

StartChar: colon
Encoding: 58 58 27
Width: 197
GlyphClass: 2
Flags: W
LayerCount: 2
Fore
SplineSet
147 0 m 1,0,-1
 50 0 l 1,1,-1
 50 97 l 1,2,-1
 147 97 l 1,3,-1
 147 0 l 1,0,-1
147 195 m 1,4,-1
 50 195 l 1,5,-1
 50 292 l 1,6,-1
 147 292 l 1,7,-1
 147 195 l 1,4,-1
EndSplineSet
EndChar

StartChar: semicolon
Encoding: 59 59 28
Width: 197
GlyphClass: 7
Flags: W
LayerCount: 2
Fore
SplineSet
147 -48 m 1,0,-1
 99 -48 l 1,1,-1
 99 0 l 1,2,-1
 50 0 l 1,3,-1
 50 97 l 1,4,-1
 147 97 l 1,5,-1
 147 -48 l 1,0,-1
147 195 m 1,6,-1
 50 195 l 1,7,-1
 50 292 l 1,8,-1
 147 292 l 1,9,-1
 147 195 l 1,6,-1
99 -97 m 1,10,-1
 50 -97 l 1,11,-1
 50 -48 l 1,12,-1
 99 -48 l 1,13,-1
 99 -97 l 1,10,-1
EndSplineSet
EndChar

StartChar: less
Encoding: 60 60 29
Width: 391
GlyphClass: 2
Flags: W
LayerCount: 2
Fore
SplineSet
244 389 m 1,0,-1
 147 389 l 1,1,-1
 147 486 l 1,2,-1
 244 486 l 1,3,-1
 244 389 l 1,0,-1
147 292 m 1,4,-1
 50 292 l 1,5,-1
 50 389 l 1,6,-1
 147 389 l 1,7,-1
 147 292 l 1,4,-1
244 194 m 1,8,-1
 147 194 l 1,9,-1
 147 292 l 1,10,-1
 244 292 l 1,11,-1
 244 194 l 1,8,-1
341 97 m 1,12,-1
 244 97 l 1,13,-1
 244 194 l 1,14,-1
 341 194 l 1,15,-1
 341 97 l 1,12,-1
341 486 m 1,16,-1
 244 486 l 1,17,-1
 244 583 l 1,18,-1
 341 583 l 1,19,-1
 341 486 l 1,16,-1
EndSplineSet
EndChar

StartChar: equal
Encoding: 61 61 30
Width: 489
GlyphClass: 1
Flags: W
LayerCount: 2
Fore
SplineSet
439 389 m 1,0,-1
 50 389 l 1,1,-1
 50 486 l 1,2,-1
 439 486 l 1,3,-1
 439 389 l 1,0,-1
439 194 m 1,4,-1
 50 194 l 1,5,-1
 50 292 l 1,6,-1
 439 292 l 1,7,-1
 439 194 l 1,4,-1
EndSplineSet
EndChar

StartChar: greater
Encoding: 62 62 31
Width: 391
GlyphClass: 2
Flags: W
LayerCount: 2
Fore
SplineSet
244 194 m 1,0,-1
 147 194 l 1,1,-1
 147 292 l 1,2,-1
 244 292 l 1,3,-1
 244 194 l 1,0,-1
147 97 m 1,4,-1
 50 97 l 1,5,-1
 50 194 l 1,6,-1
 147 194 l 1,7,-1
 147 97 l 1,4,-1
341 292 m 1,8,-1
 244 292 l 1,9,-1
 244 389 l 1,10,-1
 341 389 l 1,11,-1
 341 292 l 1,8,-1
244 389 m 1,12,-1
 147 389 l 1,13,-1
 147 486 l 1,14,-1
 244 486 l 1,15,-1
 244 389 l 1,12,-1
147 486 m 1,16,-1
 50 486 l 1,17,-1
 50 583 l 1,18,-1
 147 583 l 1,19,-1
 147 486 l 1,16,-1
EndSplineSet
EndChar

StartChar: question
Encoding: 63 63 32
Width: 586
GlyphClass: 1
Flags: W
LayerCount: 2
Fore
SplineSet
439 583 m 1,0,-1
 147 583 l 1,1,-1
 147 680 l 1,2,-1
 439 680 l 1,3,-1
 439 583 l 1,0,-1
244 0 m 1,4,-1
 147 0 l 1,5,-1
 147 97 l 1,6,-1
 244 97 l 1,7,-1
 244 0 l 1,4,-1
536 486 m 1,8,-1
 439 486 l 1,9,-1
 439 583 l 1,10,-1
 536 583 l 1,11,-1
 536 486 l 1,8,-1
439 389 m 1,12,-1
 341 389 l 1,13,-1
 341 486 l 1,14,-1
 439 486 l 1,15,-1
 439 389 l 1,12,-1
341 292 m 1,16,-1
 244 292 l 1,17,-1
 244 389 l 1,18,-1
 341 389 l 1,19,-1
 341 292 l 1,16,-1
244 194 m 1,20,-1
 147 194 l 1,21,-1
 147 292 l 1,22,-1
 244 292 l 1,23,-1
 244 194 l 1,20,-1
147 486 m 1,24,-1
 50 486 l 1,25,-1
 50 583 l 1,26,-1
 147 583 l 1,27,-1
 147 486 l 1,24,-1
EndSplineSet
EndChar

StartChar: at
Encoding: 64 64 33
Width: 780
GlyphClass: 1
Flags: W
LayerCount: 2
Fore
SplineSet
633 583 m 1,0,-1
 147 583 l 1,1,-1
 147 680 l 1,2,-1
 633 680 l 1,3,-1
 633 583 l 1,0,-1
633 0 m 1,4,-1
 147 0 l 1,5,-1
 147 97 l 1,6,-1
 633 97 l 1,7,-1
 633 0 l 1,4,-1
147 97 m 1,8,-1
 50 97 l 1,9,-1
 50 583 l 1,10,-1
 147 583 l 1,11,-1
 147 97 l 1,8,-1
633 194 m 1,12,-1
 341 194 l 1,13,-1
 341 292 l 1,14,-1
 439 292 l 1,15,-1
 439 389 l 1,16,-1
 341 389 l 1,17,-1
 341 486 l 1,18,-1
 536 486 l 1,19,-1
 536 292 l 1,20,-1
 633 292 l 1,21,-1
 633 194 l 1,12,-1
730 292 m 1,22,-1
 633 292 l 1,23,-1
 633 583 l 1,24,-1
 730 583 l 1,25,-1
 730 292 l 1,22,-1
341 292 m 1,26,-1
 244 292 l 1,27,-1
 244 389 l 1,28,-1
 341 389 l 1,29,-1
 341 292 l 1,26,-1
EndSplineSet
EndChar

StartChar: A
Encoding: 65 65 34
Width: 586
GlyphClass: 1
Flags: W
LayerCount: 2
Fore
SplineSet
439 583 m 1,0,-1
 147 583 l 1,1,-1
 147 680 l 1,2,-1
 439 680 l 1,3,-1
 439 583 l 1,0,-1
536 0 m 1,4,-1
 439 0 l 1,5,-1
 439 291 l 1,6,-1
 147 291 l 1,7,-1
 147 0 l 1,8,-1
 50 0 l 1,9,-1
 50 583 l 1,10,-1
 147 583 l 1,11,-1
 147 389 l 1,12,-1
 439 389 l 1,13,-1
 439 583 l 1,14,-1
 536 583 l 1,15,-1
 536 0 l 1,4,-1
EndSplineSet
EndChar

StartChar: B
Encoding: 66 66 35
Width: 586
GlyphClass: 2
Flags: W
LayerCount: 2
Fore
SplineSet
439 0 m 1,0,-1
 50 0 l 1,1,-1
 50 680 l 1,2,-1
 439 680 l 1,3,-1
 439 583 l 1,4,-1
 147 583 l 1,5,-1
 147 389 l 1,6,-1
 439 389 l 1,7,-1
 439 291 l 1,8,-1
 147 291 l 1,9,-1
 147 97 l 1,10,-1
 439 97 l 1,11,-1
 439 0 l 1,0,-1
536 389 m 1,12,-1
 439 389 l 1,13,-1
 439 583 l 1,14,-1
 536 583 l 1,15,-1
 536 389 l 1,12,-1
536 97 m 1,16,-1
 439 97 l 1,17,-1
 439 291 l 1,18,-1
 536 291 l 1,19,-1
 536 97 l 1,16,-1
EndSplineSet
EndChar

StartChar: C
Encoding: 67 67 36
Width: 586
GlyphClass: 2
Flags: WO
LayerCount: 2
Fore
SplineSet
439 583 m 1,0,-1
 147 583 l 1,1,-1
 147 680 l 1,2,-1
 439 680 l 1,3,-1
 439 583 l 1,0,-1
439 0 m 1,4,-1
 147 0 l 1,5,-1
 147 97 l 1,6,-1
 439 97 l 1,7,-1
 439 0 l 1,4,-1
536 486 m 1,8,-1
 439 486 l 1,9,-1
 439 583 l 1,10,-1
 536 583 l 1,11,-1
 536 486 l 1,8,-1
147 97 m 1,12,-1
 50 97 l 1,13,-1
 50 583 l 1,14,-1
 147 583 l 1,15,-1
 147 97 l 1,12,-1
536 97 m 1,16,-1
 439 97 l 1,17,-1
 439 194 l 1,18,-1
 536 194 l 1,19,-1
 536 97 l 1,16,-1
EndSplineSet
EndChar

StartChar: D
Encoding: 68 68 37
Width: 586
GlyphClass: 1
Flags: W
LayerCount: 2
Fore
SplineSet
439 0 m 1,0,-1
 50 0 l 1,1,-1
 50 680 l 1,2,-1
 439 680 l 1,3,-1
 439 583 l 1,4,-1
 147 583 l 1,5,-1
 147 97 l 1,6,-1
 439 97 l 1,7,-1
 439 0 l 1,0,-1
536 97 m 1,8,-1
 439 97 l 1,9,-1
 439 583 l 1,10,-1
 536 583 l 1,11,-1
 536 97 l 1,8,-1
EndSplineSet
EndChar

StartChar: E
Encoding: 69 69 38
Width: 586
GlyphClass: 2
Flags: W
LayerCount: 2
Fore
SplineSet
536 0 m 1,0,-1
 50 0 l 1,1,-1
 50 680 l 1,2,-1
 536 680 l 1,3,-1
 536 583 l 1,4,-1
 147 583 l 1,5,-1
 147 389 l 1,6,-1
 341 389 l 1,7,-1
 341 291 l 1,8,-1
 147 291 l 1,9,-1
 147 97 l 1,10,-1
 536 97 l 1,11,-1
 536 0 l 1,0,-1
EndSplineSet
EndChar

StartChar: F
Encoding: 70 70 39
Width: 586
GlyphClass: 2
Flags: W
LayerCount: 2
Fore
SplineSet
147 0 m 1,0,-1
 50 0 l 1,1,-1
 50 680 l 1,2,-1
 536 680 l 1,3,-1
 536 583 l 1,4,-1
 147 583 l 1,5,-1
 147 389 l 1,6,-1
 341 389 l 1,7,-1
 341 291 l 1,8,-1
 147 291 l 1,9,-1
 147 0 l 1,0,-1
EndSplineSet
EndChar

StartChar: G
Encoding: 71 71 40
Width: 586
GlyphClass: 1
Flags: W
LayerCount: 2
Fore
SplineSet
439 583 m 1,0,-1
 147 583 l 1,1,-1
 147 680 l 1,2,-1
 439 680 l 1,3,-1
 439 583 l 1,0,-1
439 0 m 1,4,-1
 147 0 l 1,5,-1
 147 97 l 1,6,-1
 439 97 l 1,7,-1
 439 0 l 1,4,-1
536 486 m 1,8,-1
 439 486 l 1,9,-1
 439 583 l 1,10,-1
 536 583 l 1,11,-1
 536 486 l 1,8,-1
147 97 m 1,12,-1
 50 97 l 1,13,-1
 50 583 l 1,14,-1
 147 583 l 1,15,-1
 147 97 l 1,12,-1
536 97 m 1,16,-1
 439 97 l 1,17,-1
 439 291 l 1,18,-1
 244 291 l 1,19,-1
 244 389 l 1,20,-1
 536 389 l 1,21,-1
 536 97 l 1,16,-1
EndSplineSet
EndChar

StartChar: H
Encoding: 72 72 41
Width: 586
GlyphClass: 3
Flags: W
LayerCount: 2
Fore
SplineSet
536 0 m 1,0,-1
 439 0 l 1,1,-1
 439 291 l 1,2,-1
 147 291 l 1,3,-1
 147 0 l 1,4,-1
 50 0 l 1,5,-1
 50 680 l 1,6,-1
 147 680 l 1,7,-1
 147 389 l 1,8,-1
 439 389 l 1,9,-1
 439 680 l 1,10,-1
 536 680 l 1,11,-1
 536 0 l 1,0,-1
EndSplineSet
EndChar

StartChar: I
Encoding: 73 73 42
Width: 391
GlyphClass: 3
Flags: W
LayerCount: 2
Fore
SplineSet
341 0 m 1,0,-1
 50 0 l 1,1,-1
 50 97 l 1,2,-1
 147 97 l 1,3,-1
 147 583 l 1,4,-1
 50 583 l 1,5,-1
 50 680 l 1,6,-1
 341 680 l 1,7,-1
 341 583 l 1,8,-1
 244 583 l 1,9,-1
 244 97 l 1,10,-1
 341 97 l 1,11,-1
 341 0 l 1,0,-1
EndSplineSet
EndChar

StartChar: J
Encoding: 74 74 43
Width: 586
GlyphClass: 2
Flags: W
LayerCount: 2
Fore
SplineSet
536 97 m 1,0,-1
 439 97 l 1,1,-1
 439 583 l 1,2,-1
 147 583 l 1,3,-1
 147 680 l 1,4,-1
 536 680 l 1,5,-1
 536 97 l 1,0,-1
439 0 m 1,6,-1
 147 0 l 1,7,-1
 147 97 l 1,8,-1
 439 97 l 1,9,-1
 439 0 l 1,6,-1
147 97 m 1,10,-1
 50 97 l 1,11,-1
 50 194 l 1,12,-1
 147 194 l 1,13,-1
 147 97 l 1,10,-1
EndSplineSet
EndChar

StartChar: K
Encoding: 75 75 44
Width: 586
GlyphClass: 3
Flags: W
LayerCount: 2
Fore
SplineSet
341 389 m 1,0,-1
 244 389 l 1,1,-1
 244 486 l 1,2,-1
 341 486 l 1,3,-1
 341 389 l 1,0,-1
439 486 m 1,4,-1
 341 486 l 1,5,-1
 341 583 l 1,6,-1
 439 583 l 1,7,-1
 439 486 l 1,4,-1
341 194 m 1,8,-1
 244 194 l 1,9,-1
 244 291 l 1,10,-1
 341 291 l 1,11,-1
 341 194 l 1,8,-1
439 97 m 1,12,-1
 341 97 l 1,13,-1
 341 194 l 1,14,-1
 439 194 l 1,15,-1
 439 97 l 1,12,-1
536 0 m 1,16,-1
 439 0 l 1,17,-1
 439 97 l 1,18,-1
 536 97 l 1,19,-1
 536 0 l 1,16,-1
536 583 m 1,20,-1
 439 583 l 1,21,-1
 439 680 l 1,22,-1
 536 680 l 1,23,-1
 536 583 l 1,20,-1
147 0 m 1,24,-1
 50 0 l 1,25,-1
 50 680 l 1,26,-1
 147 680 l 1,27,-1
 147 389 l 1,28,-1
 244 389 l 1,29,-1
 244 291 l 1,30,-1
 147 291 l 1,31,-1
 147 0 l 1,24,-1
EndSplineSet
EndChar

StartChar: L
Encoding: 76 76 45
Width: 586
GlyphClass: 1
Flags: W
LayerCount: 2
Fore
SplineSet
536 0 m 1,0,-1
 50 0 l 1,1,-1
 50 680 l 1,2,-1
 147 680 l 1,3,-1
 147 97 l 1,4,-1
 536 97 l 1,5,-1
 536 0 l 1,0,-1
EndSplineSet
EndChar

StartChar: M
Encoding: 77 77 46
Width: 780
GlyphClass: 1
Flags: W
LayerCount: 2
Fore
SplineSet
439 389 m 1,0,-1
 341 389 l 1,1,-1
 341 486 l 1,2,-1
 439 486 l 1,3,-1
 439 389 l 1,0,-1
341 486 m 1,4,-1
 244 486 l 1,5,-1
 244 583 l 1,6,-1
 341 583 l 1,7,-1
 341 486 l 1,4,-1
147 0 m 1,8,-1
 50 0 l 1,9,-1
 50 680 l 1,10,-1
 244 680 l 1,11,-1
 244 583 l 1,12,-1
 147 583 l 1,13,-1
 147 0 l 1,8,-1
536 486 m 1,14,-1
 439 486 l 1,15,-1
 439 583 l 1,16,-1
 536 583 l 1,17,-1
 536 486 l 1,14,-1
730 0 m 1,18,-1
 633 0 l 1,19,-1
 633 583 l 1,20,-1
 536 583 l 1,21,-1
 536 680 l 1,22,-1
 730 680 l 1,23,-1
 730 0 l 1,18,-1
EndSplineSet
EndChar

StartChar: N
Encoding: 78 78 47
Width: 586
GlyphClass: 1
Flags: W
LayerCount: 2
Fore
SplineSet
341 486 m 1,0,-1
 244 486 l 1,1,-1
 244 583 l 1,2,-1
 341 583 l 1,3,-1
 341 486 l 1,0,-1
147 0 m 1,4,-1
 50 0 l 1,5,-1
 50 680 l 1,6,-1
 244 680 l 1,7,-1
 244 583 l 1,8,-1
 147 583 l 1,9,-1
 147 0 l 1,4,-1
536 0 m 1,10,-1
 439 0 l 1,11,-1
 439 389 l 1,12,-1
 341 389 l 1,13,-1
 341 486 l 1,14,-1
 439 486 l 1,15,-1
 439 680 l 1,16,-1
 536 680 l 1,17,-1
 536 0 l 1,10,-1
EndSplineSet
EndChar

StartChar: O
Encoding: 79 79 48
Width: 586
GlyphClass: 1
Flags: W
LayerCount: 2
Fore
SplineSet
439 583 m 1,0,-1
 147 583 l 1,1,-1
 147 680 l 1,2,-1
 439 680 l 1,3,-1
 439 583 l 1,0,-1
439 0 m 1,4,-1
 147 0 l 1,5,-1
 147 97 l 1,6,-1
 439 97 l 1,7,-1
 439 0 l 1,4,-1
536 97 m 1,8,-1
 439 97 l 1,9,-1
 439 583 l 1,10,-1
 536 583 l 1,11,-1
 536 97 l 1,8,-1
147 97 m 1,12,-1
 50 97 l 1,13,-1
 50 583 l 1,14,-1
 147 583 l 1,15,-1
 147 97 l 1,12,-1
EndSplineSet
EndChar

StartChar: P
Encoding: 80 80 49
Width: 586
GlyphClass: 1
Flags: W
LayerCount: 2
Fore
SplineSet
147 0 m 1,0,-1
 50 0 l 1,1,-1
 50 680 l 1,2,-1
 439 680 l 1,3,-1
 439 583 l 1,4,-1
 147 583 l 1,5,-1
 147 389 l 1,6,-1
 439 389 l 1,7,-1
 439 291 l 1,8,-1
 147 291 l 1,9,-1
 147 0 l 1,0,-1
536 389 m 1,10,-1
 439 389 l 1,11,-1
 439 583 l 1,12,-1
 536 583 l 1,13,-1
 536 389 l 1,10,-1
EndSplineSet
EndChar

StartChar: Q
Encoding: 81 81 50
Width: 586
GlyphClass: 1
Flags: W
LayerCount: 2
Fore
SplineSet
439 583 m 1,0,-1
 147 583 l 1,1,-1
 147 680 l 1,2,-1
 439 680 l 1,3,-1
 439 583 l 1,0,-1
341 194 m 1,4,-1
 244 194 l 1,5,-1
 244 291 l 1,6,-1
 341 291 l 1,7,-1
 341 194 l 1,4,-1
536 0 m 1,8,-1
 439 0 l 1,9,-1
 439 97 l 1,10,-1
 536 97 l 1,11,-1
 536 0 l 1,8,-1
341 0 m 1,12,-1
 147 0 l 1,13,-1
 147 97 l 1,14,-1
 341 97 l 1,15,-1
 341 0 l 1,12,-1
536 194 m 1,16,-1
 439 194 l 1,17,-1
 439 583 l 1,18,-1
 536 583 l 1,19,-1
 536 194 l 1,16,-1
147 97 m 1,20,-1
 50 97 l 1,21,-1
 50 583 l 1,22,-1
 147 583 l 1,23,-1
 147 97 l 1,20,-1
439 97 m 1,24,-1
 341 97 l 1,25,-1
 341 194 l 1,26,-1
 439 194 l 1,27,-1
 439 97 l 1,24,-1
EndSplineSet
EndChar

StartChar: R
Encoding: 82 82 51
Width: 586
GlyphClass: 1
Flags: W
LayerCount: 2
Fore
SplineSet
439 97 m 1,0,-1
 341 97 l 1,1,-1
 341 194 l 1,2,-1
 439 194 l 1,3,-1
 439 97 l 1,0,-1
536 0 m 1,4,-1
 439 0 l 1,5,-1
 439 97 l 1,6,-1
 536 97 l 1,7,-1
 536 0 l 1,4,-1
147 0 m 1,8,-1
 50 0 l 1,9,-1
 50 680 l 1,10,-1
 439 680 l 1,11,-1
 439 583 l 1,12,-1
 147 583 l 1,13,-1
 147 389 l 1,14,-1
 439 389 l 1,15,-1
 439 291 l 1,16,-1
 341 291 l 1,17,-1
 341 194 l 1,18,-1
 244 194 l 1,19,-1
 244 291 l 1,20,-1
 147 291 l 1,21,-1
 147 0 l 1,8,-1
536 389 m 1,22,-1
 439 389 l 1,23,-1
 439 583 l 1,24,-1
 536 583 l 1,25,-1
 536 389 l 1,22,-1
EndSplineSet
EndChar

StartChar: S
Encoding: 83 83 52
Width: 586
GlyphClass: 1
Flags: W
LayerCount: 2
Fore
SplineSet
439 583 m 1,0,-1
 147 583 l 1,1,-1
 147 680 l 1,2,-1
 439 680 l 1,3,-1
 439 583 l 1,0,-1
439 0 m 1,4,-1
 147 0 l 1,5,-1
 147 97 l 1,6,-1
 439 97 l 1,7,-1
 439 0 l 1,4,-1
439 291 m 1,8,-1
 147 291 l 1,9,-1
 147 389 l 1,10,-1
 439 389 l 1,11,-1
 439 291 l 1,8,-1
536 486 m 1,12,-1
 439 486 l 1,13,-1
 439 583 l 1,14,-1
 536 583 l 1,15,-1
 536 486 l 1,12,-1
147 389 m 1,16,-1
 50 389 l 1,17,-1
 50 583 l 1,18,-1
 147 583 l 1,19,-1
 147 389 l 1,16,-1
536 97 m 1,20,-1
 439 97 l 1,21,-1
 439 291 l 1,22,-1
 536 291 l 1,23,-1
 536 97 l 1,20,-1
147 97 m 1,24,-1
 50 97 l 1,25,-1
 50 194 l 1,26,-1
 147 194 l 1,27,-1
 147 97 l 1,24,-1
EndSplineSet
EndChar

StartChar: T
Encoding: 84 84 53
Width: 586
GlyphClass: 1
Flags: W
LayerCount: 2
Fore
SplineSet
341 0 m 1,0,-1
 244 0 l 1,1,-1
 244 583 l 1,2,-1
 50 583 l 1,3,-1
 50 680 l 1,4,-1
 536 680 l 1,5,-1
 536 583 l 1,6,-1
 341 583 l 1,7,-1
 341 0 l 1,0,-1
EndSplineSet
EndChar

StartChar: U
Encoding: 85 85 54
Width: 586
GlyphClass: 2
Flags: W
LayerCount: 2
Fore
SplineSet
439 0 m 1,0,-1
 147 0 l 1,1,-1
 147 97 l 1,2,-1
 439 97 l 1,3,-1
 439 0 l 1,0,-1
536 97 m 1,4,-1
 439 97 l 1,5,-1
 439 680 l 1,6,-1
 536 680 l 1,7,-1
 536 97 l 1,4,-1
147 97 m 1,8,-1
 50 97 l 1,9,-1
 50 680 l 1,10,-1
 147 680 l 1,11,-1
 147 97 l 1,8,-1
EndSplineSet
EndChar

StartChar: V
Encoding: 86 86 55
Width: 586
GlyphClass: 1
Flags: W
LayerCount: 2
Fore
SplineSet
341 0 m 1,0,-1
 244 0 l 1,1,-1
 244 97 l 1,2,-1
 341 97 l 1,3,-1
 341 0 l 1,0,-1
439 97 m 1,4,-1
 341 97 l 1,5,-1
 341 194 l 1,6,-1
 439 194 l 1,7,-1
 439 97 l 1,4,-1
244 97 m 1,8,-1
 147 97 l 1,9,-1
 147 194 l 1,10,-1
 244 194 l 1,11,-1
 244 97 l 1,8,-1
536 194 m 1,12,-1
 439 194 l 1,13,-1
 439 680 l 1,14,-1
 536 680 l 1,15,-1
 536 194 l 1,12,-1
147 194 m 1,16,-1
 50 194 l 1,17,-1
 50 680 l 1,18,-1
 147 680 l 1,19,-1
 147 194 l 1,16,-1
EndSplineSet
EndChar

StartChar: W
Encoding: 87 87 56
Width: 780
GlyphClass: 1
Flags: W
LayerCount: 2
Fore
SplineSet
439 194 m 1,0,-1
 341 194 l 1,1,-1
 341 291 l 1,2,-1
 439 291 l 1,3,-1
 439 194 l 1,0,-1
536 97 m 1,4,-1
 439 97 l 1,5,-1
 439 194 l 1,6,-1
 536 194 l 1,7,-1
 536 97 l 1,4,-1
633 0 m 1,8,-1
 536 0 l 1,9,-1
 536 97 l 1,10,-1
 633 97 l 1,11,-1
 633 0 l 1,8,-1
341 97 m 1,12,-1
 244 97 l 1,13,-1
 244 194 l 1,14,-1
 341 194 l 1,15,-1
 341 97 l 1,12,-1
244 0 m 1,16,-1
 147 0 l 1,17,-1
 147 97 l 1,18,-1
 244 97 l 1,19,-1
 244 0 l 1,16,-1
730 97 m 1,20,-1
 633 97 l 1,21,-1
 633 680 l 1,22,-1
 730 680 l 1,23,-1
 730 97 l 1,20,-1
147 97 m 1,24,-1
 50 97 l 1,25,-1
 50 680 l 1,26,-1
 147 680 l 1,27,-1
 147 97 l 1,24,-1
EndSplineSet
EndChar

StartChar: X
Encoding: 88 88 57
Width: 586
GlyphClass: 1
Flags: W
LayerCount: 2
Fore
SplineSet
341 291 m 1,0,-1
 244 291 l 1,1,-1
 244 389 l 1,2,-1
 341 389 l 1,3,-1
 341 291 l 1,0,-1
244 389 m 1,4,-1
 147 389 l 1,5,-1
 147 486 l 1,6,-1
 244 486 l 1,7,-1
 244 389 l 1,4,-1
439 389 m 1,8,-1
 341 389 l 1,9,-1
 341 486 l 1,10,-1
 439 486 l 1,11,-1
 439 389 l 1,8,-1
147 486 m 1,12,-1
 50 486 l 1,13,-1
 50 680 l 1,14,-1
 147 680 l 1,15,-1
 147 486 l 1,12,-1
536 486 m 1,16,-1
 439 486 l 1,17,-1
 439 680 l 1,18,-1
 536 680 l 1,19,-1
 536 486 l 1,16,-1
439 194 m 1,20,-1
 341 194 l 1,21,-1
 341 291 l 1,22,-1
 439 291 l 1,23,-1
 439 194 l 1,20,-1
244 194 m 1,24,-1
 147 194 l 1,25,-1
 147 291 l 1,26,-1
 244 291 l 1,27,-1
 244 194 l 1,24,-1
147 0 m 1,28,-1
 50 0 l 1,29,-1
 50 194 l 1,30,-1
 147 194 l 1,31,-1
 147 0 l 1,28,-1
536 0 m 1,32,-1
 439 0 l 1,33,-1
 439 194 l 1,34,-1
 536 194 l 1,35,-1
 536 0 l 1,32,-1
EndSplineSet
EndChar

StartChar: Y
Encoding: 89 89 58
Width: 586
GlyphClass: 1
Flags: W
LayerCount: 2
Fore
SplineSet
341 0 m 1,0,-1
 244 0 l 1,1,-1
 244 291 l 1,2,-1
 341 291 l 1,3,-1
 341 0 l 1,0,-1
244 291 m 1,4,-1
 147 291 l 1,5,-1
 147 389 l 1,6,-1
 244 389 l 1,7,-1
 244 291 l 1,4,-1
439 291 m 1,8,-1
 341 291 l 1,9,-1
 341 389 l 1,10,-1
 439 389 l 1,11,-1
 439 291 l 1,8,-1
147 389 m 1,12,-1
 50 389 l 1,13,-1
 50 680 l 1,14,-1
 147 680 l 1,15,-1
 147 389 l 1,12,-1
536 389 m 1,16,-1
 439 389 l 1,17,-1
 439 680 l 1,18,-1
 536 680 l 1,19,-1
 536 389 l 1,16,-1
EndSplineSet
EndChar

StartChar: Z
Encoding: 90 90 59
Width: 586
GlyphClass: 1
Flags: W
LayerCount: 2
Fore
SplineSet
341 291 m 1,0,-1
 244 291 l 1,1,-1
 244 389 l 1,2,-1
 341 389 l 1,3,-1
 341 291 l 1,0,-1
439 389 m 1,4,-1
 341 389 l 1,5,-1
 341 486 l 1,6,-1
 439 486 l 1,7,-1
 439 389 l 1,4,-1
536 486 m 1,8,-1
 439 486 l 1,9,-1
 439 583 l 1,10,-1
 50 583 l 1,11,-1
 50 680 l 1,12,-1
 536 680 l 1,13,-1
 536 486 l 1,8,-1
244 194 m 1,14,-1
 147 194 l 1,15,-1
 147 291 l 1,16,-1
 244 291 l 1,17,-1
 244 194 l 1,14,-1
536 0 m 1,18,-1
 50 0 l 1,19,-1
 50 194 l 1,20,-1
 147 194 l 1,21,-1
 147 97 l 1,22,-1
 536 97 l 1,23,-1
 536 0 l 1,18,-1
EndSplineSet
EndChar

StartChar: bracketleft
Encoding: 91 91 60
Width: 294
GlyphClass: 1
Flags: W
LayerCount: 2
Fore
SplineSet
244 -97 m 1,0,-1
 50 -97 l 1,1,-1
 50 777 l 1,2,-1
 244 777 l 1,3,-1
 244 680 l 1,4,-1
 147 680 l 1,5,-1
 147 0 l 1,6,-1
 244 0 l 1,7,-1
 244 -97 l 1,0,-1
EndSplineSet
EndChar

StartChar: backslash
Encoding: 92 92 61
Width: 537
GlyphClass: 1
Flags: W
LayerCount: 2
Fore
SplineSet
293 292 m 1,0,-1
 244 292 l 1,1,-1
 244 389 l 1,2,-1
 293 389 l 1,3,-1
 293 292 l 1,0,-1
196 437 m 1,4,-1
 147 437 l 1,5,-1
 147 535 l 1,6,-1
 196 535 l 1,7,-1
 196 437 l 1,4,-1
99 583 m 1,8,-1
 50 583 l 1,9,-1
 50 680 l 1,10,-1
 99 680 l 1,11,-1
 99 583 l 1,8,-1
244 389 m 1,12,-1
 196 389 l 1,13,-1
 196 437 l 1,14,-1
 244 437 l 1,15,-1
 244 389 l 1,12,-1
147 535 m 1,16,-1
 99 535 l 1,17,-1
 99 583 l 1,18,-1
 147 583 l 1,19,-1
 147 535 l 1,16,-1
390 146 m 1,20,-1
 341 146 l 1,21,-1
 341 243 l 1,22,-1
 390 243 l 1,23,-1
 390 146 l 1,20,-1
487 0 m 1,24,-1
 439 0 l 1,25,-1
 439 97 l 1,26,-1
 487 97 l 1,27,-1
 487 0 l 1,24,-1
341 243 m 1,28,-1
 293 243 l 1,29,-1
 293 292 l 1,30,-1
 341 292 l 1,31,-1
 341 243 l 1,28,-1
439 97 m 1,32,-1
 390 97 l 1,33,-1
 390 146 l 1,34,-1
 439 146 l 1,35,-1
 439 97 l 1,32,-1
EndSplineSet
EndChar

StartChar: bracketright
Encoding: 93 93 62
Width: 294
GlyphClass: 1
Flags: W
LayerCount: 2
Fore
SplineSet
244 -97 m 1,0,-1
 50 -97 l 1,1,-1
 50 0 l 1,2,-1
 147 0 l 1,3,-1
 147 680 l 1,4,-1
 50 680 l 1,5,-1
 50 777 l 1,6,-1
 244 777 l 1,7,-1
 244 -97 l 1,0,-1
EndSplineSet
EndChar

StartChar: asciicircum
Encoding: 94 94 63
Width: 586
GlyphClass: 1
Flags: W
LayerCount: 2
Fore
SplineSet
341 486 m 1,0,-1
 341 583 l 1,1,-1
 439 583 l 1,2,-1
 439 486 l 1,3,-1
 341 486 l 1,0,-1
244 583 m 1,4,-1
 244 680 l 1,5,-1
 341 680 l 1,6,-1
 341 583 l 1,7,-1
 244 583 l 1,4,-1
147 486 m 1,8,-1
 147 583 l 1,9,-1
 244 583 l 1,10,-1
 244 486 l 1,11,-1
 147 486 l 1,8,-1
50 388 m 1,12,-1
 50 486 l 1,13,-1
 147 486 l 1,14,-1
 147 388 l 1,15,-1
 50 388 l 1,12,-1
439 388 m 1,16,-1
 439 486 l 1,17,-1
 536 486 l 1,18,-1
 536 388 l 1,19,-1
 439 388 l 1,16,-1
EndSplineSet
EndChar

StartChar: underscore
Encoding: 95 95 64
Width: 586
GlyphClass: 1
Flags: W
LayerCount: 2
Fore
SplineSet
536 0 m 1,0,-1
 50 0 l 1,1,-1
 50 97 l 1,2,-1
 536 97 l 1,3,-1
 536 0 l 1,0,-1
EndSplineSet
EndChar

StartChar: grave
Encoding: 96 96 65
Width: 391
GlyphClass: 1
Flags: W
LayerCount: 2
Fore
SplineSet
244 729 m 1,0,-1
 196 729 l 1,1,-1
 196 777 l 1,2,-1
 244 777 l 1,3,-1
 244 729 l 1,0,-1
196 777 m 1,4,-1
 147 777 l 1,5,-1
 147 826 l 1,6,-1
 196 826 l 1,7,-1
 196 777 l 1,4,-1
147 826 m 1,8,-1
 99 826 l 1,9,-1
 99 874 l 1,10,-1
 147 874 l 1,11,-1
 147 826 l 1,8,-1
EndSplineSet
EndChar

StartChar: a
Encoding: 97 97 66
Width: 586
GlyphClass: 1
Flags: W
LayerCount: 2
Fore
SplineSet
147 97 m 1,0,-1
 50 97 l 1,1,-1
 50 195 l 1,2,-1
 147 195 l 1,3,-1
 147 97 l 1,0,-1
439 389 m 1,4,-1
 50 389 l 1,5,-1
 50 486 l 1,6,-1
 439 486 l 1,7,-1
 439 389 l 1,4,-1
536 0 m 1,8,-1
 147 0 l 1,9,-1
 147 97 l 1,10,-1
 439 97 l 1,11,-1
 439 195 l 1,12,-1
 147 195 l 1,13,-1
 147 292 l 1,14,-1
 439 292 l 1,15,-1
 439 389 l 1,16,-1
 536 389 l 1,17,-1
 536 0 l 1,8,-1
EndSplineSet
EndChar

StartChar: b
Encoding: 98 98 67
Width: 586
GlyphClass: 1
Flags: W
LayerCount: 2
Fore
SplineSet
439 0 m 1,0,-1
 50 0 l 1,1,-1
 50 680 l 1,2,-1
 147 680 l 1,3,-1
 147 486 l 1,4,-1
 439 486 l 1,5,-1
 439 389 l 1,6,-1
 147 389 l 1,7,-1
 147 97 l 1,8,-1
 439 97 l 1,9,-1
 439 0 l 1,0,-1
536 97 m 1,10,-1
 439 97 l 1,11,-1
 439 389 l 1,12,-1
 536 389 l 1,13,-1
 536 97 l 1,10,-1
EndSplineSet
EndChar

StartChar: c
Encoding: 99 99 68
Width: 586
GlyphClass: 1
Flags: W
LayerCount: 2
Fore
SplineSet
439 389 m 1,0,-1
 147 389 l 1,1,-1
 147 486 l 1,2,-1
 439 486 l 1,3,-1
 439 389 l 1,0,-1
536 292 m 1,4,-1
 439 292 l 1,5,-1
 439 389 l 1,6,-1
 536 389 l 1,7,-1
 536 292 l 1,4,-1
536 97 m 1,8,-1
 439 97 l 1,9,-1
 439 195 l 1,10,-1
 536 195 l 1,11,-1
 536 97 l 1,8,-1
439 0 m 1,12,-1
 147 0 l 1,13,-1
 147 97 l 1,14,-1
 439 97 l 1,15,-1
 439 0 l 1,12,-1
147 97 m 1,16,-1
 50 97 l 1,17,-1
 50 389 l 1,18,-1
 147 389 l 1,19,-1
 147 97 l 1,16,-1
EndSplineSet
EndChar

StartChar: d
Encoding: 100 100 69
Width: 586
GlyphClass: 1
Flags: W
LayerCount: 2
Fore
SplineSet
147 97 m 1,0,-1
 50 97 l 1,1,-1
 50 389 l 1,2,-1
 147 389 l 1,3,-1
 147 97 l 1,0,-1
536 0 m 1,4,-1
 147 0 l 1,5,-1
 147 97 l 1,6,-1
 439 97 l 1,7,-1
 439 389 l 1,8,-1
 147 389 l 1,9,-1
 147 486 l 1,10,-1
 439 486 l 1,11,-1
 439 680 l 1,12,-1
 536 680 l 1,13,-1
 536 0 l 1,4,-1
EndSplineSet
EndChar

StartChar: e
Encoding: 101 101 70
Width: 586
GlyphClass: 1
Flags: W
LayerCount: 2
Fore
SplineSet
147 97 m 1,0,-1
 50 97 l 1,1,-1
 50 389 l 1,2,-1
 147 389 l 1,3,-1
 147 292 l 1,4,-1
 439 292 l 1,5,-1
 439 389 l 1,6,-1
 536 389 l 1,7,-1
 536 195 l 1,8,-1
 147 195 l 1,9,-1
 147 97 l 1,0,-1
439 389 m 1,10,-1
 147 389 l 1,11,-1
 147 486 l 1,12,-1
 439 486 l 1,13,-1
 439 389 l 1,10,-1
439 0 m 1,14,-1
 147 0 l 1,15,-1
 147 97 l 1,16,-1
 439 97 l 1,17,-1
 439 0 l 1,14,-1
EndSplineSet
EndChar

StartChar: f
Encoding: 102 102 71
Width: 486
GlyphClass: 1
Flags: W
LayerCount: 2
Fore
SplineSet
244 0 m 1,0,-1
 147 0 l 1,1,-1
 147 389 l 1,2,-1
 50 389 l 1,3,-1
 50 486 l 1,4,-1
 147 486 l 1,5,-1
 147 583 l 1,6,-1
 244 583 l 1,7,-1
 244 486 l 1,8,-1
 439 486 l 1,9,-1
 439 389 l 1,10,-1
 244 389 l 1,11,-1
 244 0 l 1,0,-1
536 583 m 1,12,-1
 244 583 l 1,13,-1
 244 680 l 1,14,-1
 536 680 l 1,15,-1
 536 583 l 1,12,-1
EndSplineSet
EndChar

StartChar: g
Encoding: 103 103 72
Width: 586
GlyphClass: 1
Flags: W
LayerCount: 2
Fore
SplineSet
439 -194 m 1,0,-1
 50 -194 l 1,1,-1
 50 -97 l 1,2,-1
 439 -97 l 1,3,-1
 439 -194 l 1,0,-1
536 -97 m 1,4,-1
 439 -97 l 1,5,-1
 439 0 l 1,6,-1
 147 0 l 1,7,-1
 147 97 l 1,8,-1
 439 97 l 1,9,-1
 439 389 l 1,10,-1
 147 389 l 1,11,-1
 147 486 l 1,12,-1
 536 486 l 1,13,-1
 536 -97 l 1,4,-1
147 97 m 1,14,-1
 50 97 l 1,15,-1
 50 389 l 1,16,-1
 147 389 l 1,17,-1
 147 97 l 1,14,-1
EndSplineSet
EndChar

StartChar: h
Encoding: 104 104 73
Width: 586
GlyphClass: 1
Flags: W
LayerCount: 2
Fore
SplineSet
147 0 m 1,0,-1
 50 0 l 1,1,-1
 50 680 l 1,2,-1
 147 680 l 1,3,-1
 147 486 l 1,4,-1
 439 486 l 1,5,-1
 439 389 l 1,6,-1
 147 389 l 1,7,-1
 147 0 l 1,0,-1
536 0 m 1,8,-1
 439 0 l 1,9,-1
 439 389 l 1,10,-1
 536 389 l 1,11,-1
 536 0 l 1,8,-1
EndSplineSet
EndChar

StartChar: i
Encoding: 105 105 74
Width: 197
GlyphClass: 1
Flags: W
LayerCount: 2
Fore
SplineSet
147 0 m 1,0,-1
 50 0 l 1,1,-1
 50 486 l 1,2,-1
 147 486 l 1,3,-1
 147 0 l 1,0,-1
147 583 m 1,4,-1
 50 583 l 1,5,-1
 50 680 l 1,6,-1
 147 680 l 1,7,-1
 147 583 l 1,4,-1
EndSplineSet
EndChar

StartChar: j
Encoding: 106 106 75
Width: 191
GlyphClass: 1
Flags: W
LayerCount: 2
Fore
SplineSet
141 -97 m 1,0,-1
 44 -97 l 1,1,-1
 44 486 l 1,2,-1
 141 486 l 1,3,-1
 141 -97 l 1,0,-1
44 -194 m 1,4,-1
 -150 -194 l 1,5,-1
 -150 -97 l 1,6,-1
 44 -97 l 1,7,-1
 44 -194 l 1,4,-1
141 583 m 1,8,-1
 44 583 l 1,9,-1
 44 680 l 1,10,-1
 141 680 l 1,11,-1
 141 583 l 1,8,-1
EndSplineSet
EndChar

StartChar: k
Encoding: 107 107 76
Width: 489
GlyphClass: 1
Flags: W
LayerCount: 2
Fore
SplineSet
341 292 m 1,0,-1
 244 292 l 1,1,-1
 244 389 l 1,2,-1
 341 389 l 1,3,-1
 341 292 l 1,0,-1
439 389 m 1,4,-1
 341 389 l 1,5,-1
 341 486 l 1,6,-1
 439 486 l 1,7,-1
 439 389 l 1,4,-1
341 97 m 1,8,-1
 244 97 l 1,9,-1
 244 195 l 1,10,-1
 341 195 l 1,11,-1
 341 97 l 1,8,-1
439 0 m 1,12,-1
 341 0 l 1,13,-1
 341 97 l 1,14,-1
 439 97 l 1,15,-1
 439 0 l 1,12,-1
147 0 m 1,16,-1
 50 0 l 1,17,-1
 50 680 l 1,18,-1
 147 680 l 1,19,-1
 147 292 l 1,20,-1
 244 292 l 1,21,-1
 244 195 l 1,22,-1
 147 195 l 1,23,-1
 147 0 l 1,16,-1
EndSplineSet
EndChar

StartChar: l
Encoding: 108 108 77
Width: 197
GlyphClass: 1
Flags: W
LayerCount: 2
Fore
SplineSet
147 0 m 1,0,-1
 50 0 l 1,1,-1
 50 680 l 1,2,-1
 147 680 l 1,3,-1
 147 0 l 1,0,-1
EndSplineSet
EndChar

StartChar: m
Encoding: 109 109 78
Width: 780
GlyphClass: 1
Flags: W
LayerCount: 2
Fore
SplineSet
439 0 m 1,0,-1
 341 0 l 1,1,-1
 341 389 l 1,2,-1
 147 389 l 1,3,-1
 147 0 l 1,4,-1
 50 0 l 1,5,-1
 50 486 l 1,6,-1
 633 486 l 1,7,-1
 633 389 l 1,8,-1
 439 389 l 1,9,-1
 439 0 l 1,0,-1
730 0 m 1,10,-1
 633 0 l 1,11,-1
 633 389 l 1,12,-1
 730 389 l 1,13,-1
 730 0 l 1,10,-1
EndSplineSet
EndChar

StartChar: n
Encoding: 110 110 79
Width: 586
GlyphClass: 1
Flags: W
LayerCount: 2
Fore
SplineSet
147 0 m 1,0,-1
 50 0 l 1,1,-1
 50 486 l 1,2,-1
 439 486 l 1,3,-1
 439 389 l 1,4,-1
 147 389 l 1,5,-1
 147 0 l 1,0,-1
536 0 m 1,6,-1
 439 0 l 1,7,-1
 439 389 l 1,8,-1
 536 389 l 1,9,-1
 536 0 l 1,6,-1
EndSplineSet
EndChar

StartChar: o
Encoding: 111 111 80
Width: 586
GlyphClass: 1
Flags: W
LayerCount: 2
Fore
SplineSet
439 389 m 1,0,-1
 147 389 l 1,1,-1
 147 486 l 1,2,-1
 439 486 l 1,3,-1
 439 389 l 1,0,-1
536 97 m 1,4,-1
 439 97 l 1,5,-1
 439 389 l 1,6,-1
 536 389 l 1,7,-1
 536 97 l 1,4,-1
439 0 m 1,8,-1
 147 0 l 1,9,-1
 147 97 l 1,10,-1
 439 97 l 1,11,-1
 439 0 l 1,8,-1
147 97 m 1,12,-1
 50 97 l 1,13,-1
 50 389 l 1,14,-1
 147 389 l 1,15,-1
 147 97 l 1,12,-1
EndSplineSet
EndChar

StartChar: p
Encoding: 112 112 81
Width: 586
GlyphClass: 1
Flags: W
LayerCount: 2
Fore
SplineSet
536 97 m 1,0,-1
 439 97 l 1,1,-1
 439 389 l 1,2,-1
 536 389 l 1,3,-1
 536 97 l 1,0,-1
147 -194 m 1,4,-1
 50 -194 l 1,5,-1
 50 486 l 1,6,-1
 439 486 l 1,7,-1
 439 389 l 1,8,-1
 147 389 l 1,9,-1
 147 97 l 1,10,-1
 439 97 l 1,11,-1
 439 0 l 1,12,-1
 147 0 l 1,13,-1
 147 -194 l 1,4,-1
EndSplineSet
EndChar

StartChar: q
Encoding: 113 113 82
Width: 586
GlyphClass: 1
Flags: W
LayerCount: 2
Fore
SplineSet
536 -194 m 1,0,-1
 439 -194 l 1,1,-1
 439 0 l 1,2,-1
 147 0 l 1,3,-1
 147 97 l 1,4,-1
 439 97 l 1,5,-1
 439 389 l 1,6,-1
 147 389 l 1,7,-1
 147 486 l 1,8,-1
 536 486 l 1,9,-1
 536 -194 l 1,0,-1
147 97 m 1,10,-1
 50 97 l 1,11,-1
 50 389 l 1,12,-1
 147 389 l 1,13,-1
 147 97 l 1,10,-1
EndSplineSet
EndChar

StartChar: r
Encoding: 114 114 83
Width: 489
GlyphClass: 1
Flags: W
LayerCount: 2
Fore
SplineSet
147 0 m 1,0,-1
 50 0 l 1,1,-1
 50 389 l 1,2,-1
 147 389 l 1,3,-1
 147 0 l 1,0,-1
439 389 m 1,4,-1
 147 389 l 1,5,-1
 147 486 l 1,6,-1
 439 486 l 1,7,-1
 439 389 l 1,4,-1
EndSplineSet
EndChar

StartChar: s
Encoding: 115 115 84
Width: 586
GlyphClass: 1
Flags: W
LayerCount: 2
Fore
SplineSet
536 389 m 1,0,-1
 147 389 l 1,1,-1
 147 486 l 1,2,-1
 536 486 l 1,3,-1
 536 389 l 1,0,-1
147 292 m 1,4,-1
 50 292 l 1,5,-1
 50 389 l 1,6,-1
 147 389 l 1,7,-1
 147 292 l 1,4,-1
439 0 m 1,8,-1
 50 0 l 1,9,-1
 50 97 l 1,10,-1
 439 97 l 1,11,-1
 439 0 l 1,8,-1
536 97 m 1,12,-1
 439 97 l 1,13,-1
 439 195 l 1,14,-1
 536 195 l 1,15,-1
 536 97 l 1,12,-1
439 195 m 1,16,-1
 147 195 l 1,17,-1
 147 292 l 1,18,-1
 439 292 l 1,19,-1
 439 195 l 1,16,-1
EndSplineSet
EndChar

StartChar: t
Encoding: 116 116 85
Width: 489
GlyphClass: 1
Flags: W
LayerCount: 2
Fore
SplineSet
439 0 m 1,0,-1
 244 0 l 1,1,-1
 244 97 l 1,2,-1
 439 97 l 1,3,-1
 439 0 l 1,0,-1
244 97 m 1,4,-1
 147 97 l 1,5,-1
 147 389 l 1,6,-1
 50 389 l 1,7,-1
 50 486 l 1,8,-1
 147 486 l 1,9,-1
 147 680 l 1,10,-1
 244 680 l 1,11,-1
 244 486 l 1,12,-1
 439 486 l 1,13,-1
 439 389 l 1,14,-1
 244 389 l 1,15,-1
 244 97 l 1,4,-1
EndSplineSet
EndChar

StartChar: u
Encoding: 117 117 86
Width: 586
GlyphClass: 1
Flags: W
LayerCount: 2
Fore
SplineSet
439 0 m 1,0,-1
 147 0 l 1,1,-1
 147 97 l 1,2,-1
 439 97 l 1,3,-1
 439 0 l 1,0,-1
147 97 m 1,4,-1
 50 97 l 1,5,-1
 50 486 l 1,6,-1
 147 486 l 1,7,-1
 147 97 l 1,4,-1
536 97 m 1,8,-1
 439 97 l 1,9,-1
 439 486 l 1,10,-1
 536 486 l 1,11,-1
 536 97 l 1,8,-1
EndSplineSet
EndChar

StartChar: v
Encoding: 118 118 87
Width: 586
GlyphClass: 1
Flags: W
LayerCount: 2
Fore
SplineSet
341 0 m 1,0,-1
 244 0 l 1,1,-1
 244 97 l 1,2,-1
 341 97 l 1,3,-1
 341 0 l 1,0,-1
244 97 m 1,4,-1
 147 97 l 1,5,-1
 147 195 l 1,6,-1
 244 195 l 1,7,-1
 244 97 l 1,4,-1
439 97 m 1,8,-1
 341 97 l 1,9,-1
 341 195 l 1,10,-1
 439 195 l 1,11,-1
 439 97 l 1,8,-1
147 195 m 1,12,-1
 50 195 l 1,13,-1
 50 486 l 1,14,-1
 147 486 l 1,15,-1
 147 195 l 1,12,-1
536 195 m 1,16,-1
 439 195 l 1,17,-1
 439 486 l 1,18,-1
 536 486 l 1,19,-1
 536 195 l 1,16,-1
EndSplineSet
EndChar

StartChar: w
Encoding: 119 119 88
Width: 780
GlyphClass: 1
Flags: W
LayerCount: 2
Fore
SplineSet
341 0 m 1,0,-1
 147 0 l 1,1,-1
 147 97 l 1,2,-1
 341 97 l 1,3,-1
 341 0 l 1,0,-1
147 97 m 1,4,-1
 50 97 l 1,5,-1
 50 486 l 1,6,-1
 147 486 l 1,7,-1
 147 97 l 1,4,-1
730 97 m 1,8,-1
 633 97 l 1,9,-1
 633 486 l 1,10,-1
 730 486 l 1,11,-1
 730 97 l 1,8,-1
439 97 m 1,12,-1
 341 97 l 1,13,-1
 341 389 l 1,14,-1
 439 389 l 1,15,-1
 439 97 l 1,12,-1
439 0 m 1,16,-1
 439 97 l 1,17,-1
 633 97 l 1,18,-1
 633 0 l 1,19,-1
 439 0 l 1,16,-1
EndSplineSet
EndChar

StartChar: x
Encoding: 120 120 89
Width: 586
GlyphClass: 1
Flags: W
LayerCount: 2
Fore
SplineSet
341 195 m 1,0,-1
 244 195 l 1,1,-1
 244 292 l 1,2,-1
 341 292 l 1,3,-1
 341 195 l 1,0,-1
244 292 m 1,4,-1
 147 292 l 1,5,-1
 147 389 l 1,6,-1
 244 389 l 1,7,-1
 244 292 l 1,4,-1
439 292 m 1,8,-1
 341 292 l 1,9,-1
 341 389 l 1,10,-1
 439 389 l 1,11,-1
 439 292 l 1,8,-1
147 389 m 1,12,-1
 50 389 l 1,13,-1
 50 486 l 1,14,-1
 147 486 l 1,15,-1
 147 389 l 1,12,-1
536 389 m 1,16,-1
 439 389 l 1,17,-1
 439 486 l 1,18,-1
 536 486 l 1,19,-1
 536 389 l 1,16,-1
439 97 m 1,20,-1
 341 97 l 1,21,-1
 341 195 l 1,22,-1
 439 195 l 1,23,-1
 439 97 l 1,20,-1
244 97 m 1,24,-1
 147 97 l 1,25,-1
 147 195 l 1,26,-1
 244 195 l 1,27,-1
 244 97 l 1,24,-1
536 0 m 1,28,-1
 439 0 l 1,29,-1
 439 97 l 1,30,-1
 536 97 l 1,31,-1
 536 0 l 1,28,-1
147 0 m 1,32,-1
 50 0 l 1,33,-1
 50 97 l 1,34,-1
 147 97 l 1,35,-1
 147 0 l 1,32,-1
EndSplineSet
EndChar

StartChar: y
Encoding: 121 121 90
Width: 586
GlyphClass: 1
Flags: W
LayerCount: 2
Fore
SplineSet
147 97 m 1,0,-1
 50 97 l 1,1,-1
 50 486 l 1,2,-1
 147 486 l 1,3,-1
 147 97 l 1,0,-1
536 -97 m 1,4,-1
 439 -97 l 1,5,-1
 439 0 l 1,6,-1
 147 0 l 1,7,-1
 147 97 l 1,8,-1
 439 97 l 1,9,-1
 439 486 l 1,10,-1
 536 486 l 1,11,-1
 536 -97 l 1,4,-1
439 -194 m 1,12,-1
 50 -194 l 1,13,-1
 50 -97 l 1,14,-1
 439 -97 l 1,15,-1
 439 -194 l 1,12,-1
EndSplineSet
EndChar

StartChar: z
Encoding: 122 122 91
Width: 586
GlyphClass: 1
Flags: W
LayerCount: 2
Fore
SplineSet
341 194 m 1,0,-1
 244 194 l 1,1,-1
 244 291 l 1,2,-1
 341 291 l 1,3,-1
 341 194 l 1,0,-1
341 389 m 1,4,-1
 50 389 l 1,5,-1
 50 486 l 1,6,-1
 341 486 l 1,7,-1
 341 389 l 1,4,-1
439 291 m 1,8,-1
 341 291 l 1,9,-1
 341 389 l 1,10,-1
 439 389 l 1,11,-1
 439 291 l 1,8,-1
536 389 m 1,12,-1
 439 389 l 1,13,-1
 439 486 l 1,14,-1
 536 486 l 1,15,-1
 536 389 l 1,12,-1
536 0 m 1,16,-1
 244 0 l 1,17,-1
 244 97 l 1,18,-1
 536 97 l 1,19,-1
 536 0 l 1,16,-1
244 97 m 1,20,-1
 147 97 l 1,21,-1
 147 194 l 1,22,-1
 244 194 l 1,23,-1
 244 97 l 1,20,-1
147 0 m 1,24,-1
 50 0 l 1,25,-1
 50 97 l 1,26,-1
 147 97 l 1,27,-1
 147 0 l 1,24,-1
EndSplineSet
EndChar

StartChar: braceleft
Encoding: 123 123 92
Width: 391
GlyphClass: 1
Flags: W
LayerCount: 2
Fore
SplineSet
341 680 m 1,0,-1
 244 680 l 1,1,-1
 244 777 l 1,2,-1
 341 777 l 1,3,-1
 341 680 l 1,0,-1
341 -97 m 1,4,-1
 244 -97 l 1,5,-1
 244 0 l 1,6,-1
 341 0 l 1,7,-1
 341 -97 l 1,4,-1
244 389 m 1,8,-1
 147 389 l 1,9,-1
 147 680 l 1,10,-1
 244 680 l 1,11,-1
 244 389 l 1,8,-1
147 292 m 1,12,-1
 50 292 l 1,13,-1
 50 389 l 1,14,-1
 147 389 l 1,15,-1
 147 292 l 1,12,-1
244 0 m 1,16,-1
 147 0 l 1,17,-1
 147 292 l 1,18,-1
 244 292 l 1,19,-1
 244 0 l 1,16,-1
EndSplineSet
EndChar

StartChar: bar
Encoding: 124 124 93
Width: 197
GlyphClass: 1
Flags: W
LayerCount: 2
Fore
SplineSet
147 -97 m 1,0,-1
 50 -97 l 1,1,-1
 50 777 l 1,2,-1
 147 777 l 1,3,-1
 147 -97 l 1,0,-1
EndSplineSet
EndChar

StartChar: braceright
Encoding: 125 125 94
Width: 391
GlyphClass: 1
Flags: W
LayerCount: 2
Fore
SplineSet
147 -97 m 1,0,-1
 50 -97 l 1,1,-1
 50 0 l 1,2,-1
 147 0 l 1,3,-1
 147 -97 l 1,0,-1
147 680 m 1,4,-1
 50 680 l 1,5,-1
 50 777 l 1,6,-1
 147 777 l 1,7,-1
 147 680 l 1,4,-1
244 0 m 1,8,-1
 147 0 l 1,9,-1
 147 292 l 1,10,-1
 244 292 l 1,11,-1
 244 0 l 1,8,-1
341 292 m 1,12,-1
 244 292 l 1,13,-1
 244 389 l 1,14,-1
 341 389 l 1,15,-1
 341 292 l 1,12,-1
244 389 m 1,16,-1
 147 389 l 1,17,-1
 147 680 l 1,18,-1
 244 680 l 1,19,-1
 244 389 l 1,16,-1
EndSplineSet
EndChar

StartChar: asciitilde
Encoding: 126 126 95
Width: 586
GlyphClass: 1
Flags: W
LayerCount: 2
Fore
SplineSet
439 97 m 1,0,-1
 341 97 l 1,1,-1
 341 194 l 1,2,-1
 439 194 l 1,3,-1
 439 97 l 1,0,-1
536 194 m 1,4,-1
 439 194 l 1,5,-1
 439 291 l 1,6,-1
 536 291 l 1,7,-1
 536 194 l 1,4,-1
147 194 m 1,8,-1
 50 194 l 1,9,-1
 50 291 l 1,10,-1
 147 291 l 1,11,-1
 147 194 l 1,8,-1
244 291 m 1,12,-1
 147 291 l 1,13,-1
 147 389 l 1,14,-1
 244 389 l 1,15,-1
 244 291 l 1,12,-1
341 194 m 1,16,-1
 244 194 l 1,17,-1
 244 291 l 1,18,-1
 341 291 l 1,19,-1
 341 194 l 1,16,-1
EndSplineSet
EndChar

StartChar: gravecomb
Encoding: 768 768 96
Width: 391
GlyphClass: 1
Flags: W
LayerCount: 2
Fore
SplineSet
244 729 m 1,0,-1
 196 729 l 1,1,-1
 196 777 l 1,2,-1
 244 777 l 1,3,-1
 244 729 l 1,0,-1
196 777 m 1,4,-1
 147 777 l 1,5,-1
 147 826 l 1,6,-1
 196 826 l 1,7,-1
 196 777 l 1,4,-1
147 826 m 1,8,-1
 99 826 l 1,9,-1
 99 874 l 1,10,-1
 147 874 l 1,11,-1
 147 826 l 1,8,-1
EndSplineSet
EndChar

StartChar: acutecomb
Encoding: 769 769 97
Width: 391
GlyphClass: 1
Flags: W
LayerCount: 2
Fore
SplineSet
196 729 m 1,0,-1
 147 729 l 1,1,-1
 147 777 l 1,2,-1
 196 777 l 1,3,-1
 196 729 l 1,0,-1
244 777 m 1,4,-1
 196 777 l 1,5,-1
 196 826 l 1,6,-1
 244 826 l 1,7,-1
 244 777 l 1,4,-1
293 826 m 1,8,-1
 244 826 l 1,9,-1
 244 874 l 1,10,-1
 293 874 l 1,11,-1
 293 826 l 1,8,-1
EndSplineSet
EndChar

StartChar: u0302
Encoding: 770 770 98
Width: 391
GlyphClass: 1
Flags: W
LayerCount: 2
Fore
SplineSet
123 729 m 1,0,-1
 74 729 l 1,1,-1
 74 777 l 1,2,-1
 123 777 l 1,3,-1
 123 729 l 1,0,-1
171 777 m 1,4,-1
 123 777 l 1,5,-1
 123 826 l 1,6,-1
 171 826 l 1,7,-1
 171 777 l 1,4,-1
220 826 m 1,8,-1
 171 826 l 1,9,-1
 171 874 l 1,10,-1
 220 874 l 1,11,-1
 220 826 l 1,8,-1
317 729 m 1,12,-1
 269 729 l 1,13,-1
 269 777 l 1,14,-1
 317 777 l 1,15,-1
 317 729 l 1,12,-1
269 777 m 1,16,-1
 220 777 l 1,17,-1
 220 826 l 1,18,-1
 269 826 l 1,19,-1
 269 777 l 1,16,-1
EndSplineSet
EndChar

StartChar: tildecomb
Encoding: 771 771 99
Width: 487
GlyphClass: 1
Flags: W
LayerCount: 2
Fore
SplineSet
220 826 m 1,0,-1
 171 826 l 1,1,-1
 171 874 l 1,2,-1
 220 874 l 1,3,-1
 220 826 l 1,0,-1
365 777 m 1,4,-1
 317 777 l 1,5,-1
 317 826 l 1,6,-1
 365 826 l 1,7,-1
 365 777 l 1,4,-1
171 777 m 1,8,-1
 122 777 l 1,9,-1
 122 826 l 1,10,-1
 171 826 l 1,11,-1
 171 777 l 1,8,-1
268 777 m 1,12,-1
 220 777 l 1,13,-1
 220 826 l 1,14,-1
 268 826 l 1,15,-1
 268 777 l 1,12,-1
317 729 m 1,16,-1
 268 729 l 1,17,-1
 268 777 l 1,18,-1
 317 777 l 1,19,-1
 317 729 l 1,16,-1
EndSplineSet
EndChar

StartChar: u0304
Encoding: 772 772 100
Width: 391
GlyphClass: 1
Flags: W
LayerCount: 2
Fore
SplineSet
123 777 m 1,0,-1
 123 826 l 1,1,-1
 269 826 l 1,2,-1
 269 777 l 1,3,-1
 123 777 l 1,0,-1
EndSplineSet
EndChar

StartChar: u0307
Encoding: 775 775 101
Width: 391
GlyphClass: 1
Flags: W
LayerCount: 2
Fore
SplineSet
220 777 m 1,0,-1
 171 777 l 1,1,-1
 171 826 l 1,2,-1
 220 826 l 1,3,-1
 220 777 l 1,0,-1
EndSplineSet
EndChar

StartChar: u0308
Encoding: 776 776 102
Width: 391
GlyphClass: 1
Flags: W
LayerCount: 2
Fore
SplineSet
269 777 m 1,0,-1
 220 777 l 1,1,-1
 220 826 l 1,2,-1
 269 826 l 1,3,-1
 269 777 l 1,0,-1
172 777 m 1,4,-1
 123 777 l 1,5,-1
 123 826 l 1,6,-1
 172 826 l 1,7,-1
 172 777 l 1,4,-1
EndSplineSet
EndChar

StartChar: u030A
Encoding: 778 778 103
Width: 390
GlyphClass: 1
Flags: W
LayerCount: 2
Fore
SplineSet
171 753 m 1,0,-1
 122 753 l 1,1,-1
 122 850 l 1,2,-1
 171 850 l 1,3,-1
 171 753 l 1,0,-1
219 704 m 1,4,-1
 171 704 l 1,5,-1
 171 753 l 1,6,-1
 219 753 l 1,7,-1
 219 704 l 1,4,-1
268 753 m 1,8,-1
 219 753 l 1,9,-1
 219 850 l 1,10,-1
 268 850 l 1,11,-1
 268 753 l 1,8,-1
219 850 m 1,12,-1
 171 850 l 1,13,-1
 171 899 l 1,14,-1
 219 899 l 1,15,-1
 219 850 l 1,12,-1
EndSplineSet
EndChar

StartChar: u030C
Encoding: 780 780 104
Width: 391
GlyphClass: 1
Flags: W
LayerCount: 2
Fore
SplineSet
268 874 m 1,0,-1
 317 874 l 1,1,-1
 317 826 l 1,2,-1
 268 826 l 1,3,-1
 268 874 l 1,0,-1
220 826 m 1,4,-1
 268 826 l 1,5,-1
 268 777 l 1,6,-1
 220 777 l 1,7,-1
 220 826 l 1,4,-1
171 777 m 1,8,-1
 220 777 l 1,9,-1
 220 729 l 1,10,-1
 171 729 l 1,11,-1
 171 777 l 1,8,-1
74 874 m 1,12,-1
 123 874 l 1,13,-1
 123 826 l 1,14,-1
 74 826 l 1,15,-1
 74 874 l 1,12,-1
123 826 m 1,16,-1
 171 826 l 1,17,-1
 171 777 l 1,18,-1
 123 777 l 1,19,-1
 123 826 l 1,16,-1
EndSplineSet
EndChar

StartChar: u0327
Encoding: 807 807 105
Width: 246
GlyphClass: 1
Flags: W
LayerCount: 2
Fore
SplineSet
147 -194 m 1,0,-1
 99 -194 l 1,1,-1
 99 -146 l 1,2,-1
 147 -146 l 1,3,-1
 147 -194 l 1,0,-1
99 -146 m 1,4,-1
 50 -146 l 1,5,-1
 50 -97 l 1,6,-1
 99 -97 l 1,7,-1
 99 -146 l 1,4,-1
196 -146 m 1,8,-1
 147 -146 l 1,9,-1
 147 -48 l 1,10,-1
 196 -48 l 1,11,-1
 196 -146 l 1,8,-1
147 -48 m 1,12,-1
 99 -48 l 1,13,-1
 99 0 l 1,14,-1
 147 0 l 1,15,-1
 147 -48 l 1,12,-1
EndSplineSet
EndChar

StartChar: Euro
Encoding: 8364 8364 106
Width: 683
GlyphClass: 1
Flags: W
LayerCount: 2
Fore
SplineSet
536 583 m 1,0,-1
 244 583 l 1,1,-1
 244 680 l 1,2,-1
 536 680 l 1,3,-1
 536 583 l 1,0,-1
536 0 m 1,4,-1
 244 0 l 1,5,-1
 244 97 l 1,6,-1
 536 97 l 1,7,-1
 536 0 l 1,4,-1
633 486 m 1,8,-1
 536 486 l 1,9,-1
 536 583 l 1,10,-1
 633 583 l 1,11,-1
 633 486 l 1,8,-1
244 97 m 1,12,-1
 147 97 l 1,13,-1
 147 194 l 1,14,-1
 50 194 l 1,15,-1
 50 291 l 1,16,-1
 147 291 l 1,17,-1
 147 389 l 1,18,-1
 50 389 l 1,19,-1
 50 486 l 1,20,-1
 147 486 l 1,21,-1
 147 583 l 1,22,-1
 244 583 l 1,23,-1
 244 486 l 1,24,-1
 439 486 l 1,25,-1
 439 389 l 1,26,-1
 244 389 l 1,27,-1
 244 291 l 1,28,-1
 439 291 l 1,29,-1
 439 194 l 1,30,-1
 244 194 l 1,31,-1
 244 97 l 1,12,-1
633 97 m 1,32,-1
 536 97 l 1,33,-1
 536 194 l 1,34,-1
 633 194 l 1,35,-1
 633 97 l 1,32,-1
EndSplineSet
EndChar

StartChar: trademark
Encoding: 8482 8482 107
Width: 778
GlyphClass: 1
Flags: W
LayerCount: 2
Fore
SplineSet
244 486 m 1,0,-1
 147 486 l 1,1,-1
 147 680 l 1,2,-1
 50 680 l 1,3,-1
 50 777 l 1,4,-1
 341 777 l 1,5,-1
 341 680 l 1,6,-1
 244 680 l 1,7,-1
 244 486 l 1,0,-1
485 486 m 1,8,-1
 388 486 l 1,9,-1
 388 777 l 1,10,-1
 485 777 l 1,11,-1
 485 729 l 1,12,-1
 534 729 l 1,13,-1
 534 680 l 1,14,-1
 485 680 l 1,15,-1
 485 486 l 1,8,-1
583 632 m 1,16,-1
 534 632 l 1,17,-1
 534 680 l 1,18,-1
 583 680 l 1,19,-1
 583 632 l 1,16,-1
728 486 m 1,20,-1
 631 486 l 1,21,-1
 631 680 l 1,22,-1
 583 680 l 1,23,-1
 583 729 l 1,24,-1
 631 729 l 1,25,-1
 631 777 l 1,26,-1
 728 777 l 1,27,-1
 728 486 l 1,20,-1
EndSplineSet
EndChar

StartChar: hyphen
Encoding: 45 45 109
AltUni2: 0000ad.ffffffff.0 0000ad.ffffffff.0
Width: 489
GlyphClass: 1
Flags: W
LayerCount: 2
Fore
SplineSet
439 292 m 1,0,-1
 50 292 l 1,1,-1
 50 389 l 1,2,-1
 439 389 l 1,3,-1
 439 292 l 1,0,-1
EndSplineSet
EndChar

StartChar: exclamdown
Encoding: 161 161 110
Width: 197
GlyphClass: 1
Flags: W
LayerCount: 2
Fore
SplineSet
50 680 m 1,0,-1
 147 680 l 1,1,-1
 147 583 l 1,2,-1
 50 583 l 1,3,-1
 50 680 l 1,0,-1
50 486 m 1,4,-1
 147 486 l 1,5,-1
 147 0 l 1,6,-1
 50 0 l 1,7,-1
 50 486 l 1,4,-1
EndSplineSet
EndChar

StartChar: cent
Encoding: 162 162 111
Width: 586
GlyphClass: 1
Flags: W
LayerCount: 2
Fore
SplineSet
317 291 m 1,0,-1
 269 291 l 1,1,-1
 269 389 l 1,2,-1
 317 389 l 1,3,-1
 317 291 l 1,0,-1
414 437 m 1,4,-1
 366 437 l 1,5,-1
 366 534 l 1,6,-1
 414 534 l 1,7,-1
 414 437 l 1,4,-1
512 583 m 1,8,-1
 463 583 l 1,9,-1
 463 680 l 1,10,-1
 512 680 l 1,11,-1
 512 583 l 1,8,-1
366 389 m 1,12,-1
 317 389 l 1,13,-1
 317 437 l 1,14,-1
 366 437 l 1,15,-1
 366 389 l 1,12,-1
463 534 m 1,16,-1
 414 534 l 1,17,-1
 414 583 l 1,18,-1
 463 583 l 1,19,-1
 463 534 l 1,16,-1
220 146 m 1,20,-1
 171 146 l 1,21,-1
 171 243 l 1,22,-1
 220 243 l 1,23,-1
 220 146 l 1,20,-1
123 0 m 1,24,-1
 74 0 l 1,25,-1
 74 97 l 1,26,-1
 123 97 l 1,27,-1
 123 0 l 1,24,-1
269 243 m 1,28,-1
 220 243 l 1,29,-1
 220 291 l 1,30,-1
 269 291 l 1,31,-1
 269 243 l 1,28,-1
171 97 m 1,32,-1
 123 97 l 1,33,-1
 123 146 l 1,34,-1
 171 146 l 1,35,-1
 171 97 l 1,32,-1
536 389 m 1,36,-1
 439 389 l 1,37,-1
 439 486 l 1,38,-1
 536 486 l 1,39,-1
 536 389 l 1,36,-1
536 194 m 1,40,-1
 439 194 l 1,41,-1
 439 291 l 1,42,-1
 536 291 l 1,43,-1
 536 194 l 1,40,-1
341 486 m 1,44,-1
 147 486 l 1,45,-1
 147 583 l 1,46,-1
 341 583 l 1,47,-1
 341 486 l 1,44,-1
439 97 m 1,48,-1
 244 97 l 1,49,-1
 244 194 l 1,50,-1
 439 194 l 1,51,-1
 439 97 l 1,48,-1
147 194 m 1,52,-1
 50 194 l 1,53,-1
 50 486 l 1,54,-1
 147 486 l 1,55,-1
 147 194 l 1,52,-1
EndSplineSet
EndChar

StartChar: sterling
Encoding: 163 163 112
Width: 586
GlyphClass: 1
Flags: W
LayerCount: 2
Fore
SplineSet
536 0 m 1,0,-1
 50 0 l 1,1,-1
 50 97 l 1,2,-1
 147 97 l 1,3,-1
 147 194 l 1,4,-1
 50 194 l 1,5,-1
 50 291 l 1,6,-1
 147 291 l 1,7,-1
 147 389 l 1,8,-1
 244 389 l 1,9,-1
 244 291 l 1,10,-1
 439 291 l 1,11,-1
 439 194 l 1,12,-1
 244 194 l 1,13,-1
 244 97 l 1,14,-1
 536 97 l 1,15,-1
 536 0 l 1,0,-1
439 583 m 1,16,-1
 147 583 l 1,17,-1
 147 680 l 1,18,-1
 439 680 l 1,19,-1
 439 583 l 1,16,-1
536 486 m 1,20,-1
 439 486 l 1,21,-1
 439 583 l 1,22,-1
 536 583 l 1,23,-1
 536 486 l 1,20,-1
147 389 m 1,24,-1
 50 389 l 1,25,-1
 50 583 l 1,26,-1
 147 583 l 1,27,-1
 147 389 l 1,24,-1
EndSplineSet
EndChar

StartChar: currency
Encoding: 164 164 113
Width: 780
GlyphClass: 1
Flags: W
LayerCount: 2
Fore
SplineSet
633 535 m 1,0,-1
 584 535 l 1,1,-1
 584 583 l 1,2,-1
 633 583 l 1,3,-1
 633 535 l 1,0,-1
682 583 m 1,4,-1
 633 583 l 1,5,-1
 633 632 l 1,6,-1
 682 632 l 1,7,-1
 682 583 l 1,4,-1
730 632 m 1,8,-1
 682 632 l 1,9,-1
 682 680 l 1,10,-1
 730 680 l 1,11,-1
 730 632 l 1,8,-1
99 0 m 1,12,-1
 50 0 l 1,13,-1
 50 49 l 1,14,-1
 99 49 l 1,15,-1
 99 0 l 1,12,-1
147 49 m 1,16,-1
 99 49 l 1,17,-1
 99 97 l 1,18,-1
 147 97 l 1,19,-1
 147 49 l 1,16,-1
196 97 m 1,20,-1
 147 97 l 1,21,-1
 147 146 l 1,22,-1
 196 146 l 1,23,-1
 196 97 l 1,20,-1
196 535 m 1,24,-1
 147 535 l 1,25,-1
 147 583 l 1,26,-1
 196 583 l 1,27,-1
 196 535 l 1,24,-1
147 583 m 1,28,-1
 99 583 l 1,29,-1
 99 632 l 1,30,-1
 147 632 l 1,31,-1
 147 583 l 1,28,-1
99 632 m 1,32,-1
 50 632 l 1,33,-1
 50 680 l 1,34,-1
 99 680 l 1,35,-1
 99 632 l 1,32,-1
730 0 m 1,36,-1
 682 0 l 1,37,-1
 682 49 l 1,38,-1
 730 49 l 1,39,-1
 730 0 l 1,36,-1
682 49 m 1,40,-1
 633 49 l 1,41,-1
 633 97 l 1,42,-1
 682 97 l 1,43,-1
 682 49 l 1,40,-1
633 97 m 1,44,-1
 584 97 l 1,45,-1
 584 146 l 1,46,-1
 633 146 l 1,47,-1
 633 97 l 1,44,-1
536 97 m 1,48,-1
 244 97 l 1,49,-1
 244 146 l 1,50,-1
 196 146 l 1,51,-1
 196 194 l 1,52,-1
 147 194 l 1,53,-1
 147 486 l 1,54,-1
 196 486 l 1,55,-1
 196 535 l 1,56,-1
 244 535 l 1,57,-1
 244 583 l 1,58,-1
 536 583 l 1,59,-1
 536 535 l 1,60,-1
 584 535 l 1,61,-1
 584 486 l 1,62,-1
 633 486 l 1,63,-1
 633 194 l 1,64,-1
 584 194 l 1,65,-1
 584 146 l 1,66,-1
 536 146 l 1,67,-1
 536 97 l 1,48,-1
536 194 m 1,68,-1
 536 486 l 1,69,-1
 244 486 l 1,70,-1
 244 194 l 1,71,-1
 536 194 l 1,68,-1
EndSplineSet
EndChar

StartChar: yen
Encoding: 165 165 114
Width: 586
GlyphClass: 1
Flags: W
LayerCount: 2
Fore
SplineSet
341 0 m 1,0,-1
 244 0 l 1,1,-1
 244 97 l 1,2,-1
 50 97 l 1,3,-1
 50 194 l 1,4,-1
 244 194 l 1,5,-1
 244 291 l 1,6,-1
 50 291 l 1,7,-1
 50 389 l 1,8,-1
 244 389 l 1,9,-1
 244 486 l 1,10,-1
 341 486 l 1,11,-1
 341 389 l 1,12,-1
 536 389 l 1,13,-1
 536 291 l 1,14,-1
 341 291 l 1,15,-1
 341 194 l 1,16,-1
 536 194 l 1,17,-1
 536 97 l 1,18,-1
 341 97 l 1,19,-1
 341 0 l 1,0,-1
244 486 m 1,20,-1
 147 486 l 1,21,-1
 147 583 l 1,22,-1
 244 583 l 1,23,-1
 244 486 l 1,20,-1
439 486 m 1,24,-1
 341 486 l 1,25,-1
 341 583 l 1,26,-1
 439 583 l 1,27,-1
 439 486 l 1,24,-1
147 583 m 1,28,-1
 50 583 l 1,29,-1
 50 680 l 1,30,-1
 147 680 l 1,31,-1
 147 583 l 1,28,-1
536 583 m 1,32,-1
 439 583 l 1,33,-1
 439 680 l 1,34,-1
 536 680 l 1,35,-1
 536 583 l 1,32,-1
EndSplineSet
EndChar

StartChar: brokenbar
Encoding: 166 166 115
Width: 197
GlyphClass: 1
Flags: W
LayerCount: 2
Fore
SplineSet
147 -97 m 1,0,-1
 50 -97 l 1,1,-1
 50 261 l 1,2,-1
 147 261 l 1,3,-1
 147 -97 l 1,0,-1
147 419 m 1,4,-1
 50 419 l 1,5,-1
 50 777 l 1,6,-1
 147 777 l 1,7,-1
 147 419 l 1,4,-1
EndSplineSet
EndChar

StartChar: section
Encoding: 167 167 116
Width: 586
GlyphClass: 1
Flags: W
LayerCount: 2
Fore
SplineSet
439 583 m 1,0,-1
 147 583 l 1,1,-1
 147 680 l 1,2,-1
 439 680 l 1,3,-1
 439 583 l 1,0,-1
439 291 m 1,4,-1
 244 291 l 1,5,-1
 244 389 l 1,6,-1
 439 389 l 1,7,-1
 439 291 l 1,4,-1
244 389 m 1,8,-1
 147 389 l 1,9,-1
 147 486 l 1,10,-1
 244 486 l 1,11,-1
 244 389 l 1,8,-1
536 486 m 1,12,-1
 439 486 l 1,13,-1
 439 583 l 1,14,-1
 536 583 l 1,15,-1
 536 486 l 1,12,-1
147 486 m 1,16,-1
 50 486 l 1,17,-1
 50 583 l 1,18,-1
 147 583 l 1,19,-1
 147 486 l 1,16,-1
341 97 m 1,20,-1
 147 97 l 1,21,-1
 147 194 l 1,22,-1
 341 194 l 1,23,-1
 341 97 l 1,20,-1
439 0 m 1,24,-1
 341 0 l 1,25,-1
 341 97 l 1,26,-1
 439 97 l 1,27,-1
 439 0 l 1,24,-1
147 194 m 1,28,-1
 50 194 l 1,29,-1
 50 389 l 1,30,-1
 147 389 l 1,31,-1
 147 194 l 1,28,-1
536 97 m 1,32,-1
 439 97 l 1,33,-1
 439 291 l 1,34,-1
 536 291 l 1,35,-1
 536 97 l 1,32,-1
439 -194 m 1,36,-1
 147 -194 l 1,37,-1
 147 -97 l 1,38,-1
 439 -97 l 1,39,-1
 439 -194 l 1,36,-1
536 -97 m 1,40,-1
 439 -97 l 1,41,-1
 439 0 l 1,42,-1
 536 0 l 1,43,-1
 536 -97 l 1,40,-1
147 -97 m 1,44,-1
 50 -97 l 1,45,-1
 50 0 l 1,46,-1
 147 0 l 1,47,-1
 147 -97 l 1,44,-1
EndSplineSet
EndChar

StartChar: dieresis
Encoding: 168 168 117
Width: 391
GlyphClass: 1
Flags: W
LayerCount: 2
Fore
SplineSet
269 777 m 1,0,-1
 220 777 l 1,1,-1
 220 826 l 1,2,-1
 269 826 l 1,3,-1
 269 777 l 1,0,-1
171 777 m 1,4,-1
 123 777 l 1,5,-1
 123 826 l 1,6,-1
 171 826 l 1,7,-1
 171 777 l 1,4,-1
EndSplineSet
EndChar

StartChar: copyright
Encoding: 169 169 118
Width: 780
GlyphClass: 1
Flags: W
LayerCount: 2
Fore
SplineSet
536 583 m 1,0,-1
 244 583 l 1,1,-1
 244 680 l 1,2,-1
 536 680 l 1,3,-1
 536 583 l 1,0,-1
536 0 m 1,4,-1
 244 0 l 1,5,-1
 244 97 l 1,6,-1
 536 97 l 1,7,-1
 536 0 l 1,4,-1
147 194 m 1,8,-1
 50 194 l 1,9,-1
 50 486 l 1,10,-1
 147 486 l 1,11,-1
 147 194 l 1,8,-1
244 486 m 1,12,-1
 147 486 l 1,13,-1
 147 583 l 1,14,-1
 244 583 l 1,15,-1
 244 486 l 1,12,-1
536 389 m 1,16,-1
 341 389 l 1,17,-1
 341 486 l 1,18,-1
 536 486 l 1,19,-1
 536 389 l 1,16,-1
730 194 m 1,20,-1
 633 194 l 1,21,-1
 633 486 l 1,22,-1
 730 486 l 1,23,-1
 730 194 l 1,20,-1
633 486 m 1,24,-1
 536 486 l 1,25,-1
 536 583 l 1,26,-1
 633 583 l 1,27,-1
 633 486 l 1,24,-1
341 291 m 1,28,-1
 244 291 l 1,29,-1
 244 389 l 1,30,-1
 341 389 l 1,31,-1
 341 291 l 1,28,-1
536 194 m 1,32,-1
 341 194 l 1,33,-1
 341 291 l 1,34,-1
 536 291 l 1,35,-1
 536 194 l 1,32,-1
244 97 m 1,36,-1
 147 97 l 1,37,-1
 147 194 l 1,38,-1
 244 194 l 1,39,-1
 244 97 l 1,36,-1
633 97 m 1,40,-1
 536 97 l 1,41,-1
 536 194 l 1,42,-1
 633 194 l 1,43,-1
 633 97 l 1,40,-1
EndSplineSet
EndChar

StartChar: registered
Encoding: 174 174 119
Width: 780
GlyphClass: 1
Flags: W
LayerCount: 2
Fore
SplineSet
536 583 m 1,0,-1
 244 583 l 1,1,-1
 244 680 l 1,2,-1
 536 680 l 1,3,-1
 536 583 l 1,0,-1
536 0 m 1,4,-1
 244 0 l 1,5,-1
 244 97 l 1,6,-1
 536 97 l 1,7,-1
 536 0 l 1,4,-1
244 486 m 1,8,-1
 147 486 l 1,9,-1
 147 583 l 1,10,-1
 244 583 l 1,11,-1
 244 486 l 1,8,-1
147 194 m 1,12,-1
 50 194 l 1,13,-1
 50 486 l 1,14,-1
 147 486 l 1,15,-1
 147 194 l 1,12,-1
730 194 m 1,16,-1
 633 194 l 1,17,-1
 633 486 l 1,18,-1
 730 486 l 1,19,-1
 730 194 l 1,16,-1
633 486 m 1,20,-1
 536 486 l 1,21,-1
 536 583 l 1,22,-1
 633 583 l 1,23,-1
 633 486 l 1,20,-1
536 194 m 1,24,-1
 439 194 l 1,25,-1
 439 291 l 1,26,-1
 341 291 l 1,27,-1
 341 194 l 1,28,-1
 244 194 l 1,29,-1
 244 486 l 1,30,-1
 536 486 l 1,31,-1
 536 340 l 1,32,-1
 487 340 l 1,33,-1
 487 291 l 1,34,-1
 536 291 l 1,35,-1
 536 194 l 1,24,-1
439 340 m 1,36,-1
 439 389 l 1,37,-1
 341 389 l 1,38,-1
 341 340 l 1,39,-1
 439 340 l 1,36,-1
244 97 m 1,40,-1
 147 97 l 1,41,-1
 147 194 l 1,42,-1
 244 194 l 1,43,-1
 244 97 l 1,40,-1
633 97 m 1,44,-1
 536 97 l 1,45,-1
 536 194 l 1,46,-1
 633 194 l 1,47,-1
 633 97 l 1,44,-1
EndSplineSet
EndChar

StartChar: macron
Encoding: 175 175 120
Width: 391
GlyphClass: 1
Flags: W
LayerCount: 2
Fore
SplineSet
123 777 m 1,0,-1
 123 826 l 1,1,-1
 269 826 l 1,2,-1
 269 777 l 1,3,-1
 123 777 l 1,0,-1
EndSplineSet
EndChar

StartChar: degree
Encoding: 176 176 121
Width: 294
GlyphClass: 1
Flags: W
LayerCount: 2
Fore
SplineSet
196 632 m 1,0,-1
 99 632 l 1,1,-1
 99 680 l 1,2,-1
 196 680 l 1,3,-1
 196 632 l 1,0,-1
196 437 m 1,4,-1
 99 437 l 1,5,-1
 99 486 l 1,6,-1
 196 486 l 1,7,-1
 196 437 l 1,4,-1
244 486 m 1,8,-1
 196 486 l 1,9,-1
 196 632 l 1,10,-1
 244 632 l 1,11,-1
 244 486 l 1,8,-1
99 486 m 1,12,-1
 50 486 l 1,13,-1
 50 632 l 1,14,-1
 99 632 l 1,15,-1
 99 486 l 1,12,-1
EndSplineSet
EndChar

StartChar: plusminus
Encoding: 177 177 122
Width: 586
GlyphClass: 1
Flags: W
LayerCount: 2
Fore
SplineSet
341 97 m 1,0,-1
 536 97 l 1,1,-1
 536 0 l 1,2,-1
 50 0 l 1,3,-1
 50 97 l 1,4,-1
 244 97 l 1,5,-1
 244 292 l 1,6,-1
 50 292 l 1,7,-1
 50 389 l 1,8,-1
 244 389 l 1,9,-1
 244 583 l 1,10,-1
 341 583 l 1,11,-1
 341 389 l 1,12,-1
 536 389 l 1,13,-1
 536 292 l 1,14,-1
 341 292 l 1,15,-1
 341 97 l 1,0,-1
EndSplineSet
EndChar

StartChar: acute
Encoding: 180 180 123
Width: 391
GlyphClass: 1
Flags: W
LayerCount: 2
Fore
SplineSet
196 729 m 1,0,-1
 147 729 l 1,1,-1
 147 777 l 1,2,-1
 196 777 l 1,3,-1
 196 729 l 1,0,-1
244 777 m 1,4,-1
 196 777 l 1,5,-1
 196 826 l 1,6,-1
 244 826 l 1,7,-1
 244 777 l 1,4,-1
293 826 m 1,8,-1
 244 826 l 1,9,-1
 244 874 l 1,10,-1
 293 874 l 1,11,-1
 293 826 l 1,8,-1
EndSplineSet
EndChar

StartChar: mu
Encoding: 181 181 124
Width: 586
GlyphClass: 1
Flags: W
LayerCount: 2
Fore
SplineSet
147 -194 m 1,0,-1
 50 -194 l 1,1,-1
 50 486 l 1,2,-1
 147 486 l 1,3,-1
 147 97 l 1,4,-1
 439 97 l 1,5,-1
 439 0 l 1,6,-1
 147 0 l 1,7,-1
 147 -194 l 1,0,-1
536 97 m 1,8,-1
 439 97 l 1,9,-1
 439 486 l 1,10,-1
 536 486 l 1,11,-1
 536 97 l 1,8,-1
EndSplineSet
EndChar

StartChar: periodcentered
Encoding: 183 183 125
AltUni2: 002219.ffffffff.0 002219.ffffffff.0
Width: 197
GlyphClass: 1
Flags: W
LayerCount: 2
Fore
SplineSet
147 291 m 1,0,-1
 50 291 l 1,1,-1
 50 389 l 1,2,-1
 147 389 l 1,3,-1
 147 291 l 1,0,-1
EndSplineSet
EndChar

StartChar: cedilla
Encoding: 184 184 126
Width: 246
GlyphClass: 1
Flags: W
LayerCount: 2
Fore
SplineSet
147 -194 m 1,0,-1
 99 -194 l 1,1,-1
 99 -146 l 1,2,-1
 147 -146 l 1,3,-1
 147 -194 l 1,0,-1
99 -146 m 1,4,-1
 50 -146 l 1,5,-1
 50 -97 l 1,6,-1
 99 -97 l 1,7,-1
 99 -146 l 1,4,-1
196 -146 m 1,8,-1
 147 -146 l 1,9,-1
 147 -48 l 1,10,-1
 196 -48 l 1,11,-1
 196 -146 l 1,8,-1
147 -48 m 1,12,-1
 99 -48 l 1,13,-1
 99 0 l 1,14,-1
 147 0 l 1,15,-1
 147 -48 l 1,12,-1
EndSplineSet
EndChar

StartChar: questiondown
Encoding: 191 191 127
Width: 586
GlyphClass: 1
Flags: W
LayerCount: 2
Fore
SplineSet
147 97 m 1,0,-1
 439 97 l 1,1,-1
 439 0 l 1,2,-1
 147 0 l 1,3,-1
 147 97 l 1,0,-1
341 680 m 1,4,-1
 439 680 l 1,5,-1
 439 583 l 1,6,-1
 341 583 l 1,7,-1
 341 680 l 1,4,-1
50 194 m 1,8,-1
 147 194 l 1,9,-1
 147 97 l 1,10,-1
 50 97 l 1,11,-1
 50 194 l 1,8,-1
147 292 m 1,12,-1
 244 292 l 1,13,-1
 244 194 l 1,14,-1
 147 194 l 1,15,-1
 147 292 l 1,12,-1
244 389 m 1,16,-1
 341 389 l 1,17,-1
 341 292 l 1,18,-1
 244 292 l 1,19,-1
 244 389 l 1,16,-1
341 486 m 1,20,-1
 439 486 l 1,21,-1
 439 389 l 1,22,-1
 341 389 l 1,23,-1
 341 486 l 1,20,-1
439 194 m 1,24,-1
 536 194 l 1,25,-1
 536 97 l 1,26,-1
 439 97 l 1,27,-1
 439 194 l 1,24,-1
EndSplineSet
EndChar

StartChar: Agrave
Encoding: 192 192 128
Width: 586
GlyphClass: 1
Flags: W
LayerCount: 2
Fore
SplineSet
439 583 m 1,0,-1
 147 583 l 1,1,-1
 147 680 l 1,2,-1
 439 680 l 1,3,-1
 439 583 l 1,0,-1
536 0 m 1,4,-1
 439 0 l 1,5,-1
 439 291 l 1,6,-1
 147 291 l 1,7,-1
 147 0 l 1,8,-1
 50 0 l 1,9,-1
 50 583 l 1,10,-1
 147 583 l 1,11,-1
 147 389 l 1,12,-1
 439 389 l 1,13,-1
 439 583 l 1,14,-1
 536 583 l 1,15,-1
 536 0 l 1,4,-1
317 729 m 1,16,-1
 269 729 l 1,17,-1
 269 777 l 1,18,-1
 317 777 l 1,19,-1
 317 729 l 1,16,-1
269 777 m 1,20,-1
 220 777 l 1,21,-1
 220 826 l 1,22,-1
 269 826 l 1,23,-1
 269 777 l 1,20,-1
220 826 m 1,24,-1
 171 826 l 1,25,-1
 171 874 l 1,26,-1
 220 874 l 1,27,-1
 220 826 l 1,24,-1
EndSplineSet
EndChar

StartChar: Aacute
Encoding: 193 193 129
Width: 586
GlyphClass: 1
Flags: W
LayerCount: 2
Fore
SplineSet
439 583 m 1,0,-1
 147 583 l 1,1,-1
 147 680 l 1,2,-1
 439 680 l 1,3,-1
 439 583 l 1,0,-1
536 0 m 1,4,-1
 439 0 l 1,5,-1
 439 291 l 1,6,-1
 147 291 l 1,7,-1
 147 0 l 1,8,-1
 50 0 l 1,9,-1
 50 583 l 1,10,-1
 147 583 l 1,11,-1
 147 389 l 1,12,-1
 439 389 l 1,13,-1
 439 583 l 1,14,-1
 536 583 l 1,15,-1
 536 0 l 1,4,-1
317 729 m 1,16,-1
 269 729 l 1,17,-1
 269 777 l 1,18,-1
 317 777 l 1,19,-1
 317 729 l 1,16,-1
366 777 m 1,20,-1
 317 777 l 1,21,-1
 317 826 l 1,22,-1
 366 826 l 1,23,-1
 366 777 l 1,20,-1
414 826 m 1,24,-1
 366 826 l 1,25,-1
 366 874 l 1,26,-1
 414 874 l 1,27,-1
 414 826 l 1,24,-1
EndSplineSet
EndChar

StartChar: Acircumflex
Encoding: 194 194 130
Width: 586
GlyphClass: 1
Flags: W
LayerCount: 2
Fore
SplineSet
317 826 m 1,0,-1
 269 826 l 1,1,-1
 269 874 l 1,2,-1
 317 874 l 1,3,-1
 317 826 l 1,0,-1
220 729 m 1,4,-1
 171 729 l 1,5,-1
 171 777 l 1,6,-1
 220 777 l 1,7,-1
 220 729 l 1,4,-1
269 777 m 1,8,-1
 220 777 l 1,9,-1
 220 826 l 1,10,-1
 269 826 l 1,11,-1
 269 777 l 1,8,-1
366 777 m 1,12,-1
 317 777 l 1,13,-1
 317 826 l 1,14,-1
 366 826 l 1,15,-1
 366 777 l 1,12,-1
439 583 m 1,16,-1
 147 583 l 1,17,-1
 147 680 l 1,18,-1
 439 680 l 1,19,-1
 439 583 l 1,16,-1
536 0 m 1,20,-1
 439 0 l 1,21,-1
 439 291 l 1,22,-1
 147 291 l 1,23,-1
 147 0 l 1,24,-1
 50 0 l 1,25,-1
 50 583 l 1,26,-1
 147 583 l 1,27,-1
 147 389 l 1,28,-1
 439 389 l 1,29,-1
 439 583 l 1,30,-1
 536 583 l 1,31,-1
 536 0 l 1,20,-1
414 729 m 1,32,-1
 366 729 l 1,33,-1
 366 777 l 1,34,-1
 414 777 l 1,35,-1
 414 729 l 1,32,-1
EndSplineSet
EndChar

StartChar: Atilde
Encoding: 195 195 131
Width: 586
GlyphClass: 1
Flags: W
LayerCount: 2
Fore
SplineSet
269 826 m 1,0,-1
 220 826 l 1,1,-1
 220 874 l 1,2,-1
 269 874 l 1,3,-1
 269 826 l 1,0,-1
414 777 m 1,4,-1
 366 777 l 1,5,-1
 366 826 l 1,6,-1
 414 826 l 1,7,-1
 414 777 l 1,4,-1
220 777 m 1,8,-1
 171 777 l 1,9,-1
 171 826 l 1,10,-1
 220 826 l 1,11,-1
 220 777 l 1,8,-1
317 777 m 1,12,-1
 269 777 l 1,13,-1
 269 826 l 1,14,-1
 317 826 l 1,15,-1
 317 777 l 1,12,-1
439 583 m 1,16,-1
 147 583 l 1,17,-1
 147 680 l 1,18,-1
 439 680 l 1,19,-1
 439 583 l 1,16,-1
536 0 m 1,20,-1
 439 0 l 1,21,-1
 439 291 l 1,22,-1
 147 291 l 1,23,-1
 147 0 l 1,24,-1
 50 0 l 1,25,-1
 50 583 l 1,26,-1
 147 583 l 1,27,-1
 147 389 l 1,28,-1
 439 389 l 1,29,-1
 439 583 l 1,30,-1
 536 583 l 1,31,-1
 536 0 l 1,20,-1
366 729 m 1,32,-1
 317 729 l 1,33,-1
 317 777 l 1,34,-1
 366 777 l 1,35,-1
 366 729 l 1,32,-1
EndSplineSet
EndChar

StartChar: Adieresis
Encoding: 196 196 132
Width: 586
GlyphClass: 1
Flags: W
LayerCount: 2
Fore
SplineSet
439 583 m 1,0,-1
 147 583 l 1,1,-1
 147 680 l 1,2,-1
 439 680 l 1,3,-1
 439 583 l 1,0,-1
536 0 m 1,4,-1
 439 0 l 1,5,-1
 439 291 l 1,6,-1
 147 291 l 1,7,-1
 147 0 l 1,8,-1
 50 0 l 1,9,-1
 50 583 l 1,10,-1
 147 583 l 1,11,-1
 147 389 l 1,12,-1
 439 389 l 1,13,-1
 439 583 l 1,14,-1
 536 583 l 1,15,-1
 536 0 l 1,4,-1
366 777 m 1,16,-1
 317 777 l 1,17,-1
 317 826 l 1,18,-1
 366 826 l 1,19,-1
 366 777 l 1,16,-1
269 777 m 1,20,-1
 220 777 l 1,21,-1
 220 826 l 1,22,-1
 269 826 l 1,23,-1
 269 777 l 1,20,-1
EndSplineSet
EndChar

StartChar: Aring
Encoding: 197 197 133
Width: 586
GlyphClass: 1
Flags: W
LayerCount: 2
Fore
SplineSet
269 753 m 1,0,-1
 220 753 l 1,1,-1
 220 850 l 1,2,-1
 269 850 l 1,3,-1
 269 753 l 1,0,-1
439 583 m 1,4,-1
 147 583 l 1,5,-1
 147 680 l 1,6,-1
 439 680 l 1,7,-1
 439 583 l 1,4,-1
536 0 m 1,8,-1
 439 0 l 1,9,-1
 439 291 l 1,10,-1
 147 291 l 1,11,-1
 147 0 l 1,12,-1
 50 0 l 1,13,-1
 50 583 l 1,14,-1
 147 583 l 1,15,-1
 147 389 l 1,16,-1
 439 389 l 1,17,-1
 439 583 l 1,18,-1
 536 583 l 1,19,-1
 536 0 l 1,8,-1
317 704 m 1,20,-1
 269 704 l 1,21,-1
 269 753 l 1,22,-1
 317 753 l 1,23,-1
 317 704 l 1,20,-1
366 753 m 1,24,-1
 317 753 l 1,25,-1
 317 850 l 1,26,-1
 366 850 l 1,27,-1
 366 753 l 1,24,-1
317 850 m 1,28,-1
 269 850 l 1,29,-1
 269 899 l 1,30,-1
 317 899 l 1,31,-1
 317 850 l 1,28,-1
EndSplineSet
EndChar

StartChar: AE
Encoding: 198 198 134
Width: 974
GlyphClass: 1
Flags: W
LayerCount: 2
Fore
SplineSet
439 583 m 1,0,-1
 147 583 l 1,1,-1
 147 680 l 1,2,-1
 439 680 l 1,3,-1
 439 583 l 1,0,-1
924 0 m 1,4,-1
 439 0 l 1,5,-1
 439 291 l 1,6,-1
 147 291 l 1,7,-1
 147 0 l 1,8,-1
 50 0 l 1,9,-1
 50 583 l 1,10,-1
 147 583 l 1,11,-1
 147 389 l 1,12,-1
 439 389 l 1,13,-1
 439 583 l 1,14,-1
 536 583 l 1,15,-1
 536 389 l 1,16,-1
 730 389 l 1,17,-1
 730 291 l 1,18,-1
 536 291 l 1,19,-1
 536 97 l 1,20,-1
 924 97 l 1,21,-1
 924 0 l 1,4,-1
924 583 m 1,22,-1
 536 583 l 1,23,-1
 536 680 l 1,24,-1
 924 680 l 1,25,-1
 924 583 l 1,22,-1
EndSplineSet
EndChar

StartChar: Ccedilla
Encoding: 199 199 135
Width: 586
GlyphClass: 1
Flags: W
LayerCount: 2
Fore
SplineSet
439 583 m 1,0,-1
 147 583 l 1,1,-1
 147 680 l 1,2,-1
 439 680 l 1,3,-1
 439 583 l 1,0,-1
317 -49 m 1,4,-1
 269 -49 l 1,5,-1
 269 0 l 1,6,-1
 147 0 l 1,7,-1
 147 97 l 1,8,-1
 439 97 l 1,9,-1
 439 0 l 1,10,-1
 317 0 l 1,11,-1
 317 -49 l 1,4,-1
536 486 m 1,12,-1
 439 486 l 1,13,-1
 439 583 l 1,14,-1
 536 583 l 1,15,-1
 536 486 l 1,12,-1
147 97 m 1,16,-1
 50 97 l 1,17,-1
 50 583 l 1,18,-1
 147 583 l 1,19,-1
 147 97 l 1,16,-1
536 97 m 1,20,-1
 439 97 l 1,21,-1
 439 194 l 1,22,-1
 536 194 l 1,23,-1
 536 97 l 1,20,-1
317 -194 m 1,24,-1
 269 -194 l 1,25,-1
 269 -146 l 1,26,-1
 317 -146 l 1,27,-1
 317 -194 l 1,24,-1
269 -146 m 1,28,-1
 220 -146 l 1,29,-1
 220 -97 l 1,30,-1
 269 -97 l 1,31,-1
 269 -146 l 1,28,-1
366 -146 m 1,32,-1
 317 -146 l 1,33,-1
 317 -49 l 1,34,-1
 366 -49 l 1,35,-1
 366 -146 l 1,32,-1
EndSplineSet
EndChar

StartChar: Egrave
Encoding: 200 200 136
Width: 586
GlyphClass: 1
Flags: W
LayerCount: 2
Fore
SplineSet
536 0 m 1,0,-1
 50 0 l 1,1,-1
 50 680 l 1,2,-1
 536 680 l 1,3,-1
 536 583 l 1,4,-1
 147 583 l 1,5,-1
 147 389 l 1,6,-1
 341 389 l 1,7,-1
 341 291 l 1,8,-1
 147 291 l 1,9,-1
 147 97 l 1,10,-1
 536 97 l 1,11,-1
 536 0 l 1,0,-1
317 729 m 1,12,-1
 269 729 l 1,13,-1
 269 777 l 1,14,-1
 317 777 l 1,15,-1
 317 729 l 1,12,-1
269 777 m 1,16,-1
 220 777 l 1,17,-1
 220 826 l 1,18,-1
 269 826 l 1,19,-1
 269 777 l 1,16,-1
220 826 m 1,20,-1
 171 826 l 1,21,-1
 171 874 l 1,22,-1
 220 874 l 1,23,-1
 220 826 l 1,20,-1
EndSplineSet
EndChar

StartChar: Eacute
Encoding: 201 201 137
Width: 586
GlyphClass: 1
Flags: W
LayerCount: 2
Fore
SplineSet
414 826 m 1,0,-1
 366 826 l 1,1,-1
 366 874 l 1,2,-1
 414 874 l 1,3,-1
 414 826 l 1,0,-1
317 729 m 1,4,-1
 269 729 l 1,5,-1
 269 777 l 1,6,-1
 317 777 l 1,7,-1
 317 729 l 1,4,-1
366 777 m 1,8,-1
 317 777 l 1,9,-1
 317 826 l 1,10,-1
 366 826 l 1,11,-1
 366 777 l 1,8,-1
536 0 m 1,12,-1
 50 0 l 1,13,-1
 50 680 l 1,14,-1
 536 680 l 1,15,-1
 536 583 l 1,16,-1
 147 583 l 1,17,-1
 147 389 l 1,18,-1
 341 389 l 1,19,-1
 341 291 l 1,20,-1
 147 291 l 1,21,-1
 147 97 l 1,22,-1
 536 97 l 1,23,-1
 536 0 l 1,12,-1
EndSplineSet
EndChar

StartChar: Ecircumflex
Encoding: 202 202 138
Width: 586
GlyphClass: 1
Flags: W
LayerCount: 2
Fore
SplineSet
317 826 m 1,0,-1
 269 826 l 1,1,-1
 269 874 l 1,2,-1
 317 874 l 1,3,-1
 317 826 l 1,0,-1
220 729 m 1,4,-1
 171 729 l 1,5,-1
 171 777 l 1,6,-1
 220 777 l 1,7,-1
 220 729 l 1,4,-1
269 777 m 1,8,-1
 220 777 l 1,9,-1
 220 826 l 1,10,-1
 269 826 l 1,11,-1
 269 777 l 1,8,-1
366 777 m 1,12,-1
 317 777 l 1,13,-1
 317 826 l 1,14,-1
 366 826 l 1,15,-1
 366 777 l 1,12,-1
536 0 m 1,16,-1
 50 0 l 1,17,-1
 50 680 l 1,18,-1
 536 680 l 1,19,-1
 536 583 l 1,20,-1
 147 583 l 1,21,-1
 147 389 l 1,22,-1
 341 389 l 1,23,-1
 341 291 l 1,24,-1
 147 291 l 1,25,-1
 147 97 l 1,26,-1
 536 97 l 1,27,-1
 536 0 l 1,16,-1
414 729 m 1,28,-1
 366 729 l 1,29,-1
 366 777 l 1,30,-1
 414 777 l 1,31,-1
 414 729 l 1,28,-1
EndSplineSet
EndChar

StartChar: Edieresis
Encoding: 203 203 139
Width: 586
GlyphClass: 1
Flags: W
LayerCount: 2
Fore
SplineSet
536 0 m 1,0,-1
 50 0 l 1,1,-1
 50 680 l 1,2,-1
 536 680 l 1,3,-1
 536 583 l 1,4,-1
 147 583 l 1,5,-1
 147 389 l 1,6,-1
 341 389 l 1,7,-1
 341 291 l 1,8,-1
 147 291 l 1,9,-1
 147 97 l 1,10,-1
 536 97 l 1,11,-1
 536 0 l 1,0,-1
366 777 m 1,12,-1
 317 777 l 1,13,-1
 317 826 l 1,14,-1
 366 826 l 1,15,-1
 366 777 l 1,12,-1
269 777 m 1,16,-1
 220 777 l 1,17,-1
 220 826 l 1,18,-1
 269 826 l 1,19,-1
 269 777 l 1,16,-1
EndSplineSet
EndChar

StartChar: Igrave
Encoding: 204 204 140
Width: 391
GlyphClass: 1
Flags: W
LayerCount: 2
Fore
SplineSet
341 0 m 1,0,-1
 50 0 l 1,1,-1
 50 97 l 1,2,-1
 147 97 l 1,3,-1
 147 583 l 1,4,-1
 50 583 l 1,5,-1
 50 680 l 1,6,-1
 341 680 l 1,7,-1
 341 583 l 1,8,-1
 244 583 l 1,9,-1
 244 97 l 1,10,-1
 341 97 l 1,11,-1
 341 0 l 1,0,-1
244 729 m 1,12,-1
 196 729 l 1,13,-1
 196 777 l 1,14,-1
 244 777 l 1,15,-1
 244 729 l 1,12,-1
196 777 m 1,16,-1
 147 777 l 1,17,-1
 147 826 l 1,18,-1
 196 826 l 1,19,-1
 196 777 l 1,16,-1
147 826 m 1,20,-1
 99 826 l 1,21,-1
 99 874 l 1,22,-1
 147 874 l 1,23,-1
 147 826 l 1,20,-1
EndSplineSet
EndChar

StartChar: Iacute
Encoding: 205 205 141
Width: 391
GlyphClass: 1
Flags: W
LayerCount: 2
Fore
SplineSet
341 0 m 1,0,-1
 50 0 l 1,1,-1
 50 97 l 1,2,-1
 147 97 l 1,3,-1
 147 583 l 1,4,-1
 50 583 l 1,5,-1
 50 680 l 1,6,-1
 341 680 l 1,7,-1
 341 583 l 1,8,-1
 244 583 l 1,9,-1
 244 97 l 1,10,-1
 341 97 l 1,11,-1
 341 0 l 1,0,-1
196 729 m 1,12,-1
 147 729 l 1,13,-1
 147 777 l 1,14,-1
 196 777 l 1,15,-1
 196 729 l 1,12,-1
244 777 m 1,16,-1
 196 777 l 1,17,-1
 196 826 l 1,18,-1
 244 826 l 1,19,-1
 244 777 l 1,16,-1
293 826 m 1,20,-1
 244 826 l 1,21,-1
 244 874 l 1,22,-1
 293 874 l 1,23,-1
 293 826 l 1,20,-1
EndSplineSet
EndChar

StartChar: Icircumflex
Encoding: 206 206 142
Width: 391
GlyphClass: 1
Flags: W
LayerCount: 2
Fore
SplineSet
341 0 m 1,0,-1
 50 0 l 1,1,-1
 50 97 l 1,2,-1
 147 97 l 1,3,-1
 147 583 l 1,4,-1
 50 583 l 1,5,-1
 50 680 l 1,6,-1
 341 680 l 1,7,-1
 341 583 l 1,8,-1
 244 583 l 1,9,-1
 244 97 l 1,10,-1
 341 97 l 1,11,-1
 341 0 l 1,0,-1
123 729 m 1,12,-1
 74 729 l 1,13,-1
 74 777 l 1,14,-1
 123 777 l 1,15,-1
 123 729 l 1,12,-1
171 777 m 1,16,-1
 123 777 l 1,17,-1
 123 826 l 1,18,-1
 171 826 l 1,19,-1
 171 777 l 1,16,-1
220 826 m 1,20,-1
 171 826 l 1,21,-1
 171 874 l 1,22,-1
 220 874 l 1,23,-1
 220 826 l 1,20,-1
317 729 m 1,24,-1
 269 729 l 1,25,-1
 269 777 l 1,26,-1
 317 777 l 1,27,-1
 317 729 l 1,24,-1
269 777 m 1,28,-1
 220 777 l 1,29,-1
 220 826 l 1,30,-1
 269 826 l 1,31,-1
 269 777 l 1,28,-1
EndSplineSet
EndChar

StartChar: Idieresis
Encoding: 207 207 143
Width: 391
GlyphClass: 1
Flags: W
LayerCount: 2
Fore
SplineSet
341 0 m 1,0,-1
 50 0 l 1,1,-1
 50 97 l 1,2,-1
 147 97 l 1,3,-1
 147 583 l 1,4,-1
 50 583 l 1,5,-1
 50 680 l 1,6,-1
 341 680 l 1,7,-1
 341 583 l 1,8,-1
 244 583 l 1,9,-1
 244 97 l 1,10,-1
 341 97 l 1,11,-1
 341 0 l 1,0,-1
269 777 m 1,12,-1
 220 777 l 1,13,-1
 220 826 l 1,14,-1
 269 826 l 1,15,-1
 269 777 l 1,12,-1
171 777 m 1,16,-1
 123 777 l 1,17,-1
 123 826 l 1,18,-1
 171 826 l 1,19,-1
 171 777 l 1,16,-1
EndSplineSet
EndChar

StartChar: Eth
Encoding: 208 208 144
Width: 683
GlyphClass: 1
Flags: W
LayerCount: 2
Fore
SplineSet
536 0 m 1,0,-1
 147 0 l 1,1,-1
 147 291 l 1,2,-1
 50 291 l 1,3,-1
 50 389 l 1,4,-1
 147 389 l 1,5,-1
 147 680 l 1,6,-1
 536 680 l 1,7,-1
 536 583 l 1,8,-1
 244 583 l 1,9,-1
 244 389 l 1,10,-1
 439 389 l 1,11,-1
 439 291 l 1,12,-1
 244 291 l 1,13,-1
 244 97 l 1,14,-1
 536 97 l 1,15,-1
 536 0 l 1,0,-1
633 97 m 1,16,-1
 536 97 l 1,17,-1
 536 583 l 1,18,-1
 633 583 l 1,19,-1
 633 97 l 1,16,-1
EndSplineSet
EndChar

StartChar: Ntilde
Encoding: 209 209 145
Width: 586
GlyphClass: 1
Flags: W
LayerCount: 2
Fore
SplineSet
341 486 m 1,0,-1
 244 486 l 1,1,-1
 244 583 l 1,2,-1
 341 583 l 1,3,-1
 341 486 l 1,0,-1
147 0 m 1,4,-1
 50 0 l 1,5,-1
 50 680 l 1,6,-1
 244 680 l 1,7,-1
 244 583 l 1,8,-1
 147 583 l 1,9,-1
 147 0 l 1,4,-1
536 0 m 1,10,-1
 439 0 l 1,11,-1
 439 389 l 1,12,-1
 341 389 l 1,13,-1
 341 486 l 1,14,-1
 439 486 l 1,15,-1
 439 680 l 1,16,-1
 536 680 l 1,17,-1
 536 0 l 1,10,-1
414 777 m 1,18,-1
 366 777 l 1,19,-1
 366 826 l 1,20,-1
 414 826 l 1,21,-1
 414 777 l 1,18,-1
220 777 m 1,22,-1
 171 777 l 1,23,-1
 171 826 l 1,24,-1
 220 826 l 1,25,-1
 220 777 l 1,22,-1
269 826 m 1,26,-1
 220 826 l 1,27,-1
 220 874 l 1,28,-1
 269 874 l 1,29,-1
 269 826 l 1,26,-1
366 729 m 1,30,-1
 317 729 l 1,31,-1
 317 777 l 1,32,-1
 366 777 l 1,33,-1
 366 729 l 1,30,-1
317 777 m 1,34,-1
 269 777 l 1,35,-1
 269 826 l 1,36,-1
 317 826 l 1,37,-1
 317 777 l 1,34,-1
EndSplineSet
EndChar

StartChar: Ograve
Encoding: 210 210 146
Width: 586
GlyphClass: 1
Flags: W
LayerCount: 2
Fore
SplineSet
439 583 m 1,0,-1
 147 583 l 1,1,-1
 147 680 l 1,2,-1
 439 680 l 1,3,-1
 439 583 l 1,0,-1
439 0 m 1,4,-1
 147 0 l 1,5,-1
 147 97 l 1,6,-1
 439 97 l 1,7,-1
 439 0 l 1,4,-1
536 97 m 1,8,-1
 439 97 l 1,9,-1
 439 583 l 1,10,-1
 536 583 l 1,11,-1
 536 97 l 1,8,-1
147 97 m 1,12,-1
 50 97 l 1,13,-1
 50 583 l 1,14,-1
 147 583 l 1,15,-1
 147 97 l 1,12,-1
317 729 m 1,16,-1
 269 729 l 1,17,-1
 269 777 l 1,18,-1
 317 777 l 1,19,-1
 317 729 l 1,16,-1
269 777 m 1,20,-1
 220 777 l 1,21,-1
 220 826 l 1,22,-1
 269 826 l 1,23,-1
 269 777 l 1,20,-1
220 826 m 1,24,-1
 171 826 l 1,25,-1
 171 874 l 1,26,-1
 220 874 l 1,27,-1
 220 826 l 1,24,-1
EndSplineSet
EndChar

StartChar: Oacute
Encoding: 211 211 147
Width: 586
GlyphClass: 1
Flags: W
LayerCount: 2
Fore
SplineSet
439 583 m 1,0,-1
 147 583 l 1,1,-1
 147 680 l 1,2,-1
 439 680 l 1,3,-1
 439 583 l 1,0,-1
439 0 m 1,4,-1
 147 0 l 1,5,-1
 147 97 l 1,6,-1
 439 97 l 1,7,-1
 439 0 l 1,4,-1
536 97 m 1,8,-1
 439 97 l 1,9,-1
 439 583 l 1,10,-1
 536 583 l 1,11,-1
 536 97 l 1,8,-1
147 97 m 1,12,-1
 50 97 l 1,13,-1
 50 583 l 1,14,-1
 147 583 l 1,15,-1
 147 97 l 1,12,-1
317 729 m 1,16,-1
 269 729 l 1,17,-1
 269 777 l 1,18,-1
 317 777 l 1,19,-1
 317 729 l 1,16,-1
366 777 m 1,20,-1
 317 777 l 1,21,-1
 317 826 l 1,22,-1
 366 826 l 1,23,-1
 366 777 l 1,20,-1
414 826 m 1,24,-1
 366 826 l 1,25,-1
 366 874 l 1,26,-1
 414 874 l 1,27,-1
 414 826 l 1,24,-1
EndSplineSet
EndChar

StartChar: Ocircumflex
Encoding: 212 212 148
Width: 586
GlyphClass: 1
Flags: W
LayerCount: 2
Fore
SplineSet
439 583 m 1,0,-1
 147 583 l 1,1,-1
 147 680 l 1,2,-1
 439 680 l 1,3,-1
 439 583 l 1,0,-1
439 0 m 1,4,-1
 147 0 l 1,5,-1
 147 97 l 1,6,-1
 439 97 l 1,7,-1
 439 0 l 1,4,-1
536 97 m 1,8,-1
 439 97 l 1,9,-1
 439 583 l 1,10,-1
 536 583 l 1,11,-1
 536 97 l 1,8,-1
147 97 m 1,12,-1
 50 97 l 1,13,-1
 50 583 l 1,14,-1
 147 583 l 1,15,-1
 147 97 l 1,12,-1
220 729 m 1,16,-1
 171 729 l 1,17,-1
 171 777 l 1,18,-1
 220 777 l 1,19,-1
 220 729 l 1,16,-1
269 777 m 1,20,-1
 220 777 l 1,21,-1
 220 826 l 1,22,-1
 269 826 l 1,23,-1
 269 777 l 1,20,-1
317 826 m 1,24,-1
 269 826 l 1,25,-1
 269 874 l 1,26,-1
 317 874 l 1,27,-1
 317 826 l 1,24,-1
414 729 m 1,28,-1
 366 729 l 1,29,-1
 366 777 l 1,30,-1
 414 777 l 1,31,-1
 414 729 l 1,28,-1
366 777 m 1,32,-1
 317 777 l 1,33,-1
 317 826 l 1,34,-1
 366 826 l 1,35,-1
 366 777 l 1,32,-1
EndSplineSet
EndChar

StartChar: Otilde
Encoding: 213 213 149
Width: 586
GlyphClass: 1
Flags: W
LayerCount: 2
Fore
SplineSet
439 583 m 1,0,-1
 147 583 l 1,1,-1
 147 680 l 1,2,-1
 439 680 l 1,3,-1
 439 583 l 1,0,-1
439 0 m 1,4,-1
 147 0 l 1,5,-1
 147 97 l 1,6,-1
 439 97 l 1,7,-1
 439 0 l 1,4,-1
536 97 m 1,8,-1
 439 97 l 1,9,-1
 439 583 l 1,10,-1
 536 583 l 1,11,-1
 536 97 l 1,8,-1
147 97 m 1,12,-1
 50 97 l 1,13,-1
 50 583 l 1,14,-1
 147 583 l 1,15,-1
 147 97 l 1,12,-1
414 777 m 1,16,-1
 366 777 l 1,17,-1
 366 826 l 1,18,-1
 414 826 l 1,19,-1
 414 777 l 1,16,-1
220 777 m 1,20,-1
 171 777 l 1,21,-1
 171 826 l 1,22,-1
 220 826 l 1,23,-1
 220 777 l 1,20,-1
269 826 m 1,24,-1
 220 826 l 1,25,-1
 220 874 l 1,26,-1
 269 874 l 1,27,-1
 269 826 l 1,24,-1
366 729 m 1,28,-1
 317 729 l 1,29,-1
 317 777 l 1,30,-1
 366 777 l 1,31,-1
 366 729 l 1,28,-1
317 777 m 1,32,-1
 269 777 l 1,33,-1
 269 826 l 1,34,-1
 317 826 l 1,35,-1
 317 777 l 1,32,-1
EndSplineSet
EndChar

StartChar: Odieresis
Encoding: 214 214 150
Width: 586
GlyphClass: 1
Flags: W
LayerCount: 2
Fore
SplineSet
439 583 m 1,0,-1
 147 583 l 1,1,-1
 147 680 l 1,2,-1
 439 680 l 1,3,-1
 439 583 l 1,0,-1
439 0 m 1,4,-1
 147 0 l 1,5,-1
 147 97 l 1,6,-1
 439 97 l 1,7,-1
 439 0 l 1,4,-1
536 97 m 1,8,-1
 439 97 l 1,9,-1
 439 583 l 1,10,-1
 536 583 l 1,11,-1
 536 97 l 1,8,-1
147 97 m 1,12,-1
 50 97 l 1,13,-1
 50 583 l 1,14,-1
 147 583 l 1,15,-1
 147 97 l 1,12,-1
366 777 m 1,16,-1
 317 777 l 1,17,-1
 317 826 l 1,18,-1
 366 826 l 1,19,-1
 366 777 l 1,16,-1
269 777 m 1,20,-1
 220 777 l 1,21,-1
 220 826 l 1,22,-1
 269 826 l 1,23,-1
 269 777 l 1,20,-1
EndSplineSet
EndChar

StartChar: multiply
Encoding: 215 215 151
Width: 586
GlyphClass: 1
Flags: W
LayerCount: 2
Fore
SplineSet
341 291 m 1,0,-1
 244 291 l 1,1,-1
 244 389 l 1,2,-1
 341 389 l 1,3,-1
 341 291 l 1,0,-1
244 389 m 1,4,-1
 147 389 l 1,5,-1
 147 486 l 1,6,-1
 244 486 l 1,7,-1
 244 389 l 1,4,-1
439 389 m 1,8,-1
 341 389 l 1,9,-1
 341 486 l 1,10,-1
 439 486 l 1,11,-1
 439 389 l 1,8,-1
147 486 m 1,12,-1
 50 486 l 1,13,-1
 50 583 l 1,14,-1
 147 583 l 1,15,-1
 147 486 l 1,12,-1
536 486 m 1,16,-1
 439 486 l 1,17,-1
 439 583 l 1,18,-1
 536 583 l 1,19,-1
 536 486 l 1,16,-1
439 194 m 1,20,-1
 341 194 l 1,21,-1
 341 291 l 1,22,-1
 439 291 l 1,23,-1
 439 194 l 1,20,-1
244 194 m 1,24,-1
 147 194 l 1,25,-1
 147 291 l 1,26,-1
 244 291 l 1,27,-1
 244 194 l 1,24,-1
536 97 m 1,28,-1
 439 97 l 1,29,-1
 439 194 l 1,30,-1
 536 194 l 1,31,-1
 536 97 l 1,28,-1
147 97 m 1,32,-1
 50 97 l 1,33,-1
 50 194 l 1,34,-1
 147 194 l 1,35,-1
 147 97 l 1,32,-1
EndSplineSet
EndChar

StartChar: Oslash
Encoding: 216 216 152
Width: 586
GlyphClass: 1
Flags: W
LayerCount: 2
Fore
SplineSet
536 97 m 1,0,-1
 439 97 l 1,1,-1
 439 534 l 1,2,-1
 414 534 l 1,3,-1
 414 583 l 1,4,-1
 147 583 l 1,5,-1
 147 680 l 1,6,-1
 439 680 l 1,7,-1
 439 583 l 1,8,-1
 463 583 l 1,9,-1
 463 534 l 1,10,-1
 536 534 l 1,11,-1
 536 97 l 1,0,-1
317 291 m 1,12,-1
 269 291 l 1,13,-1
 269 389 l 1,14,-1
 317 389 l 1,15,-1
 317 291 l 1,12,-1
414 437 m 1,16,-1
 366 437 l 1,17,-1
 366 534 l 1,18,-1
 414 534 l 1,19,-1
 414 437 l 1,16,-1
512 583 m 1,20,-1
 463 583 l 1,21,-1
 463 680 l 1,22,-1
 512 680 l 1,23,-1
 512 583 l 1,20,-1
366 389 m 1,24,-1
 317 389 l 1,25,-1
 317 437 l 1,26,-1
 366 437 l 1,27,-1
 366 389 l 1,24,-1
220 146 m 1,28,-1
 171 146 l 1,29,-1
 171 243 l 1,30,-1
 220 243 l 1,31,-1
 220 146 l 1,28,-1
123 0 m 1,32,-1
 74 0 l 1,33,-1
 74 97 l 1,34,-1
 123 97 l 1,35,-1
 123 0 l 1,32,-1
269 243 m 1,36,-1
 220 243 l 1,37,-1
 220 291 l 1,38,-1
 269 291 l 1,39,-1
 269 243 l 1,36,-1
439 0 m 1,40,-1
 147 0 l 1,41,-1
 147 97 l 1,42,-1
 123 97 l 1,43,-1
 123 146 l 1,44,-1
 50 146 l 1,45,-1
 50 583 l 1,46,-1
 147 583 l 1,47,-1
 147 146 l 1,48,-1
 171 146 l 1,49,-1
 171 97 l 1,50,-1
 439 97 l 1,51,-1
 439 0 l 1,40,-1
EndSplineSet
EndChar

StartChar: Ugrave
Encoding: 217 217 153
Width: 1501
GlyphClass: 1
Flags: W
LayerCount: 2
Fore
SplineSet
439 0 m 1,0,-1
 147 0 l 1,1,-1
 147 97 l 1,2,-1
 439 97 l 1,3,-1
 439 0 l 1,0,-1
536 97 m 1,4,-1
 439 97 l 1,5,-1
 439 680 l 1,6,-1
 536 680 l 1,7,-1
 536 97 l 1,4,-1
147 97 m 1,8,-1
 50 97 l 1,9,-1
 50 680 l 1,10,-1
 147 680 l 1,11,-1
 147 97 l 1,8,-1
317 729 m 1,12,-1
 269 729 l 1,13,-1
 269 777 l 1,14,-1
 317 777 l 1,15,-1
 317 729 l 1,12,-1
269 777 m 1,16,-1
 220 777 l 1,17,-1
 220 826 l 1,18,-1
 269 826 l 1,19,-1
 269 777 l 1,16,-1
220 826 m 1,20,-1
 171 826 l 1,21,-1
 171 874 l 1,22,-1
 220 874 l 1,23,-1
 220 826 l 1,20,-1
EndSplineSet
EndChar

StartChar: Uacute
Encoding: 218 218 154
Width: 586
GlyphClass: 1
Flags: W
LayerCount: 2
Fore
SplineSet
439 0 m 1,0,-1
 147 0 l 1,1,-1
 147 97 l 1,2,-1
 439 97 l 1,3,-1
 439 0 l 1,0,-1
536 97 m 1,4,-1
 439 97 l 1,5,-1
 439 680 l 1,6,-1
 536 680 l 1,7,-1
 536 97 l 1,4,-1
147 97 m 1,8,-1
 50 97 l 1,9,-1
 50 680 l 1,10,-1
 147 680 l 1,11,-1
 147 97 l 1,8,-1
317 729 m 1,12,-1
 269 729 l 1,13,-1
 269 777 l 1,14,-1
 317 777 l 1,15,-1
 317 729 l 1,12,-1
366 777 m 1,16,-1
 317 777 l 1,17,-1
 317 826 l 1,18,-1
 366 826 l 1,19,-1
 366 777 l 1,16,-1
414 826 m 1,20,-1
 366 826 l 1,21,-1
 366 874 l 1,22,-1
 414 874 l 1,23,-1
 414 826 l 1,20,-1
EndSplineSet
EndChar

StartChar: Ucircumflex
Encoding: 219 219 155
Width: 586
GlyphClass: 1
Flags: W
LayerCount: 2
Fore
SplineSet
439 0 m 1,0,-1
 147 0 l 1,1,-1
 147 97 l 1,2,-1
 439 97 l 1,3,-1
 439 0 l 1,0,-1
536 97 m 1,4,-1
 439 97 l 1,5,-1
 439 680 l 1,6,-1
 536 680 l 1,7,-1
 536 97 l 1,4,-1
147 97 m 1,8,-1
 50 97 l 1,9,-1
 50 680 l 1,10,-1
 147 680 l 1,11,-1
 147 97 l 1,8,-1
220 729 m 1,12,-1
 171 729 l 1,13,-1
 171 777 l 1,14,-1
 220 777 l 1,15,-1
 220 729 l 1,12,-1
269 777 m 1,16,-1
 220 777 l 1,17,-1
 220 826 l 1,18,-1
 269 826 l 1,19,-1
 269 777 l 1,16,-1
317 826 m 1,20,-1
 269 826 l 1,21,-1
 269 874 l 1,22,-1
 317 874 l 1,23,-1
 317 826 l 1,20,-1
414 729 m 1,24,-1
 366 729 l 1,25,-1
 366 777 l 1,26,-1
 414 777 l 1,27,-1
 414 729 l 1,24,-1
366 777 m 1,28,-1
 317 777 l 1,29,-1
 317 826 l 1,30,-1
 366 826 l 1,31,-1
 366 777 l 1,28,-1
EndSplineSet
EndChar

StartChar: Udieresis
Encoding: 220 220 156
Width: 586
GlyphClass: 1
Flags: W
LayerCount: 2
Fore
SplineSet
439 0 m 1,0,-1
 147 0 l 1,1,-1
 147 97 l 1,2,-1
 439 97 l 1,3,-1
 439 0 l 1,0,-1
536 97 m 1,4,-1
 439 97 l 1,5,-1
 439 680 l 1,6,-1
 536 680 l 1,7,-1
 536 97 l 1,4,-1
147 97 m 1,8,-1
 50 97 l 1,9,-1
 50 680 l 1,10,-1
 147 680 l 1,11,-1
 147 97 l 1,8,-1
366 777 m 1,12,-1
 317 777 l 1,13,-1
 317 826 l 1,14,-1
 366 826 l 1,15,-1
 366 777 l 1,12,-1
269 777 m 1,16,-1
 220 777 l 1,17,-1
 220 826 l 1,18,-1
 269 826 l 1,19,-1
 269 777 l 1,16,-1
EndSplineSet
EndChar

StartChar: Yacute
Encoding: 221 221 157
Width: 586
GlyphClass: 1
Flags: W
LayerCount: 2
Fore
SplineSet
341 0 m 1,0,-1
 244 0 l 1,1,-1
 244 291 l 1,2,-1
 341 291 l 1,3,-1
 341 0 l 1,0,-1
244 291 m 1,4,-1
 147 291 l 1,5,-1
 147 389 l 1,6,-1
 244 389 l 1,7,-1
 244 291 l 1,4,-1
439 291 m 1,8,-1
 341 291 l 1,9,-1
 341 389 l 1,10,-1
 439 389 l 1,11,-1
 439 291 l 1,8,-1
147 389 m 1,12,-1
 50 389 l 1,13,-1
 50 680 l 1,14,-1
 147 680 l 1,15,-1
 147 389 l 1,12,-1
536 389 m 1,16,-1
 439 389 l 1,17,-1
 439 680 l 1,18,-1
 536 680 l 1,19,-1
 536 389 l 1,16,-1
317 729 m 1,20,-1
 269 729 l 1,21,-1
 269 777 l 1,22,-1
 317 777 l 1,23,-1
 317 729 l 1,20,-1
366 777 m 1,24,-1
 317 777 l 1,25,-1
 317 826 l 1,26,-1
 366 826 l 1,27,-1
 366 777 l 1,24,-1
414 826 m 1,28,-1
 366 826 l 1,29,-1
 366 874 l 1,30,-1
 414 874 l 1,31,-1
 414 826 l 1,28,-1
EndSplineSet
EndChar

StartChar: Thorn
Encoding: 222 222 158
Width: 586
GlyphClass: 1
Flags: W
LayerCount: 2
Fore
SplineSet
147 0 m 1,0,-1
 50 0 l 1,1,-1
 50 680 l 1,2,-1
 147 680 l 1,3,-1
 147 583 l 1,4,-1
 439 583 l 1,5,-1
 439 486 l 1,6,-1
 147 486 l 1,7,-1
 147 194 l 1,8,-1
 439 194 l 1,9,-1
 439 97 l 1,10,-1
 147 97 l 1,11,-1
 147 0 l 1,0,-1
536 194 m 1,12,-1
 439 194 l 1,13,-1
 439 486 l 1,14,-1
 536 486 l 1,15,-1
 536 194 l 1,12,-1
EndSplineSet
EndChar

StartChar: germandbls
Encoding: 223 223 159
Width: 586
GlyphClass: 1
Flags: W
LayerCount: 2
Fore
SplineSet
341 583 m 1,0,-1
 147 583 l 1,1,-1
 147 680 l 1,2,-1
 341 680 l 1,3,-1
 341 583 l 1,0,-1
439 0 m 1,4,-1
 244 0 l 1,5,-1
 244 97 l 1,6,-1
 439 97 l 1,7,-1
 439 0 l 1,4,-1
341 389 m 1,8,-1
 244 389 l 1,9,-1
 244 486 l 1,10,-1
 341 486 l 1,11,-1
 341 389 l 1,8,-1
439 291 m 1,12,-1
 341 291 l 1,13,-1
 341 389 l 1,14,-1
 439 389 l 1,15,-1
 439 291 l 1,12,-1
536 97 m 1,16,-1
 439 97 l 1,17,-1
 439 291 l 1,18,-1
 536 291 l 1,19,-1
 536 97 l 1,16,-1
439 486 m 1,20,-1
 341 486 l 1,21,-1
 341 583 l 1,22,-1
 439 583 l 1,23,-1
 439 486 l 1,20,-1
147 0 m 1,24,-1
 50 0 l 1,25,-1
 50 583 l 1,26,-1
 147 583 l 1,27,-1
 147 0 l 1,24,-1
EndSplineSet
EndChar

StartChar: agrave
Encoding: 224 224 160
Width: 586
GlyphClass: 1
Flags: W
LayerCount: 2
Fore
SplineSet
317 534 m 1,0,-1
 269 534 l 1,1,-1
 269 583 l 1,2,-1
 317 583 l 1,3,-1
 317 534 l 1,0,-1
269 583 m 1,4,-1
 220 583 l 1,5,-1
 220 632 l 1,6,-1
 269 632 l 1,7,-1
 269 583 l 1,4,-1
220 632 m 1,8,-1
 171 632 l 1,9,-1
 171 680 l 1,10,-1
 220 680 l 1,11,-1
 220 632 l 1,8,-1
147 97 m 1,12,-1
 50 97 l 1,13,-1
 50 194 l 1,14,-1
 147 194 l 1,15,-1
 147 97 l 1,12,-1
439 389 m 1,16,-1
 50 389 l 1,17,-1
 50 486 l 1,18,-1
 439 486 l 1,19,-1
 439 389 l 1,16,-1
536 0 m 1,20,-1
 147 0 l 1,21,-1
 147 97 l 1,22,-1
 439 97 l 1,23,-1
 439 194 l 1,24,-1
 147 194 l 1,25,-1
 147 291 l 1,26,-1
 439 291 l 1,27,-1
 439 389 l 1,28,-1
 536 389 l 1,29,-1
 536 0 l 1,20,-1
EndSplineSet
EndChar

StartChar: aacute
Encoding: 225 225 161
Width: 586
GlyphClass: 1
Flags: W
LayerCount: 2
Fore
SplineSet
317 534 m 1,0,-1
 269 534 l 1,1,-1
 269 583 l 1,2,-1
 317 583 l 1,3,-1
 317 534 l 1,0,-1
366 583 m 1,4,-1
 317 583 l 1,5,-1
 317 632 l 1,6,-1
 366 632 l 1,7,-1
 366 583 l 1,4,-1
414 632 m 1,8,-1
 366 632 l 1,9,-1
 366 680 l 1,10,-1
 414 680 l 1,11,-1
 414 632 l 1,8,-1
147 97 m 1,12,-1
 50 97 l 1,13,-1
 50 194 l 1,14,-1
 147 194 l 1,15,-1
 147 97 l 1,12,-1
439 389 m 1,16,-1
 50 389 l 1,17,-1
 50 486 l 1,18,-1
 439 486 l 1,19,-1
 439 389 l 1,16,-1
536 0 m 1,20,-1
 147 0 l 1,21,-1
 147 97 l 1,22,-1
 439 97 l 1,23,-1
 439 194 l 1,24,-1
 147 194 l 1,25,-1
 147 291 l 1,26,-1
 439 291 l 1,27,-1
 439 389 l 1,28,-1
 536 389 l 1,29,-1
 536 0 l 1,20,-1
EndSplineSet
EndChar

StartChar: acircumflex
Encoding: 226 226 162
Width: 586
GlyphClass: 1
Flags: W
LayerCount: 2
Fore
SplineSet
220 534 m 1,0,-1
 172 534 l 1,1,-1
 172 583 l 1,2,-1
 220 583 l 1,3,-1
 220 534 l 1,0,-1
269 583 m 1,4,-1
 220 583 l 1,5,-1
 220 632 l 1,6,-1
 269 632 l 1,7,-1
 269 583 l 1,4,-1
317 632 m 1,8,-1
 269 632 l 1,9,-1
 269 680 l 1,10,-1
 317 680 l 1,11,-1
 317 632 l 1,8,-1
415 534 m 1,12,-1
 366 534 l 1,13,-1
 366 583 l 1,14,-1
 415 583 l 1,15,-1
 415 534 l 1,12,-1
366 583 m 1,16,-1
 317 583 l 1,17,-1
 317 632 l 1,18,-1
 366 632 l 1,19,-1
 366 583 l 1,16,-1
147 97 m 1,20,-1
 50 97 l 1,21,-1
 50 194 l 1,22,-1
 147 194 l 1,23,-1
 147 97 l 1,20,-1
439 389 m 1,24,-1
 50 389 l 1,25,-1
 50 486 l 1,26,-1
 439 486 l 1,27,-1
 439 389 l 1,24,-1
536 0 m 1,28,-1
 147 0 l 1,29,-1
 147 97 l 1,30,-1
 439 97 l 1,31,-1
 439 194 l 1,32,-1
 147 194 l 1,33,-1
 147 291 l 1,34,-1
 439 291 l 1,35,-1
 439 389 l 1,36,-1
 536 389 l 1,37,-1
 536 0 l 1,28,-1
EndSplineSet
EndChar

StartChar: atilde
Encoding: 227 227 163
Width: 586
GlyphClass: 1
Flags: W
LayerCount: 2
Fore
SplineSet
415 583 m 1,0,-1
 366 583 l 1,1,-1
 366 632 l 1,2,-1
 415 632 l 1,3,-1
 415 583 l 1,0,-1
220 583 m 1,4,-1
 172 583 l 1,5,-1
 172 632 l 1,6,-1
 220 632 l 1,7,-1
 220 583 l 1,4,-1
269 632 m 1,8,-1
 220 632 l 1,9,-1
 220 680 l 1,10,-1
 269 680 l 1,11,-1
 269 632 l 1,8,-1
366 534 m 1,12,-1
 317 534 l 1,13,-1
 317 583 l 1,14,-1
 366 583 l 1,15,-1
 366 534 l 1,12,-1
317 583 m 1,16,-1
 269 583 l 1,17,-1
 269 632 l 1,18,-1
 317 632 l 1,19,-1
 317 583 l 1,16,-1
147 97 m 1,20,-1
 50 97 l 1,21,-1
 50 194 l 1,22,-1
 147 194 l 1,23,-1
 147 97 l 1,20,-1
439 389 m 1,24,-1
 50 389 l 1,25,-1
 50 486 l 1,26,-1
 439 486 l 1,27,-1
 439 389 l 1,24,-1
536 0 m 1,28,-1
 147 0 l 1,29,-1
 147 97 l 1,30,-1
 439 97 l 1,31,-1
 439 194 l 1,32,-1
 147 194 l 1,33,-1
 147 291 l 1,34,-1
 439 291 l 1,35,-1
 439 389 l 1,36,-1
 536 389 l 1,37,-1
 536 0 l 1,28,-1
EndSplineSet
EndChar

StartChar: adieresis
Encoding: 228 228 164
Width: 586
GlyphClass: 1
Flags: W
LayerCount: 2
Fore
SplineSet
366 583 m 1,0,-1
 318 583 l 1,1,-1
 318 632 l 1,2,-1
 366 632 l 1,3,-1
 366 583 l 1,0,-1
269 583 m 1,4,-1
 220 583 l 1,5,-1
 220 632 l 1,6,-1
 269 632 l 1,7,-1
 269 583 l 1,4,-1
147 97 m 1,8,-1
 50 97 l 1,9,-1
 50 194 l 1,10,-1
 147 194 l 1,11,-1
 147 97 l 1,8,-1
439 389 m 1,12,-1
 50 389 l 1,13,-1
 50 486 l 1,14,-1
 439 486 l 1,15,-1
 439 389 l 1,12,-1
536 0 m 1,16,-1
 147 0 l 1,17,-1
 147 97 l 1,18,-1
 439 97 l 1,19,-1
 439 194 l 1,20,-1
 147 194 l 1,21,-1
 147 291 l 1,22,-1
 439 291 l 1,23,-1
 439 389 l 1,24,-1
 536 389 l 1,25,-1
 536 0 l 1,16,-1
EndSplineSet
EndChar

StartChar: aring
Encoding: 229 229 165
Width: 586
GlyphClass: 1
Flags: W
LayerCount: 2
Fore
SplineSet
269 656 m 1,0,-1
 269 559 l 1,1,-1
 220 559 l 1,2,-1
 220 656 l 1,3,-1
 269 656 l 1,0,-1
318 656 m 1,4,-1
 269 656 l 1,5,-1
 269 704 l 1,6,-1
 318 704 l 1,7,-1
 318 656 l 1,4,-1
536 0 m 1,8,-1
 148 0 l 1,9,-1
 148 97 l 1,10,-1
 439 97 l 1,11,-1
 439 194 l 1,12,-1
 148 194 l 1,13,-1
 148 291 l 1,14,-1
 439 291 l 1,15,-1
 439 389 l 1,16,-1
 536 389 l 1,17,-1
 536 0 l 1,8,-1
318 510 m 1,18,-1
 269 510 l 1,19,-1
 269 559 l 1,20,-1
 318 559 l 1,21,-1
 318 510 l 1,18,-1
366 559 m 1,22,-1
 318 559 l 1,23,-1
 318 656 l 1,24,-1
 366 656 l 1,25,-1
 366 559 l 1,22,-1
148 97 m 1,26,-1
 50 97 l 1,27,-1
 50 194 l 1,28,-1
 148 194 l 1,29,-1
 148 97 l 1,26,-1
439 389 m 1,30,-1
 50 389 l 1,31,-1
 50 486 l 1,32,-1
 439 486 l 1,33,-1
 439 389 l 1,30,-1
EndSplineSet
EndChar

StartChar: ae
Encoding: 230 230 166
Width: 974
GlyphClass: 1
Flags: W
LayerCount: 2
Fore
SplineSet
439 194 m 1,0,-1
 147 194 l 1,1,-1
 147 291 l 1,2,-1
 439 291 l 1,3,-1
 439 389 l 1,4,-1
 536 389 l 1,5,-1
 536 291 l 1,6,-1
 827 291 l 1,7,-1
 827 389 l 1,8,-1
 924 389 l 1,9,-1
 924 194 l 1,10,-1
 536 194 l 1,11,-1
 536 97 l 1,12,-1
 439 97 l 1,13,-1
 439 194 l 1,0,-1
827 389 m 1,14,-1
 536 389 l 1,15,-1
 536 486 l 1,16,-1
 827 486 l 1,17,-1
 827 389 l 1,14,-1
827 0 m 1,18,-1
 536 0 l 1,19,-1
 536 97 l 1,20,-1
 827 97 l 1,21,-1
 827 0 l 1,18,-1
147 97 m 1,22,-1
 50 97 l 1,23,-1
 50 194 l 1,24,-1
 147 194 l 1,25,-1
 147 97 l 1,22,-1
439 389 m 1,26,-1
 50 389 l 1,27,-1
 50 486 l 1,28,-1
 439 486 l 1,29,-1
 439 389 l 1,26,-1
439 0 m 1,30,-1
 147 0 l 1,31,-1
 147 97 l 1,32,-1
 439 97 l 1,33,-1
 439 0 l 1,30,-1
EndSplineSet
EndChar

StartChar: ccedilla
Encoding: 231 231 167
Width: 586
GlyphClass: 1
Flags: W
LayerCount: 2
Fore
SplineSet
366 -146 m 1,0,-1
 317 -146 l 1,1,-1
 317 -48 l 1,2,-1
 366 -48 l 1,3,-1
 366 -146 l 1,0,-1
439 389 m 1,4,-1
 147 389 l 1,5,-1
 147 486 l 1,6,-1
 439 486 l 1,7,-1
 439 389 l 1,4,-1
317 -48 m 1,8,-1
 269 -48 l 1,9,-1
 269 0 l 1,10,-1
 147 0 l 1,11,-1
 147 97 l 1,12,-1
 439 97 l 1,13,-1
 439 0 l 1,14,-1
 317 0 l 1,15,-1
 317 -48 l 1,8,-1
536 292 m 1,16,-1
 439 292 l 1,17,-1
 439 389 l 1,18,-1
 536 389 l 1,19,-1
 536 292 l 1,16,-1
147 97 m 1,20,-1
 50 97 l 1,21,-1
 50 389 l 1,22,-1
 147 389 l 1,23,-1
 147 97 l 1,20,-1
536 97 m 1,24,-1
 439 97 l 1,25,-1
 439 195 l 1,26,-1
 536 195 l 1,27,-1
 536 97 l 1,24,-1
317 -194 m 1,28,-1
 269 -194 l 1,29,-1
 269 -146 l 1,30,-1
 317 -146 l 1,31,-1
 317 -194 l 1,28,-1
269 -146 m 1,32,-1
 220 -146 l 1,33,-1
 220 -97 l 1,34,-1
 269 -97 l 1,35,-1
 269 -146 l 1,32,-1
EndSplineSet
EndChar

StartChar: egrave
Encoding: 232 232 168
Width: 586
GlyphClass: 1
Flags: W
LayerCount: 2
Fore
SplineSet
220 632 m 1,0,-1
 171 632 l 1,1,-1
 171 680 l 1,2,-1
 220 680 l 1,3,-1
 220 632 l 1,0,-1
147 97 m 1,4,-1
 50 97 l 1,5,-1
 50 389 l 1,6,-1
 147 389 l 1,7,-1
 147 291 l 1,8,-1
 439 291 l 1,9,-1
 439 389 l 1,10,-1
 536 389 l 1,11,-1
 536 194 l 1,12,-1
 147 194 l 1,13,-1
 147 97 l 1,4,-1
439 389 m 1,14,-1
 147 389 l 1,15,-1
 147 486 l 1,16,-1
 439 486 l 1,17,-1
 439 389 l 1,14,-1
439 0 m 1,18,-1
 147 0 l 1,19,-1
 147 97 l 1,20,-1
 439 97 l 1,21,-1
 439 0 l 1,18,-1
317 534 m 1,22,-1
 269 534 l 1,23,-1
 269 583 l 1,24,-1
 317 583 l 1,25,-1
 317 534 l 1,22,-1
269 583 m 1,26,-1
 220 583 l 1,27,-1
 220 632 l 1,28,-1
 269 632 l 1,29,-1
 269 583 l 1,26,-1
EndSplineSet
EndChar

StartChar: eacute
Encoding: 233 233 169
Width: 909
GlyphClass: 1
Flags: W
LayerCount: 2
Fore
SplineSet
414 632 m 1,0,-1
 366 632 l 1,1,-1
 366 680 l 1,2,-1
 414 680 l 1,3,-1
 414 632 l 1,0,-1
317 534 m 1,4,-1
 268 534 l 1,5,-1
 268 583 l 1,6,-1
 317 583 l 1,7,-1
 317 534 l 1,4,-1
366 583 m 1,8,-1
 317 583 l 1,9,-1
 317 632 l 1,10,-1
 366 632 l 1,11,-1
 366 583 l 1,8,-1
147 97 m 1,12,-1
 50 97 l 1,13,-1
 50 389 l 1,14,-1
 147 389 l 1,15,-1
 147 291 l 1,16,-1
 439 291 l 1,17,-1
 439 389 l 1,18,-1
 536 389 l 1,19,-1
 536 194 l 1,20,-1
 147 194 l 1,21,-1
 147 97 l 1,12,-1
439 389 m 1,22,-1
 147 389 l 1,23,-1
 147 486 l 1,24,-1
 439 486 l 1,25,-1
 439 389 l 1,22,-1
439 0 m 1,26,-1
 147 0 l 1,27,-1
 147 97 l 1,28,-1
 439 97 l 1,29,-1
 439 0 l 1,26,-1
EndSplineSet
EndChar

StartChar: ecircumflex
Encoding: 234 234 170
Width: 586
GlyphClass: 1
Flags: W
LayerCount: 2
Fore
SplineSet
220 534 m 1,0,-1
 171 534 l 1,1,-1
 171 583 l 1,2,-1
 220 583 l 1,3,-1
 220 534 l 1,0,-1
268 583 m 1,4,-1
 220 583 l 1,5,-1
 220 632 l 1,6,-1
 268 632 l 1,7,-1
 268 583 l 1,4,-1
317 632 m 1,8,-1
 268 632 l 1,9,-1
 268 680 l 1,10,-1
 317 680 l 1,11,-1
 317 632 l 1,8,-1
414 534 m 1,12,-1
 366 534 l 1,13,-1
 366 583 l 1,14,-1
 414 583 l 1,15,-1
 414 534 l 1,12,-1
366 583 m 1,16,-1
 317 583 l 1,17,-1
 317 632 l 1,18,-1
 366 632 l 1,19,-1
 366 583 l 1,16,-1
147 97 m 1,20,-1
 50 97 l 1,21,-1
 50 389 l 1,22,-1
 147 389 l 1,23,-1
 147 291 l 1,24,-1
 438 291 l 1,25,-1
 438 389 l 1,26,-1
 536 389 l 1,27,-1
 536 194 l 1,28,-1
 147 194 l 1,29,-1
 147 97 l 1,20,-1
438 389 m 1,30,-1
 147 389 l 1,31,-1
 147 486 l 1,32,-1
 438 486 l 1,33,-1
 438 389 l 1,30,-1
438 0 m 1,34,-1
 147 0 l 1,35,-1
 147 97 l 1,36,-1
 438 97 l 1,37,-1
 438 0 l 1,34,-1
EndSplineSet
EndChar

StartChar: edieresis
Encoding: 235 235 171
Width: 585
GlyphClass: 1
Flags: W
LayerCount: 2
Fore
SplineSet
365 583 m 1,0,-1
 317 583 l 1,1,-1
 317 632 l 1,2,-1
 365 632 l 1,3,-1
 365 583 l 1,0,-1
268 583 m 1,4,-1
 220 583 l 1,5,-1
 220 632 l 1,6,-1
 268 632 l 1,7,-1
 268 583 l 1,4,-1
147 97 m 1,8,-1
 50 97 l 1,9,-1
 50 389 l 1,10,-1
 147 389 l 1,11,-1
 147 291 l 1,12,-1
 438 291 l 1,13,-1
 438 389 l 1,14,-1
 535 389 l 1,15,-1
 535 194 l 1,16,-1
 147 194 l 1,17,-1
 147 97 l 1,8,-1
438 389 m 1,18,-1
 147 389 l 1,19,-1
 147 486 l 1,20,-1
 438 486 l 1,21,-1
 438 389 l 1,18,-1
438 0 m 1,22,-1
 147 0 l 1,23,-1
 147 97 l 1,24,-1
 438 97 l 1,25,-1
 438 0 l 1,22,-1
EndSplineSet
EndChar

StartChar: igrave
Encoding: 236 236 172
Width: 197
GlyphClass: 1
Flags: W
LayerCount: 2
Fore
SplineSet
147 0 m 1,0,-1
 50 0 l 1,1,-1
 50 486 l 1,2,-1
 147 486 l 1,3,-1
 147 0 l 1,0,-1
49 632 m 1,4,-1
 0 632 l 1,5,-1
 0 680 l 1,6,-1
 49 680 l 1,7,-1
 49 632 l 1,4,-1
146 534 m 1,8,-1
 98 534 l 1,9,-1
 98 583 l 1,10,-1
 146 583 l 1,11,-1
 146 534 l 1,8,-1
98 583 m 1,12,-1
 49 583 l 1,13,-1
 49 632 l 1,14,-1
 98 632 l 1,15,-1
 98 583 l 1,12,-1
EndSplineSet
EndChar

StartChar: iacute
Encoding: 237 237 173
Width: 196
GlyphClass: 1
Flags: W
LayerCount: 2
Fore
SplineSet
147 0 m 1,0,-1
 50 0 l 1,1,-1
 50 486 l 1,2,-1
 147 486 l 1,3,-1
 147 0 l 1,0,-1
196 632 m 1,4,-1
 148 632 l 1,5,-1
 148 680 l 1,6,-1
 196 680 l 1,7,-1
 196 632 l 1,4,-1
99 534 m 1,8,-1
 50 534 l 1,9,-1
 50 583 l 1,10,-1
 99 583 l 1,11,-1
 99 534 l 1,8,-1
148 583 m 1,12,-1
 99 583 l 1,13,-1
 99 632 l 1,14,-1
 148 632 l 1,15,-1
 148 583 l 1,12,-1
EndSplineSet
EndChar

StartChar: icircumflex
Encoding: 238 238 174
Width: 197
GlyphClass: 1
Flags: W
LayerCount: 2
Fore
SplineSet
147 0 m 1,0,-1
 50 0 l 1,1,-1
 50 486 l 1,2,-1
 147 486 l 1,3,-1
 147 0 l 1,0,-1
26 534 m 1,4,-1
 -23 534 l 1,5,-1
 -23 583 l 1,6,-1
 26 583 l 1,7,-1
 26 534 l 1,4,-1
74 583 m 1,8,-1
 26 583 l 1,9,-1
 26 632 l 1,10,-1
 74 632 l 1,11,-1
 74 583 l 1,8,-1
123 632 m 1,12,-1
 74 632 l 1,13,-1
 74 680 l 1,14,-1
 123 680 l 1,15,-1
 123 632 l 1,12,-1
220 534 m 1,16,-1
 172 534 l 1,17,-1
 172 583 l 1,18,-1
 220 583 l 1,19,-1
 220 534 l 1,16,-1
172 583 m 1,20,-1
 123 583 l 1,21,-1
 123 632 l 1,22,-1
 172 632 l 1,23,-1
 172 583 l 1,20,-1
EndSplineSet
EndChar

StartChar: idieresis
Encoding: 239 239 175
Width: 197
GlyphClass: 1
Flags: W
LayerCount: 2
Fore
SplineSet
147 0 m 1,0,-1
 50 0 l 1,1,-1
 50 486 l 1,2,-1
 147 486 l 1,3,-1
 147 0 l 1,0,-1
171 583 m 1,4,-1
 123 583 l 1,5,-1
 123 632 l 1,6,-1
 171 632 l 1,7,-1
 171 583 l 1,4,-1
74 583 m 1,8,-1
 26 583 l 1,9,-1
 26 632 l 1,10,-1
 74 632 l 1,11,-1
 74 583 l 1,8,-1
EndSplineSet
EndChar

StartChar: eth
Encoding: 240 240 176
Width: 683
GlyphClass: 1
Flags: W
LayerCount: 2
Fore
SplineSet
147 97 m 1,0,-1
 50 97 l 1,1,-1
 50 389 l 1,2,-1
 147 389 l 1,3,-1
 147 97 l 1,0,-1
536 0 m 1,4,-1
 147 0 l 1,5,-1
 147 97 l 1,6,-1
 439 97 l 1,7,-1
 439 389 l 1,8,-1
 147 389 l 1,9,-1
 147 486 l 1,10,-1
 439 486 l 1,11,-1
 439 559 l 1,12,-1
 342 559 l 1,13,-1
 342 607 l 1,14,-1
 439 607 l 1,15,-1
 439 680 l 1,16,-1
 536 680 l 1,17,-1
 536 607 l 1,18,-1
 633 607 l 1,19,-1
 633 559 l 1,20,-1
 536 559 l 1,21,-1
 536 0 l 1,4,-1
EndSplineSet
EndChar

StartChar: ntilde
Encoding: 241 241 177
Width: 586
GlyphClass: 1
Flags: W
LayerCount: 2
Fore
SplineSet
147 0 m 1,0,-1
 50 0 l 1,1,-1
 50 486 l 1,2,-1
 439 486 l 1,3,-1
 439 389 l 1,4,-1
 147 389 l 1,5,-1
 147 0 l 1,0,-1
536 0 m 1,6,-1
 439 0 l 1,7,-1
 439 389 l 1,8,-1
 536 389 l 1,9,-1
 536 0 l 1,6,-1
415 583 m 1,10,-1
 366 583 l 1,11,-1
 366 632 l 1,12,-1
 415 632 l 1,13,-1
 415 583 l 1,10,-1
220 583 m 1,14,-1
 172 583 l 1,15,-1
 172 632 l 1,16,-1
 220 632 l 1,17,-1
 220 583 l 1,14,-1
269 632 m 1,18,-1
 220 632 l 1,19,-1
 220 680 l 1,20,-1
 269 680 l 1,21,-1
 269 632 l 1,18,-1
366 534 m 1,22,-1
 317 534 l 1,23,-1
 317 583 l 1,24,-1
 366 583 l 1,25,-1
 366 534 l 1,22,-1
317 583 m 1,26,-1
 269 583 l 1,27,-1
 269 632 l 1,28,-1
 317 632 l 1,29,-1
 317 583 l 1,26,-1
EndSplineSet
EndChar

StartChar: ograve
Encoding: 242 242 178
Width: 586
GlyphClass: 1
Flags: W
LayerCount: 2
Fore
SplineSet
439 389 m 1,0,-1
 147 389 l 1,1,-1
 147 486 l 1,2,-1
 439 486 l 1,3,-1
 439 389 l 1,0,-1
536 97 m 1,4,-1
 439 97 l 1,5,-1
 439 389 l 1,6,-1
 536 389 l 1,7,-1
 536 97 l 1,4,-1
439 0 m 1,8,-1
 147 0 l 1,9,-1
 147 97 l 1,10,-1
 439 97 l 1,11,-1
 439 0 l 1,8,-1
147 97 m 1,12,-1
 50 97 l 1,13,-1
 50 389 l 1,14,-1
 147 389 l 1,15,-1
 147 97 l 1,12,-1
317 534 m 1,16,-1
 269 534 l 1,17,-1
 269 583 l 1,18,-1
 317 583 l 1,19,-1
 317 534 l 1,16,-1
269 583 m 1,20,-1
 220 583 l 1,21,-1
 220 632 l 1,22,-1
 269 632 l 1,23,-1
 269 583 l 1,20,-1
220 632 m 1,24,-1
 171 632 l 1,25,-1
 171 680 l 1,26,-1
 220 680 l 1,27,-1
 220 632 l 1,24,-1
EndSplineSet
EndChar

StartChar: oacute
Encoding: 243 243 179
Width: 586
GlyphClass: 1
Flags: W
LayerCount: 2
Fore
SplineSet
439 389 m 1,0,-1
 147 389 l 1,1,-1
 147 486 l 1,2,-1
 439 486 l 1,3,-1
 439 389 l 1,0,-1
536 97 m 1,4,-1
 439 97 l 1,5,-1
 439 389 l 1,6,-1
 536 389 l 1,7,-1
 536 97 l 1,4,-1
439 0 m 1,8,-1
 147 0 l 1,9,-1
 147 97 l 1,10,-1
 439 97 l 1,11,-1
 439 0 l 1,8,-1
147 97 m 1,12,-1
 50 97 l 1,13,-1
 50 389 l 1,14,-1
 147 389 l 1,15,-1
 147 97 l 1,12,-1
317 534 m 1,16,-1
 269 534 l 1,17,-1
 269 583 l 1,18,-1
 317 583 l 1,19,-1
 317 534 l 1,16,-1
366 583 m 1,20,-1
 317 583 l 1,21,-1
 317 632 l 1,22,-1
 366 632 l 1,23,-1
 366 583 l 1,20,-1
414 632 m 1,24,-1
 366 632 l 1,25,-1
 366 680 l 1,26,-1
 414 680 l 1,27,-1
 414 632 l 1,24,-1
EndSplineSet
EndChar

StartChar: ocircumflex
Encoding: 244 244 180
Width: 586
GlyphClass: 1
Flags: W
LayerCount: 2
Fore
SplineSet
439 389 m 1,0,-1
 147 389 l 1,1,-1
 147 486 l 1,2,-1
 439 486 l 1,3,-1
 439 389 l 1,0,-1
536 97 m 1,4,-1
 439 97 l 1,5,-1
 439 389 l 1,6,-1
 536 389 l 1,7,-1
 536 97 l 1,4,-1
439 0 m 1,8,-1
 147 0 l 1,9,-1
 147 97 l 1,10,-1
 439 97 l 1,11,-1
 439 0 l 1,8,-1
147 97 m 1,12,-1
 50 97 l 1,13,-1
 50 389 l 1,14,-1
 147 389 l 1,15,-1
 147 97 l 1,12,-1
220 534 m 1,16,-1
 172 534 l 1,17,-1
 172 583 l 1,18,-1
 220 583 l 1,19,-1
 220 534 l 1,16,-1
269 583 m 1,20,-1
 220 583 l 1,21,-1
 220 632 l 1,22,-1
 269 632 l 1,23,-1
 269 583 l 1,20,-1
317 632 m 1,24,-1
 269 632 l 1,25,-1
 269 680 l 1,26,-1
 317 680 l 1,27,-1
 317 632 l 1,24,-1
415 534 m 1,28,-1
 366 534 l 1,29,-1
 366 583 l 1,30,-1
 415 583 l 1,31,-1
 415 534 l 1,28,-1
366 583 m 1,32,-1
 317 583 l 1,33,-1
 317 632 l 1,34,-1
 366 632 l 1,35,-1
 366 583 l 1,32,-1
EndSplineSet
EndChar

StartChar: otilde
Encoding: 245 245 181
Width: 586
GlyphClass: 1
Flags: W
LayerCount: 2
Fore
SplineSet
439 389 m 1,0,-1
 147 389 l 1,1,-1
 147 486 l 1,2,-1
 439 486 l 1,3,-1
 439 389 l 1,0,-1
536 97 m 1,4,-1
 439 97 l 1,5,-1
 439 389 l 1,6,-1
 536 389 l 1,7,-1
 536 97 l 1,4,-1
439 0 m 1,8,-1
 147 0 l 1,9,-1
 147 97 l 1,10,-1
 439 97 l 1,11,-1
 439 0 l 1,8,-1
147 97 m 1,12,-1
 50 97 l 1,13,-1
 50 389 l 1,14,-1
 147 389 l 1,15,-1
 147 97 l 1,12,-1
415 583 m 1,16,-1
 366 583 l 1,17,-1
 366 632 l 1,18,-1
 415 632 l 1,19,-1
 415 583 l 1,16,-1
220 583 m 1,20,-1
 172 583 l 1,21,-1
 172 632 l 1,22,-1
 220 632 l 1,23,-1
 220 583 l 1,20,-1
269 632 m 1,24,-1
 220 632 l 1,25,-1
 220 680 l 1,26,-1
 269 680 l 1,27,-1
 269 632 l 1,24,-1
366 534 m 1,28,-1
 317 534 l 1,29,-1
 317 583 l 1,30,-1
 366 583 l 1,31,-1
 366 534 l 1,28,-1
317 583 m 1,32,-1
 269 583 l 1,33,-1
 269 632 l 1,34,-1
 317 632 l 1,35,-1
 317 583 l 1,32,-1
EndSplineSet
EndChar

StartChar: odieresis
Encoding: 246 246 182
Width: 586
GlyphClass: 1
Flags: W
LayerCount: 2
Fore
SplineSet
439 389 m 1,0,-1
 147 389 l 1,1,-1
 147 486 l 1,2,-1
 439 486 l 1,3,-1
 439 389 l 1,0,-1
536 97 m 1,4,-1
 439 97 l 1,5,-1
 439 389 l 1,6,-1
 536 389 l 1,7,-1
 536 97 l 1,4,-1
439 0 m 1,8,-1
 147 0 l 1,9,-1
 147 97 l 1,10,-1
 439 97 l 1,11,-1
 439 0 l 1,8,-1
147 97 m 1,12,-1
 50 97 l 1,13,-1
 50 389 l 1,14,-1
 147 389 l 1,15,-1
 147 97 l 1,12,-1
366 583 m 1,16,-1
 318 583 l 1,17,-1
 318 632 l 1,18,-1
 366 632 l 1,19,-1
 366 583 l 1,16,-1
269 583 m 1,20,-1
 220 583 l 1,21,-1
 220 632 l 1,22,-1
 269 632 l 1,23,-1
 269 583 l 1,20,-1
EndSplineSet
EndChar

StartChar: divide
Encoding: 247 247 183
Width: 586
GlyphClass: 1
Flags: W
LayerCount: 2
Fore
SplineSet
341 486 m 1,0,-1
 244 486 l 1,1,-1
 244 583 l 1,2,-1
 341 583 l 1,3,-1
 341 486 l 1,0,-1
341 97 m 1,4,-1
 244 97 l 1,5,-1
 244 194 l 1,6,-1
 341 194 l 1,7,-1
 341 97 l 1,4,-1
536 291 m 1,8,-1
 50 291 l 1,9,-1
 50 388 l 1,10,-1
 536 388 l 1,11,-1
 536 291 l 1,8,-1
EndSplineSet
EndChar

StartChar: oslash
Encoding: 248 248 184
Width: 585
GlyphClass: 1
Flags: W
LayerCount: 2
Fore
SplineSet
317 219 m 1,0,-1
 268 219 l 1,1,-1
 268 267 l 1,2,-1
 317 267 l 1,3,-1
 317 219 l 1,0,-1
365 267 m 1,4,-1
 317 267 l 1,5,-1
 317 316 l 1,6,-1
 365 316 l 1,7,-1
 365 267 l 1,4,-1
414 316 m 1,8,-1
 365 316 l 1,9,-1
 365 364 l 1,10,-1
 414 364 l 1,11,-1
 414 316 l 1,8,-1
511 413 m 1,12,-1
 463 413 l 1,13,-1
 463 462 l 1,14,-1
 511 462 l 1,15,-1
 511 413 l 1,12,-1
123 24 m 1,16,-1
 74 24 l 1,17,-1
 74 73 l 1,18,-1
 123 73 l 1,19,-1
 123 24 l 1,16,-1
438 0 m 1,20,-1
 171 0 l 1,21,-1
 171 73 l 1,22,-1
 123 73 l 1,23,-1
 123 121 l 1,24,-1
 50 121 l 1,25,-1
 50 389 l 1,26,-1
 147 389 l 1,27,-1
 147 121 l 1,28,-1
 171 121 l 1,29,-1
 171 97 l 1,30,-1
 438 97 l 1,31,-1
 438 0 l 1,20,-1
220 121 m 1,32,-1
 171 121 l 1,33,-1
 171 170 l 1,34,-1
 220 170 l 1,35,-1
 220 121 l 1,32,-1
268 170 m 1,36,-1
 220 170 l 1,37,-1
 220 219 l 1,38,-1
 268 219 l 1,39,-1
 268 170 l 1,36,-1
535 97 m 1,40,-1
 438 97 l 1,41,-1
 438 364 l 1,42,-1
 414 364 l 1,43,-1
 414 389 l 1,44,-1
 147 389 l 1,45,-1
 147 486 l 1,46,-1
 414 486 l 1,47,-1
 414 413 l 1,48,-1
 463 413 l 1,49,-1
 463 364 l 1,50,-1
 535 364 l 1,51,-1
 535 97 l 1,40,-1
EndSplineSet
EndChar

StartChar: ugrave
Encoding: 249 249 185
Width: 586
GlyphClass: 1
Flags: W
LayerCount: 2
Fore
SplineSet
439 0 m 1,0,-1
 147 0 l 1,1,-1
 147 97 l 1,2,-1
 439 97 l 1,3,-1
 439 0 l 1,0,-1
147 97 m 1,4,-1
 50 97 l 1,5,-1
 50 486 l 1,6,-1
 147 486 l 1,7,-1
 147 97 l 1,4,-1
536 97 m 1,8,-1
 439 97 l 1,9,-1
 439 486 l 1,10,-1
 536 486 l 1,11,-1
 536 97 l 1,8,-1
220 632 m 1,12,-1
 171 632 l 1,13,-1
 171 680 l 1,14,-1
 220 680 l 1,15,-1
 220 632 l 1,12,-1
317 534 m 1,16,-1
 269 534 l 1,17,-1
 269 583 l 1,18,-1
 317 583 l 1,19,-1
 317 534 l 1,16,-1
269 583 m 1,20,-1
 220 583 l 1,21,-1
 220 632 l 1,22,-1
 269 632 l 1,23,-1
 269 583 l 1,20,-1
EndSplineSet
EndChar

StartChar: uacute
Encoding: 250 250 186
Width: 586
GlyphClass: 1
Flags: W
LayerCount: 2
Fore
SplineSet
439 0 m 1,0,-1
 147 0 l 1,1,-1
 147 97 l 1,2,-1
 439 97 l 1,3,-1
 439 0 l 1,0,-1
147 97 m 1,4,-1
 50 97 l 1,5,-1
 50 486 l 1,6,-1
 147 486 l 1,7,-1
 147 97 l 1,4,-1
536 97 m 1,8,-1
 439 97 l 1,9,-1
 439 486 l 1,10,-1
 536 486 l 1,11,-1
 536 97 l 1,8,-1
414 632 m 1,12,-1
 366 632 l 1,13,-1
 366 680 l 1,14,-1
 414 680 l 1,15,-1
 414 632 l 1,12,-1
317 534 m 1,16,-1
 268 534 l 1,17,-1
 268 583 l 1,18,-1
 317 583 l 1,19,-1
 317 534 l 1,16,-1
366 583 m 1,20,-1
 317 583 l 1,21,-1
 317 632 l 1,22,-1
 366 632 l 1,23,-1
 366 583 l 1,20,-1
EndSplineSet
EndChar

StartChar: ucircumflex
Encoding: 251 251 187
Width: 586
GlyphClass: 1
Flags: W
LayerCount: 2
Fore
SplineSet
439 0 m 1,0,-1
 147 0 l 1,1,-1
 147 97 l 1,2,-1
 439 97 l 1,3,-1
 439 0 l 1,0,-1
147 97 m 1,4,-1
 50 97 l 1,5,-1
 50 486 l 1,6,-1
 147 486 l 1,7,-1
 147 97 l 1,4,-1
536 97 m 1,8,-1
 439 97 l 1,9,-1
 439 486 l 1,10,-1
 536 486 l 1,11,-1
 536 97 l 1,8,-1
220 534 m 1,12,-1
 171 534 l 1,13,-1
 171 583 l 1,14,-1
 220 583 l 1,15,-1
 220 534 l 1,12,-1
268 583 m 1,16,-1
 220 583 l 1,17,-1
 220 632 l 1,18,-1
 268 632 l 1,19,-1
 268 583 l 1,16,-1
317 632 m 1,20,-1
 268 632 l 1,21,-1
 268 680 l 1,22,-1
 317 680 l 1,23,-1
 317 632 l 1,20,-1
414 534 m 1,24,-1
 366 534 l 1,25,-1
 366 583 l 1,26,-1
 414 583 l 1,27,-1
 414 534 l 1,24,-1
366 583 m 1,28,-1
 317 583 l 1,29,-1
 317 632 l 1,30,-1
 366 632 l 1,31,-1
 366 583 l 1,28,-1
EndSplineSet
EndChar

StartChar: udieresis
Encoding: 252 252 188
Width: 586
GlyphClass: 1
Flags: W
LayerCount: 2
Fore
SplineSet
439 0 m 1,0,-1
 147 0 l 1,1,-1
 147 97 l 1,2,-1
 439 97 l 1,3,-1
 439 0 l 1,0,-1
147 97 m 1,4,-1
 50 97 l 1,5,-1
 50 486 l 1,6,-1
 147 486 l 1,7,-1
 147 97 l 1,4,-1
536 97 m 1,8,-1
 439 97 l 1,9,-1
 439 486 l 1,10,-1
 536 486 l 1,11,-1
 536 97 l 1,8,-1
365 583 m 1,12,-1
 317 583 l 1,13,-1
 317 632 l 1,14,-1
 365 632 l 1,15,-1
 365 583 l 1,12,-1
268 583 m 1,16,-1
 220 583 l 1,17,-1
 220 632 l 1,18,-1
 268 632 l 1,19,-1
 268 583 l 1,16,-1
EndSplineSet
EndChar

StartChar: yacute
Encoding: 253 253 189
Width: 586
GlyphClass: 1
Flags: W
LayerCount: 2
Fore
SplineSet
147 97 m 1,0,-1
 50 97 l 1,1,-1
 50 486 l 1,2,-1
 147 486 l 1,3,-1
 147 97 l 1,0,-1
536 -97 m 1,4,-1
 439 -97 l 1,5,-1
 439 0 l 1,6,-1
 147 0 l 1,7,-1
 147 97 l 1,8,-1
 439 97 l 1,9,-1
 439 486 l 1,10,-1
 536 486 l 1,11,-1
 536 -97 l 1,4,-1
439 -194 m 1,12,-1
 50 -194 l 1,13,-1
 50 -97 l 1,14,-1
 439 -97 l 1,15,-1
 439 -194 l 1,12,-1
414 632 m 1,16,-1
 366 632 l 1,17,-1
 366 680 l 1,18,-1
 414 680 l 1,19,-1
 414 632 l 1,16,-1
317 534 m 1,20,-1
 268 534 l 1,21,-1
 268 583 l 1,22,-1
 317 583 l 1,23,-1
 317 534 l 1,20,-1
366 583 m 1,24,-1
 317 583 l 1,25,-1
 317 632 l 1,26,-1
 366 632 l 1,27,-1
 366 583 l 1,24,-1
EndSplineSet
EndChar

StartChar: thorn
Encoding: 254 254 190
Width: 586
GlyphClass: 1
Flags: W
LayerCount: 2
Fore
SplineSet
536 97 m 1,0,-1
 439 97 l 1,1,-1
 439 389 l 1,2,-1
 536 389 l 1,3,-1
 536 97 l 1,0,-1
439 0 m 1,4,-1
 244 0 l 1,5,-1
 244 97 l 1,6,-1
 439 97 l 1,7,-1
 439 0 l 1,4,-1
147 0 m 1,8,-1
 50 0 l 1,9,-1
 50 680 l 1,10,-1
 147 680 l 1,11,-1
 147 486 l 1,12,-1
 439 486 l 1,13,-1
 439 389 l 1,14,-1
 147 389 l 1,15,-1
 147 194 l 1,16,-1
 244 194 l 1,17,-1
 244 97 l 1,18,-1
 147 97 l 1,19,-1
 147 0 l 1,8,-1
EndSplineSet
EndChar

StartChar: ydieresis
Encoding: 255 255 191
Width: 586
GlyphClass: 1
Flags: W
LayerCount: 2
Fore
SplineSet
147 97 m 1,0,-1
 50 97 l 1,1,-1
 50 486 l 1,2,-1
 147 486 l 1,3,-1
 147 97 l 1,0,-1
536 -97 m 1,4,-1
 439 -97 l 1,5,-1
 439 0 l 1,6,-1
 147 0 l 1,7,-1
 147 97 l 1,8,-1
 439 97 l 1,9,-1
 439 486 l 1,10,-1
 536 486 l 1,11,-1
 536 -97 l 1,4,-1
439 -194 m 1,12,-1
 50 -194 l 1,13,-1
 50 -97 l 1,14,-1
 439 -97 l 1,15,-1
 439 -194 l 1,12,-1
365 583 m 1,16,-1
 317 583 l 1,17,-1
 317 632 l 1,18,-1
 365 632 l 1,19,-1
 365 583 l 1,16,-1
268 583 m 1,20,-1
 220 583 l 1,21,-1
 220 632 l 1,22,-1
 268 632 l 1,23,-1
 268 583 l 1,20,-1
EndSplineSet
EndChar

StartChar: OE
Encoding: 338 338 192
Width: 974
GlyphClass: 1
Flags: W
LayerCount: 2
Fore
SplineSet
439 583 m 1,0,-1
 147 583 l 1,1,-1
 147 680 l 1,2,-1
 439 680 l 1,3,-1
 439 583 l 1,0,-1
439 0 m 1,4,-1
 147 0 l 1,5,-1
 147 97 l 1,6,-1
 439 97 l 1,7,-1
 439 0 l 1,4,-1
147 97 m 1,8,-1
 50 97 l 1,9,-1
 50 583 l 1,10,-1
 147 583 l 1,11,-1
 147 97 l 1,8,-1
924 0 m 1,12,-1
 536 0 l 1,13,-1
 536 97 l 1,14,-1
 924 97 l 1,15,-1
 924 0 l 1,12,-1
536 97 m 1,16,-1
 439 97 l 1,17,-1
 439 583 l 1,18,-1
 536 583 l 1,19,-1
 536 389 l 1,20,-1
 730 389 l 1,21,-1
 730 291 l 1,22,-1
 536 291 l 1,23,-1
 536 97 l 1,16,-1
924 583 m 1,24,-1
 536 583 l 1,25,-1
 536 680 l 1,26,-1
 924 680 l 1,27,-1
 924 583 l 1,24,-1
EndSplineSet
EndChar

StartChar: oe
Encoding: 339 339 193
Width: 974
GlyphClass: 1
Flags: W
LayerCount: 2
Fore
SplineSet
438 389 m 1,0,-1
 147 389 l 1,1,-1
 147 486 l 1,2,-1
 438 486 l 1,3,-1
 438 389 l 1,0,-1
438 0 m 1,4,-1
 147 0 l 1,5,-1
 147 97 l 1,6,-1
 438 97 l 1,7,-1
 438 0 l 1,4,-1
147 97 m 1,8,-1
 50 97 l 1,9,-1
 50 389 l 1,10,-1
 147 389 l 1,11,-1
 147 97 l 1,8,-1
535 97 m 1,12,-1
 438 97 l 1,13,-1
 438 389 l 1,14,-1
 535 389 l 1,15,-1
 535 291 l 1,16,-1
 827 291 l 1,17,-1
 827 389 l 1,18,-1
 924 389 l 1,19,-1
 924 194 l 1,20,-1
 535 194 l 1,21,-1
 535 97 l 1,12,-1
827 389 m 1,22,-1
 535 389 l 1,23,-1
 535 486 l 1,24,-1
 827 486 l 1,25,-1
 827 389 l 1,22,-1
827 0 m 1,26,-1
 535 0 l 1,27,-1
 535 97 l 1,28,-1
 827 97 l 1,29,-1
 827 0 l 1,26,-1
EndSplineSet
EndChar
